<ttFont>
          <CharString index="0">
            -105 callgsubr
            -108 -90 -72 -120 -108 75 -72 109 -83 callsubr
            return
          </CharString>
          <CharString index="1">
            187 callsubr
            -80 -59 54 72 -16 vhcurveto
            78 -104 callgsubr
            hlineto
            return
          </CharString>
          <CharString index="2">
            -60 -27 -30 -45 -41 16 -39 12 -24 hvcurveto
            66 hlineto
            -8 24 -5 28 22 vvcurveto
            27 8 12 24 vhcurveto
            return
          </CharString>
          <CharString index="3">
            -82 callsubr
            55 44 69 6 -36 callsubr
            return
          </CharString>
          <CharString index="4">
            -91 callgsubr
            46 hhcurveto
            120 79 73 107 67 -28 48 -44 26 hvcurveto
            return
          </CharString>
          <CharString index="5">
            -101 callgsubr
            vlineto
            endchar
          </CharString>
          <CharString index="6">
            187 -282 rlineto
            95 hlineto
            -184 274 rlineto
            -5 33 53 -4 84 hhcurveto
            return
          </CharString>
          <CharString index="7">
            150 callsubr
            -69 -55 -88 callgsubr
            -16 -25 3 -22 hhcurveto
            return
          </CharString>
          <CharString index="8">
            -8 -16 -15 -2 -14 hhcurveto
            -40 -30 28 44 44 30 40 57 76 35 -56 -73 -111 -81 -77 -129 -131 -94 93 104 -27 hvcurveto
            2 12 1 1 2 hvcurveto
            87 4 26 51 93 vvcurveto
            return
          </CharString>
          <CharString index="9">
            128 callgsubr
            rcurveline
            -93 callsubr
            100 -81 117 return
          </CharString>
          <CharString index="10">
            -85 callsubr
            33 hlineto
            111 115 71 143 93 -62 80 -103 -93 -52 -65 -72 -21 3 -22 10 -21 hvcurveto
            return
          </CharString>
          <CharString index="11">
            -79 callgsubr
            43 48 84 hvcurveto
            234 return
          </CharString>
          <CharString index="12">
            46 94 vvcurveto
            38 -10 32 -15 23 vhcurveto
            return
          </CharString>
          <CharString index="13">
            -99 callgsubr
            103 60 53 return
          </CharString>
          <CharString index="14">
            -87 callgsubr
            -125 return
          </CharString>
          <CharString index="15">
            -116 -67 116 -575 -7 callsubr
            67 -115 return
          </CharString>
          <CharString index="16">
            35 -73 hhcurveto
            -106 -66 -87 -119 -149 93 -114 147 return
          </CharString>
          <CharString index="17">
            -74 callgsubr
            57 callgsubr
            return
          </CharString>
          <CharString index="18">
            -73 callgsubr
            vlineto
            endchar
          </CharString>
          <CharString index="19">
            -67 91 -247 -167 hlineto
            -20 24 -28 16 -34 5 rrcurveto
            52 14 40 43 70 vvcurveto
            84 -59 57 -112 -37 -37 -8 -10 -24 vhcurveto
            -74 vlineto
            12 22 38 12 37 hhcurveto
            65 29 -30 -52 -50 -34 -35 -73 hvcurveto
            -32 -70 34 hlineto
            86 39 -36 -55 -80 -67 -26 -54 -49 -34 12 19 -38 hvcurveto
            -74 vlineto
            -14 33 44 -10 45 hhcurveto
            127 71 70 96 8 0 7 -1 7 hvcurveto
            138 -260 -1 callgsubr
            return
          </CharString>
          <CharString index="20">
            rmoveto
            -211 121 -137 182 186 116 137 211 211 -112 136 -191 -185 -117 -136 -211 vhcurveto
            85 hmoveto
            168 81 103 136 139 78 -103 -168 -168 -78 -103 -138 -131 -87 103 168 vhcurveto
            return
          </CharString>
          <CharString index="21">
            -149 93 -114 147 11 15 1 2 12 vhcurveto
            -76 callgsubr
          </CharString>
          <CharString index="22">
            -72 callgsubr
            221 -253 -11 callgsubr
            return
          </CharString>
          <CharString index="23">
            11 21 27 6 30 hhcurveto
            23 27 -4 -9 28 hvcurveto
            69 vlineto
            6 -26 -27 4 -30 hhcurveto
            return
          </CharString>
          <CharString index="24">
            47 41 17 29 28 hvcurveto
            -36 callgsubr
            return
          </CharString>
          <CharString index="25">
            -63 -50 -45 -57 -68 -47 49 68 79 return
          </CharString>
          <CharString index="26">
            -10 17 -5 19 21 vvcurveto
            40 21 36 49 51 36 -32 -75 -91 -65 -54 -111 vhcurveto
            return
          </CharString>
          <CharString index="27">
            64 -41 -53 31 -74 hhcurveto
            -28 -30 -5 -1 -3 hvcurveto
            -68 vlineto
            1 4 30 6 24 hhcurveto
            52 37 -19 -37 29 hvcurveto
            92 -118 -62 55 rlineto
            48 -55 -39 23 -58 hhcurveto
            -24 -27 -7 -1 return
          </CharString>
          <CharString index="28">
            -67 90 -204 hlineto
            -57 callsubr
            65 51 45 65 return
          </CharString>
          <CharString index="29">
            18 24 9 33 42 vvcurveto
            143 return
          </CharString>
          <CharString index="30">
            -133 78 264 -75 vlineto
            -68 -2 -50 -50 -80 hhcurveto
            -78 -51 51 88 84 56 49 90 hvcurveto
            return
          </CharString>
          <CharString index="31">
            -45 -19 -22 -41 -31 -30 14 0 vhcurveto
            -69 vlineto
            -7 17 26 -6 30 hhcurveto
            return
          </CharString>
          <CharString index="32">
            -80 callsubr
            -3 191 callsubr
            3 190 callsubr
            return
          </CharString>
          <CharString index="33">
            rmoveto
            1 -10 -10 1 -10 hhcurveto
            127 callgsubr
            hvcurveto
            -44 callsubr
            38 67 -30 hlineto
            -53 -48 34 58 41 20 38 42 23 hvcurveto
            204 hlineto
            226 hmoveto
            67 return
          </CharString>
          <CharString index="34">
            rmoveto
            -137 -69 -49 -98 -93 -71 50 131 vhcurveto
            425 -81 -426 vlineto
            -169 94 -87 151 153 95 87 177 vhcurveto
            418 -81 vlineto
            return
          </CharString>
          <CharString index="35">
            67 vlineto
            -12 -43 -47 -6 -35 hhcurveto
            -124 -50 51 62 51 47 48 93 68 29 -34 -39 -16 -3 -21 -11 -15 hvcurveto
            77 hlineto
            8 17 3 21 18 vvcurveto
            67 -53 67 -117 -37 -32 -5 -10 -28 vhcurveto
            -22 11 -25 27 38 vvcurveto
            37 25 8 31 vhcurveto
            endchar
          </CharString>
          <CharString index="36">
            29 callsubr
            66 callgsubr
            hvcurveto
            return
          </CharString>
          <CharString index="37">
            -67 368 -305 hlineto
            -107 callgsubr
            return
          </CharString>
          <CharString index="38">
            -45 callgsubr
            -104 -73 52 97 104 84 53 114 21 30 -2 -3 19 hvcurveto
            endchar
          </CharString>
          <CharString index="39">
            hlineto
            -70 callgsubr
            return
          </CharString>
          <CharString index="40">
            61 1 44 23 28 35 93 callgsubr
            return
          </CharString>
          <CharString index="41">
            -36 -12 -35 -22 -28 vhcurveto
            -209 205 rlineto
            -84 callsubr
            return
          </CharString>
          <CharString index="42">
            -19 15 -31 -39 vvcurveto
            return
          </CharString>
          <CharString index="43">
            11 15 1 2 12 hvcurveto
            -76 callgsubr
          </CharString>
          <CharString index="44">
            81 284 hlineto
            189 -5 104 0 vhcurveto
            0 57 -104 115 -191 vhcurveto
            169 -282 rlineto
            102 674 -81 -285 hlineto
            -194 4 -97 0 vhcurveto
            0 -54 97 -117 195 vhcurveto
            -169 284 rlineto
            -102 hlineto
            return
          </CharString>
          <CharString index="45">
            -67 618 -137 hlineto
            -58 -17 -34 -75 -59 callsubr
            53 36 -33 -40 7 hvcurveto
            -29 vlineto
            return
          </CharString>
          <CharString index="46">
            hhcurveto
            -85 -49 40 53 60 50 36 81 hvcurveto
            59 67 -50 hlineto
            -73 -63 24 64 57 49 43 91 hvcurveto
            1 67 return
          </CharString>
          <CharString index="47">
            -91 -61 -47 -67 -71 -35 33 97 vhcurveto
            return
          </CharString>
          <CharString index="48">
            -2 vhcurveto
            58 -21 -58 50 -95 hhcurveto
            -33 hlineto
            -152 -99 callgsubr
            99 60 57 94 hvcurveto
            38 hlineto
            return
          </CharString>
          <CharString index="49">
            rmoveto
            30 22 23 29 29 -22 22 -30 -29 -22 -22 -29 -29 22 -23 29 hvcurveto
            -201 hmoveto
            -19 callgsubr
            return
          </CharString>
          <CharString index="50">
            -43 callgsubr
            310 vlineto
            return
          </CharString>
          <CharString index="51">
            29 22 23 29 29 -22 22 -29 -30 -22 -22 -29 return
          </CharString>
          <CharString index="52">
            -25 -6 -17 -20 -27 -31 callgsubr
            return
          </CharString>
          <CharString index="53">
            -99 callsubr
            117 return
          </CharString>
          <CharString index="54">
            2 -5 -9 1 -9 hhcurveto
            return
          </CharString>
          <CharString index="55">
            -384 54 callsubr
            hlineto
            endchar
          </CharString>
          <CharString index="56">
            -108 75 -72 109 return
          </CharString>
          <CharString index="57">
            12 20 32 11 33 hhcurveto
            45 28 -25 -36 -56 -54 -32 -69 -98 -69 64 93 92 73 67 123 32 33 -4 -6 37 hvcurveto
            return
          </CharString>
          <CharString index="58">
            -67 349 -74 -86 hlineto
            -98 -68 -46 -83 173 callsubr
            hvcurveto
            85 -6 33 -34 -46 vvcurveto
            -53 -37 -32 -56 -63 -60 169 callgsubr
            52 -18 56 hhcurveto
            100 67 65 87 34 -10 28 -19 23 hvcurveto
            return
          </CharString>
          <CharString index="59">
            -61 callsubr
            -310 -67 152 hlineto
            -20 callsubr
            return
          </CharString>
          <CharString index="60">
            -91 -68 -66 -83 -80 62 -52 75 18 19 150 callgsubr
            return
          </CharString>
          <CharString index="61">
            rmoveto
            -50 callsubr
            183 146 67 -600 -67 375 -109 vlineto
            2 -15 -16 1 -14 hhcurveto
            -156 -1 -98 -99 -125 vvcurveto
            -136 107 -87 139 62 callgsubr
            return
          </CharString>
          <CharString index="62">
            -131 80 -98 136 return
          </CharString>
          <CharString index="63">
            -65 vlineto
            4 9 19 3 15 hhcurveto
            76 36 -45 -65 -119 -86 -67 -115 -85 -67 39 65 53 38 35 72 hvcurveto
            return
          </CharString>
          <CharString index="64" raw="1">
            fcd38a1d 0b  
          </CharString>
          <CharString index="65">
            3 callsubr
            -71 callgsubr
            return
          </CharString>
          <CharString index="66">
            hhcurveto
            -47 callsubr
            return
          </CharString>
          <CharString index="67">
            rmoveto
            26 -30 -40 15 -48 hhcurveto
            -88 -69 -64 -83 -80 62 -52 74 19 18 150 callgsubr
            61 vlineto
            -7 -16 -14 -3 -15 hhcurveto
            -41 -29 28 43 44 32 39 57 74 41 -50 -75 -111 -90 -76 -127 -130 -93 90 104 -27 hvcurveto
            12 1 rlineto
            90 3 26 50 95 vvcurveto
            116 335 56 callsubr
            return
          </CharString>
          <CharString index="68">
            rmoveto
            -229 -71 148 -210 hlineto
            -15 -32 -42 -12 -52 hhcurveto
            -164 -99 101 167 164 105 105 150 61 70 -15 -39 59 hvcurveto
            87 vlineto
            34 -58 -73 12 -66 hhcurveto
            -191 -142 -142 -206 -217 141 -129 205 84 77 25 36 48 hvcurveto
            -1 3 rlineto
            1 hlineto
            endchar
          </CharString>
          <CharString index="69">
            126 callsubr
            -51 -67 -71 -35 37 97 vhcurveto
            201 234 vlineto
            return
          </CharString>
          <CharString index="70">
            rmoveto
            -78 -507 78 277 hlineto
            109 69 57 71 59 44 -38 -77 vhcurveto
            -328 79 349 vlineto
            100 -63 65 -99 -73 -57 -32 -63 -30 vhcurveto
            endchar
          </CharString>
          <CharString index="71">
            8 0 -1 5 vhcurveto
            return
          </CharString>
          <CharString index="72">
            rmoveto
            -91 -61 -50 -67 -71 -35 37 97 vhcurveto
            183 234 vlineto
            return
          </CharString>
          <CharString index="73">
            61 1 44 24 28 37 93 callgsubr
            -42 callgsubr
          </CharString>
          <CharString index="74">
            90 callgsubr
            -170 vlineto
            -25 -5 -17 -22 -28 -14 callsubr
            return
          </CharString>
          <CharString index="75">
            rmoveto
            -18 -26 195 callsubr
            -82 164 callsubr
            return
          </CharString>
          <CharString index="76">
            399 -35 callsubr
            return
          </CharString>
          <CharString index="77">
            346 rmoveto
            -210 229 210 hlineto
            return
          </CharString>
          <CharString index="78">
            -71 callsubr
            95 return
          </CharString>
          <CharString index="79">
            rmoveto
            140 64 -140 126 -79 -126 -81 -64 81 -295 hlineto
            -97 44 -56 106 21 33 7 11 20 vhcurveto
            75 vlineto
            -13 -17 -27 -10 -25 hhcurveto
            -51 -25 28 53 hvcurveto
            endchar
          </CharString>
          <CharString index="80">
            21 -38 -47 7 -31 hhcurveto
            -170 -93 -129 -135 -140 94 -123 167 40 50 12 17 28 hvcurveto
            75 vlineto
            -18 -27 -42 -15 -39 hhcurveto
            -126 -62 89 102 -1 hvcurveto
            return
          </CharString>
          <CharString index="81">
            114 callgsubr
            63 49 46 60 66 46 -48 -67 -82 -54 -43 3 callgsubr
            -66 vlineto
            -2 6 9 -1 153 callgsubr
            69 123 106 -73 74 140 callgsubr
            -17 -30 -29 hvcurveto
            137 vlineto
            endchar
          </CharString>
          <CharString index="82">
            -46 callgsubr
            58 46 -26 -47 62 hvcurveto
            return
          </CharString>
          <CharString index="83">
            135 callsubr
            168 -265 17 callsubr
          </CharString>
          <CharString index="84">
            vlineto
            -13 53 callgsubr
            73 107 67 -28 68 callgsubr
            return
          </CharString>
          <CharString index="85">
            rmoveto
            -7 -16 -14 -3 -15 hhcurveto
            -41 -29 28 43 44 32 39 57 74 35 -50 -75 -111 -85 -76 -126 -130 -93 90 104 -27 hvcurveto
            12 1 rlineto
            90 3 26 50 95 vvcurveto
            116 316 67 -614 -67 220 -104 vlineto
            162 callsubr
            171 -5 -202 -157 rcurveline
            118 hlineto
            268 212 rlineto
            52 42 57 64 97 vvcurveto
            107 -71 78 -118 -88 -69 -64 -83 -80 62 -52 74 19 18 4 7 17 vhcurveto
            endchar
          </CharString>
          <CharString index="86">
            -48 -41 -19 -29 -28 hvcurveto
            return
          </CharString>
          <CharString index="87">
            -28 callgsubr
            79 -70 131 return
          </CharString>
          <CharString index="88">
            382 rmoveto
            -60 callsubr
            201 234 vlineto
            return
          </CharString>
          <CharString index="89">
            rmoveto
            69 hlineto
            124 156 rlineto
            -94 hlineto
            return
          </CharString>
          <CharString index="90">
            rmoveto
            -78 hlineto
            -1 -507 rlineto
            79 277 hlineto
            81 49 81 74 15 13 -2 -5 15 vhcurveto
            78 vlineto
            2 -10 -9 0 -9 hhcurveto
            -71 -43 -38 -56 -24 hvcurveto
            endchar
          </CharString>
          <CharString index="91">
            rmoveto
            147 67 -601 -67 375 -109 hlineto
            2 -15 -16 1 -14 hhcurveto
            -156 -1 -98 -99 -125 vvcurveto
            -108 68 -78 98 -27 vhcurveto
            -114 -149 rlineto
            95 hlineto
            93 128 93 -128 rlineto
            95 hlineto
            -112 147 rlineto
            82 20 49 57 69 vvcurveto
            0 callsubr
          </CharString>
          <CharString index="92">
            -231 vlineto
            -96 callsubr
            return
          </CharString>
          <CharString index="93">
            vvcurveto
            -26 13 -32 14 -31 vhcurveto
            24 -56 rlineto
            70 137 return
          </CharString>
          <CharString index="94">
            rmoveto
            54 31 -44 -44 -49 -40 -43 -41 -25 hvcurveto
            -66 38 -25 40 42 vvcurveto
            46 34 39 53 vhcurveto
            257 59 rmoveto
            -354 vlineto
            -77 18 -61 20 -49 20 rrcurveto
            50 36 43 53 62 vvcurveto
            82 -60 69 -107 -101 -60 -75 -74 return
          </CharString>
          <CharString index="95">
            vvcurveto
            -62 42 -48 80 29 28 6 13 22 vhcurveto
            61 vlineto
            -12 -16 -28 -10 -24 hhcurveto
            -39 -26 20 39 51 52 44 return
          </CharString>
          <CharString index="96">
            16 -65 callsubr
            return
          </CharString>
          <CharString index="97">
            -11 callgsubr
            33 -68 callsubr
            return
          </CharString>
          <CharString index="98">
            rmoveto
            -127 -156 rlineto
            80 hlineto
            85 105 85 -105 rlineto
            80 hlineto
            -127 156 rlineto
            return
          </CharString>
          <CharString index="99">
            -67 98 -204 hlineto
            188 callsubr
            return
          </CharString>
          <CharString index="100">
            -1 callgsubr
            115 return
          </CharString>
          <CharString index="101">
            -10 callsubr
            -21 3 -22 10 -21 hvcurveto
            return
          </CharString>
          <CharString index="102">
            rmoveto
            23 -6 31 -12 17 vhcurveto
            -71 hlineto
            15 -25 8 -20 -27 vvcurveto
            -42 -29 -25 -55 -4 vhcurveto
            -58 vlineto
            102 3 48 59 68 vvcurveto
            endchar
          </CharString>
          <CharString index="103">
            116 67 vlineto
            endchar
          </CharString>
          <CharString index="104">
            -31 -26 -14 -39 -37 vvcurveto
            -72 52 -42 43 -7 vhcurveto
            -66 -7 -47 -48 -72 170 callsubr
            return
          </CharString>
          <CharString index="105">
            rmoveto
            65 hlineto
            111 192 rlineto
            return
          </CharString>
          <CharString index="106">
            rmoveto
            111 67 -540 -67 350 77 callgsubr
            -144 -1 -103 -89 -130 vvcurveto
            -103 60 -70 93 -29 vhcurveto
            -118 -153 rlineto
            95 hlineto
            95 128 92 -128 rlineto
            95 hlineto
            -110 142 41 6 36 12 21 12 rlinecurve
            71 vlineto
            -18 -32 -56 -20 -54 193 callsubr
            24 26 -2 -3 21 hvcurveto
            endchar
          </CharString>
          <CharString index="107">
            38 callgsubr
            -65 vlineto
            -50 callsubr
            endchar
          </CharString>
          <CharString index="108">
            -45 callsubr
            -26 callgsubr
            return
          </CharString>
          <CharString index="109">
            rmoveto
            234 -176 hlineto
            -91 -61 -50 -67 -71 -35 37 97 vhcurveto
            313 183 rmoveto
            160 67 -647 99 callsubr
            311 vlineto
            65 51 44 65 53 41 -29 -51 22 vhcurveto
            60 46 rlineto
            57 -31 -56 42 -83 hhcurveto
            -51 -42 -17 -30 -29 hvcurveto
            endchar
          </CharString>
          <CharString index="110">
            144 35 97 61 115 vvcurveto
            return
          </CharString>
          <CharString index="111">
            hhcurveto
            27 callsubr
            return
          </CharString>
          <CharString index="112">
            rmoveto
            -94 hlineto
            -51 -99 rlineto
            -118 -226 -9 -25 0 vvcurveto
            0 -8 25 -116 226 vhcurveto
            -51 99 rlineto
            -94 hlineto
            229 -424 rlineto
            -250 81 251 vlineto
            endchar
          </CharString>
          <CharString index="113">
            rmoveto
            123 callsubr
            30 23 24 30 hvcurveto
            -161 vmoveto
            59 47 48 58 59 -47 48 -59 -59 -47 -48 -59 -58 47 -48 59 hvcurveto
            return
          </CharString>
          <CharString index="114">
            -67 459 97 callgsubr
            -8 hlineto
            24 -21 -36 27 -72 hhcurveto
            -87 -100 callgsubr
            55 hlineto
            48 21 -14 -25 8 hvcurveto
            -8 135 callsubr
            return
          </CharString>
          <CharString index="115">
            -68 12 callgsubr
            return
          </CharString>
          <CharString index="116">
            -17 callgsubr
            -193 -344 144 callsubr
            -83 -49 40 53 60 50 36 81 vhcurveto
            59 67 -50 hlineto
            -73 -63 24 64 57 49 43 91 hvcurveto
            1 67 return
          </CharString>
          <CharString index="117">
            rmoveto
            85 -105 rlineto
            80 hlineto
            -127 156 rlineto
            -76 hlineto
            -127 -156 rlineto
            80 hlineto
            return
          </CharString>
          <CharString index="118">
            -77 callgsubr
            endchar
          </CharString>
          <CharString index="119">
            hhcurveto
            74 57 26 43 31 77 callsubr
            return
          </CharString>
          <CharString index="120">
            51 -155 110 -103 169 -5 -202 -157 rcurveline
            118 hlineto
            163 125 93 71 52 54 rrcurveto
            -141 79 -42 callgsubr
          </CharString>
          <CharString index="121">
            144 48 340 -87 callsubr
            return
          </CharString>
          <CharString index="122">
            rmoveto
            -445 -69 351 hlineto
            -356 -538 rlineto
            -67 465 69 -371 vlineto
            356 539 rlineto
            return
          </CharString>
          <CharString index="123">
            -269 hlineto
            -66 callsubr
            return
          </CharString>
          <CharString index="124">
            -7 callsubr
            hlineto
            endchar
          </CharString>
          <CharString index="125">
            rmoveto
            -104 162 -25 callsubr
            return
          </CharString>
          <CharString index="126">
            rmoveto
            -56 -27 -46 -72 -73 -27 46 56 vhcurveto
            -65 hlineto
            -93 51 -66 114 113 51 66 93 vhcurveto
            return
          </CharString>
          <CharString index="127">
            rmoveto
            123 -165 rlineto
            97 hlineto
            -140 165 rlineto
            return
          </CharString>
          <CharString index="128">
            hhcurveto
            -21 callsubr
            return
          </CharString>
          <CharString index="129">
            hhcurveto
            23 callgsubr
          </CharString>
          <CharString index="130">
            -71 callgsubr
            -82 -86 -46 -170 -36 vhcurveto
            -163 16 113 -71 120 100 callgsubr
            return
          </CharString>
          <CharString index="131">
            585 rmoveto
            250 69 -328 -362 hlineto
            18 40 55 17 56 hhcurveto
            80 60 -41 -79 -95 -59 -46 -109 -53 -63 15 23 -39 hvcurveto
            -78 vlineto
            -24 49 64 -10 55 hhcurveto
            148 89 84 128 119 -84 76 -133 -25 -26 -4 -6 -27 hvcurveto
            endchar
          </CharString>
          <CharString index="132">
            rmoveto
            -76 -71 -33 -79 -70 -75 32 77 73 65 38 85 82 63 -35 -76 vhcurveto
            -282 364 rmoveto
            245 -152 rlineto
            -24 -19 -29 -10 -40 hhcurveto
            -47 hlineto
            -72 -38 34 88 hvcurveto
            268 2 rmoveto
            -19 -2 -16 -3 -14 vhcurveto
            -259 164 rlineto
            264 hlineto
            return
          </CharString>
          <CharString index="133">
            -67 149 callgsubr
            return
          </CharString>
          <CharString index="134">
            -21 callsubr
            143 return
          </CharString>
          <CharString index="135">
            rmoveto
            -67 396 47 callgsubr
            52 callsubr
            hvcurveto
            81 callsubr
          </CharString>
          <CharString index="136">
            67 4 callgsubr
            0 -7 hhcurveto
            -98 -46 65 95 return
          </CharString>
          <CharString index="137">
            -177 37 222 rmoveto
            169 callsubr
            165 67 -423 155 callgsubr
            418 41 rmoveto
            -409 -352 182 callsubr
            337 286 rlineto
            return
          </CharString>
          <CharString index="138">
            -9 78 7 vlineto
            70 61 51 143 174 61 -68 -85 vhcurveto
            -32 52 callgsubr
            return
          </CharString>
          <CharString index="139">
            -34 -73 -74 -62 -42 -71 hvcurveto
            -42 -69 42 hlineto
            98 55 -39 -71 -68 -48 -51 -87 -58 -54 13 26 -49 hvcurveto
            -79 vlineto
            -21 44 67 -12 52 hhcurveto
            141 73 84 102 81 -50 53 -74 17 hvcurveto
            71 29 34 60 69 vvcurveto
            91 -68 81 return
          </CharString>
          <CharString index="140">
            -67 95 -120 hlineto
            -85 33 -53 53 -19 vhcurveto
            -55 -23 -39 -45 -71 vvcurveto
            -115 106 -58 124 66 68 14 20 40 vhcurveto
            72 vlineto
            -21 -38 -72 -18 -61 hhcurveto
            -90 -62 33 76 71 64 36 83 hvcurveto
            160 21 hlineto
            16 2 rlineto
            return
          </CharString>
          <CharString index="141">
            -63 callsubr
            endchar
          </CharString>
          <CharString index="142">
            rmoveto
            -140 165 rlineto
            -80 hlineto
            123 -165 rlineto
            return
          </CharString>
          <CharString index="143">
            78 callgsubr
            -84 -58 41 80 -19 vhcurveto
            -42 callsubr
            return
          </CharString>
          <CharString index="144">
            vlineto
            41 callsubr
          </CharString>
          <CharString index="145">
            53 -34 -53 32 -67 hhcurveto
            -127 -91 -107 -159 -135 75 -122 141 74 50 34 49 32 hvcurveto
            -75 79 return
          </CharString>
          <CharString index="146">
            -51 callsubr
            47 41 17 29 28 return
          </CharString>
          <CharString index="147">
            89 -17 -70 52 -110 hhcurveto
            -30 -32 -6 -7 -18 hvcurveto
            -67 vlineto
            9 19 29 5 31 hhcurveto
            77 45 -49 -71 -76 -47 -53 -90 -60 -50 19 22 -36 hvcurveto
            -74 vlineto
            -16 30 57 -19 65 hhcurveto
            119 81 74 101 10 hvcurveto
            return
          </CharString>
          <CharString index="148">
            -47 callgsubr
            162 -575 -85 callgsubr
          </CharString>
          <CharString index="149">
            68 136 210 -280 -7 callsubr
            return
          </CharString>
          <CharString index="150">
            -67 257 hlineto
            23 -21 19 -35 -37 vvcurveto
            -64 -34 -39 -86 vhcurveto
            -46 -68 46 hlineto
            91 63 -40 -70 -80 -63 -35 -86 -54 -43 14 17 -35 hvcurveto
            -72 vlineto
            -15 40 45 -11 53 hhcurveto
            145 77 74 103 return
          </CharString>
          <CharString index="151">
            25 -56 rcurveline
            156 callsubr
          </CharString>
          <CharString index="152">
            -26 440 106 callsubr
            113 67 -575 -67 385 -92 -176 vlineto
            -69 -53 -34 -66 return
          </CharString>
          <CharString index="153">
            72 56 41 22 hvcurveto
            -205 -1 callgsubr
            return
          </CharString>
          <CharString index="154">
            -141 67 -58 113 vhcurveto
            -34 callsubr
          </CharString>
          <CharString index="155">
            61 callsubr
            60 92 97 -74 39 -105 1 hvcurveto
            -91 1 -29 21 38 vvcurveto
            40 37 18 54 vhcurveto
            322 -424 -1 callgsubr
            132 return
          </CharString>
          <CharString index="156">
            -98 callsubr
            82 61 32 46 48 hvcurveto
            return
          </CharString>
          <CharString index="157">
            -70 callgsubr
            -21 3 -22 10 -21 hvcurveto
            77 hlineto
            -81 callsubr
            return
          </CharString>
          <CharString index="158">
            94 1 60 42 29 46 rrcurveto
            -188 -85 callgsubr
          </CharString>
          <CharString index="159">
            -111 80 -90 127 57 52 19 33 26 return
          </CharString>
          <CharString index="160">
            308 vlineto
            62 51 45 57 return
          </CharString>
          <CharString index="161">
            78 -73 callgsubr
            return
          </CharString>
          <CharString index="162">
            1 -8 -8 0 -8 hhcurveto
            return
          </CharString>
          <CharString index="163">
            vlineto
            70 callsubr
            return
          </CharString>
          <CharString index="164">
            -20 28 28 22 20 28 28 -22 21 -28 hvcurveto
            endchar
          </CharString>
          <CharString index="165">
            59 67 -51 hlineto
            -73 -63 17 64 57 50 43 90 hvcurveto
            1 67 -315 -67 157 hlineto
            -39 -20 -23 -36 -45 vvcurveto
            -75 51 -31 72 -7 vhcurveto
            -70 -7 -57 -48 -73 vvcurveto
            return
          </CharString>
          <CharString index="166">
            rmoveto
            -69 -45 46 72 72 43 53 72 61 46 -35 -29 25 hvcurveto
            -78 -30 -8 -101 -95 hhcurveto
            return
          </CharString>
          <CharString index="167">
            -113 hlineto
            -41 callgsubr
            return
          </CharString>
          <CharString index="168">
            -71 -226 77 116 hlineto
            -32 35 51 -19 58 hhcurveto
            93 78 return
          </CharString>
          <CharString index="169">
            -231 vlineto
            -45 -19 -22 -41 -31 -30 14 0 vhcurveto
            return
          </CharString>
          <CharString index="170">
            408 rmoveto
            167 120 67 return
          </CharString>
          <CharString index="171">
            vlineto
            -96 callsubr
            175 -575 131 callgsubr
          </CharString>
          <CharString index="172">
            -231 vlineto
            -76 callsubr
            return
          </CharString>
          <CharString index="173">
            79 308 vlineto
            return
          </CharString>
          <CharString index="174">
            hhcurveto
            -71 -35 37 97 hvcurveto
            return
          </CharString>
          <CharString index="175">
            -262 hlineto
            80 callgsubr
            return
          </CharString>
          <CharString index="176">
            1 1 -5 vhcurveto
            -67 vlineto
            -1 return
          </CharString>
          <CharString index="177">
            194 67 rmoveto
            return
          </CharString>
          <CharString index="178">
            -67 102 -122 hlineto
            -78 30 -50 49 -23 vhcurveto
            -54 -26 -37 -50 -67 vvcurveto
            -111 105 -64 118 127 102 67 107 67 -38 50 -55 27 vhcurveto
            return
          </CharString>
          <CharString index="179">
            -8 13 rcurveline
            -10 17 -7 20 20 vvcurveto
            47 29 30 45 25 22 -7 -7 16 vhcurveto
            70 vlineto
            9 -16 -23 5 -26 hhcurveto
            -65 -47 -44 -57 -10 hvcurveto
            return
          </CharString>
          <CharString index="180">
            -67 208 vlineto
            16 -19 14 -31 -39 vvcurveto
            -56 -53 -45 57 callgsubr
            19 -149 92 -81 110 -7 -194 -176 rcurveline
            113 hlineto
            return
          </CharString>
          <CharString index="181">
            -64 -56 callgsubr
            return
          </CharString>
          <CharString index="182">
            -9 hlineto
            7 4 8 3 9 2 rrcurveto
            return
          </CharString>
          <CharString index="183">
            -323 77 hmoveto
            79 507 -79 hlineto
            return
          </CharString>
          <CharString index="184">
            125 callgsubr
            116 return
          </CharString>
          <CharString index="185">
            rmoveto
            151 144 67 return
          </CharString>
          <CharString index="186">
            vhcurveto
            69 vlineto
            5 return
          </CharString>
          <CharString index="187">
            vlineto
            -25 -5 -17 -22 -28 -14 callsubr
            196 -281 92 callgsubr
          </CharString>
          <CharString index="188">
            -77 callsubr
            176 167 120 67 hlineto
            endchar
          </CharString>
          <CharString index="189">
            106 -72 63 -95 18 vhcurveto
            129 vlineto
            endchar
          </CharString>
          <CharString index="190">
            -39 -69 -50 73 -98 hhcurveto
            -57 -53 -34 -59 -43 hvcurveto
            51 -45 rlineto
            49 34 37 19 43 60 65 -73 86 hhcurveto
            64 42 35 53 34 hvcurveto
            return
          </CharString>
          <CharString index="191">
            rmoveto
            78 callgsubr
            -83 -59 41 80 -19 vhcurveto
            145 35 96 61 115 vvcurveto
            152 callsubr
            -89 -55 -61 -66 return
          </CharString>
          <CharString index="192">
            vvcurveto
            -61 42 -49 81 29 28 6 14 22 vhcurveto
            60 vlineto
            -12 -17 -27 -10 -25 hhcurveto
            -39 -25 20 39 52 51 43 61 30 hvcurveto
            endchar
          </CharString>
          <CharString index="193">
            102 hlineto
            243 255 rlineto
            -255 79 return
          </CharString>
          <CharString index="194">
            hlineto
            -167 -80 -97 -128 -126 76 -99 128 -4 hvcurveto
            9 69 hlineto
            -86 5 -48 62 92 vvcurveto
            66 callgsubr
            vhcurveto
            return
          </CharString>
          <CharString index="195">
            hvcurveto
            -37 78 35 111 callgsubr
            -101 -114 26 callsubr
            -117 return
          </CharString>
          <CharString index="196">
            42 -58 276 172 rlineto
            -223 79 -89 callsubr
          </CharString>
          <CharString index="197">
            -63 -51 -45 -57 -68 -46 return
          </CharString>
          <CharString index="198">
            -56 callgsubr
            7 201 rmoveto
            254 -204 hlineto
            -18 1 -16 return
          </CharString>
          <CharString index="199">
            vvcurveto
            37 20 32 47 return
          </CharString>
          <CharString index="200">
            40 rmoveto
            -34 -9 -28 -15 -21 vhcurveto
            -144 126 6 1 6 1 7 1 rlinecurve
            11 hlineto
            57 55 20 33 26 hvcurveto
            -55 return
          </CharString>
          <CharString index="201">
            154 callsubr
            78 -2 54 -45 31 -60 -293 -181 rcurveline
            42 -58 return
          </CharString>
          <CharString index="202">
            155 callsubr
            71 -95 callsubr
            186 hlineto
            return
          </CharString>
          <CharString index="203">
            rmoveto
            -445 -71 182 -603 81 603 182 hlineto
            endchar
          </CharString>
          <CharString index="204">
            34 12 -21 -44 hvcurveto
            -126 vlineto
            return
          </CharString>
          <CharString index="205">
            -262 hlineto
            150 callsubr
            -69 -55 -88 callgsubr
            -16 -25 3 return
          </CharString>
          <CharString index="206">
            -67 95 -182 hlineto
            118 callgsubr
            return
          </CharString>
          <CharString index="207">
            -21 -28 vvcurveto
            -26 13 -33 14 -30 vhcurveto
            25 -56 rlineto
            69 137 return
          </CharString>
          <CharString index="208">
            161 119 106 146 return
          </CharString>
          <CharString index="209">
            151 callgsubr
            20 hhcurveto
            97 callsubr
            return
          </CharString>
          <CharString index="210">
            -57 callsubr
            65 51 45 65 45 return
          </CharString>
          <CharString index="211">
            366 507 rmoveto
            -170 46 hlineto
            66 33 24 48 38 33 -9 -13 28 vhcurveto
            -6 -20 -4 -22 -25 vvcurveto
            return
          </CharString>
          <CharString index="212">
            rmoveto
            149 callgsubr
            -310 hlineto
            return
          </CharString>
          <CharString index="213">
            418 rmoveto
            157 return
          </CharString>
          <CharString index="214">
            -67 140 142 callgsubr
            69 135 return
          </CharString>
          <CharString index="215">
            -118 vlineto
            55 callsubr
            -105 -1 -84 -48 -37 -76 rrcurveto
            328 242 rmoveto
            111 67 return
          </CharString>
          <CharString index="216">
            -133 77 121 callgsubr
          </CharString>
          <CharString index="217">
            -71 -55 16 63 39 19 30 37 20 hvcurveto
            return
          </CharString>
          <CharString index="218">
            117 callgsubr
            -13 -13 -1 -3 -11 vhcurveto
            return
          </CharString>
          <CharString index="219">
            vvcurveto
            37 26 8 30 vhcurveto
            return
          </CharString>
          <CharString index="220">
            hvcurveto
            175 callsubr
            return
          </CharString>
          <CharString index="221">
            hlineto
            3 -24 11 -27 12 -27 24 -56 rcurveline
            70 137 return
          </CharString>
          <CharString index="222">
            hlineto
            -39 -20 -23 -36 -45 vvcurveto
            -34 10 -26 18 -19 vhcurveto
            return
          </CharString>
          <CharString index="223">
            -204 hlineto
            -141 return
          </CharString>
          <CharString index="224">
            -61 -33 -35 -88 vhcurveto
            -67 -65 hlineto
            211 -279 rlineto
            95 hlineto
            -213 279 rlineto
            10 hlineto
            return
          </CharString>
          <CharString index="225">
            rmoveto
            -18 -27 -34 -10 -40 hhcurveto
            -81 164 callsubr
            return
          </CharString>
          <CharString index="226">
            -57 -65 -59 44 54 -22 hvcurveto
            61 callsubr
            return
          </CharString>
          <CharString index="227">
            65 callsubr
            82 return
          </CharString>
          <CharString index="228">
            rmoveto
            257 341 rlineto
            -100 hlineto
            -257 -341 266 -333 rlineto
            105 hlineto
            endchar
          </CharString>
          <CharString index="229">
            5 -16 -25 124 callsubr
            return
          </CharString>
          <CharString index="230">
            30 24 -24 -30 -29 -24 -25 -30 -30 -23 25 29 return
          </CharString>
          <CharString index="231">
            3 -22 hhcurveto
            -117 132 callsubr
            return
          </CharString>
          <CharString index="232">
            rmoveto
            56 -282 -56 vlineto
            return
          </CharString>
          <CharString index="233">
            382 rmoveto
            -91 -61 return
          </CharString>
          <CharString index="234">
            -156 rlineto
            69 hlineto
            return
          </CharString>
          <CharString index="235">
            -269 hlineto
            -36 -12 -35 -22 -28 vhcurveto
            -209 205 rlineto
            11 21 27 6 30 hhcurveto
            return
          </CharString>
          <CharString index="236">
            475 rmoveto
            151 93 rlineto
            -568 78 654 -74 vlineto
            -155 -94 rlineto
            endchar
          </CharString>
          <CharString index="237">
            rmoveto
            601 -81 -674 368 73 vlineto
            endchar
          </CharString>
          <CharString index="238">
            189 callsubr
            hlineto
            endchar
          </CharString>
          <CharString index="239">
            -81 -82 -109 return
          </CharString>
          <CharString index="240">
            rmoveto
            -87 hlineto
            -150 -162 150 -162 rlineto
            87 hlineto
            -146 162 rlineto
            return
          </CharString>
          <CharString index="241">
            179 callgsubr
            103 60 53 89 hvcurveto
            20 hlineto
            return
          </CharString>
          <CharString index="242">
            vlineto
            -101 callsubr
            return
          </CharString>
          <CharString index="243">
            333 rmoveto
            -78 callsubr
            return
          </CharString>
          <CharString index="244">
            -125 98 -81 112 81 64 36 46 34 return
          </CharString>
          <CharString index="245">
            rmoveto
            -282 -56 282 hlineto
            return
          </CharString>
          <CharString index="246">
            -228 rmoveto
            228 return
          </CharString>
          <CharString index="247">
            rmoveto
            -249 46 hlineto
            66 31 24 46 53 40 -14 -22 43 vhcurveto
            73 vlineto
            20 return
          </CharString>
          <CharString index="248">
            -26 callgsubr
            hvcurveto
            29 callsubr
            return
          </CharString>
          <CharString index="249">
            hhcurveto
            73 57 26 43 32 180 callsubr
          </CharString>
          <CharString index="250">
            -124 98 -67 112 return
          </CharString>
          <CharString index="251">
            hlineto
            -78 -69 -89 -119 return
          </CharString>
          <CharString index="252">
            -92 callsubr
            75 vlineto
            return
          </CharString>
          <CharString index="253">
            1 1 7 vhcurveto
            144 callgsubr
            -6 hhcurveto
            -98 -46 65 95 103 return
          </CharString>
          <CharString index="254">
            -375 12 471 rmoveto
            62 hlineto
            120 224 rlineto
            -98 hlineto
            endchar
          </CharString>
          <CharString index="255">
            -123 -104 hlineto
            -167 -80 -95 -128 return
          </CharString>
          <CharString index="256">
            -443 79 443 return
          </CharString>
          <CharString index="257">
            -80 -54 -78 -98 return
          </CharString>
          <CharString index="258">
            vlineto
            -25 -6 -17 -21 -28 vvcurveto
            -26 14 -33 102 callgsubr
            -56 rlineto
            return
          </CharString>
          <CharString index="259">
            77 -50 64 -93 return
          </CharString>
          <CharString index="260">
            -48 35 -73 hhcurveto
            return
          </CharString>
          <CharString index="261">
            hhcurveto
            -62 -56 -16 -19 -32 hvcurveto
            -73 vlineto
            19 35 55 21 59 hhcurveto
            return
          </CharString>
          <CharString index="262">
            159 callsubr
            -91 -80 -60 54 72 -16 vhcurveto
            78 24 return
          </CharString>
          <CharString index="263">
            42 callsubr
            hlineto
            endchar
          </CharString>
          <CharString index="264">
            -101 -104 vlineto
            -145 -79 -87 -115 return
          </CharString>
          <CharString index="265">
            278 rmoveto
            -80 -51 -68 -91 return
          </CharString>
          <CharString index="266">
            334 -33 callgsubr
            return
          </CharString>
          <CharString index="267">
            -48 -40 -18 -29 -28 hvcurveto
            return
          </CharString>
          <CharString index="268">
            58 40 63 160 return
          </CharString>
          <CharString index="269">
            -67 -6 -28 -69 vhcurveto
            -66 -65 hlineto
            51 -155 110 -103 return
          </CharString>
          <CharString index="270">
            -124 -382 -67 hlineto
            107 68 -45 -91 -76 -53 -43 -76 return
          </CharString>
          <CharString index="271">
            -59 58 83 37 10 32 19 24 hvcurveto
            478 263 rmoveto
            return
          </CharString>
          <CharString index="272">
            46 vlineto
            66 35 24 38 16 15 -3 -5 15 vhcurveto
            endchar
          </CharString>
          <CharString index="273">
            -11 callsubr
            -43 -32 -37 -64 -23 vhcurveto
            37 return
          </CharString>
          <CharString index="274">
            18 29 28 vhcurveto
            -145 66 callsubr
            63 52 45 return
          </CharString>
          <CharString index="275">
            -30 -44 -56 -19 -80 -64 -91 25 30 -49 hvcurveto
            -77 vlineto
            return
          </CharString>
          <CharString index="276">
            -7 17 26 -6 30 hhcurveto
            82 44 48 84 hvcurveto
            234 return
          </CharString>
          <CharString index="277">
            vvcurveto
            -106 99 -62 132 101 callsubr
            return
          </CharString>
          <CharString index="278">
            424 78 callsubr
            return
          </CharString>
          <CharString index="279">
            -85 -47 32 54 57 57 35 75 return
          </CharString>
          <CharString index="280">
            -92 79 -23 102 -6 return
          </CharString>
          <CharString index="281">
            575 rmoveto
            67 return
          </CharString>
          <CharString index="282">
            78 24 70 -95 callsubr
            return
          </CharString>
          <CharString index="283">
            13 -43 hhcurveto
            -91 -68 -66 -83 -80 62 -52 75 18 return
          </CharString>
          <CharString index="284">
            -92 -126 -207 vhcurveto
            81 hmoveto
            174 72 84 return
          </CharString>
          <CharString index="285">
            61 17 43 44 75 vvcurveto
            35 -14 35 -21 23 vhcurveto
            return
          </CharString>
          <CharString index="286">
            -40 hhcurveto
            -81 -59 58 83 37 10 32 19 24 hvcurveto
            return
          </CharString>
          <CharString index="287">
            hvcurveto
            -194 48 callgsubr
          </CharString>
          <CharString index="288">
            rmoveto
            69 hlineto
            129 224 rlineto
            -105 hlineto
            endchar
          </CharString>
          <CharString index="289">
            rlineto
            110 hlineto
            return
          </CharString>
          <CharString index="290">
            190 callgsubr
            24 23 -6 -8 15 vhcurveto
            return
          </CharString>
          <CharString index="291">
            40 49 50 40 -40 -50 -49 -40 -40 -50 -49 return
          </CharString>
          <CharString index="292">
            -575 92 callgsubr
          </CharString>
          <CharString index="293">
            hlineto
            112 callgsubr
            return
          </CharString>
          <CharString index="294">
            159 callsubr
            -92 return
          </CharString>
          <CharString index="295">
            -141 80 -60 117 vhcurveto
            return
          </CharString>
          <CharString index="296">
            79 -73 callgsubr
            return
          </CharString>
          <CharString index="297">
            32 8 23 hhcurveto
            return
          </CharString>
          <CharString index="298">
            hvcurveto
            -70 vlineto
            1 return
          </CharString>
          <CharString index="299">
            -2 callsubr
            -91 hlineto
            return
          </CharString>
          <CharString index="300">
            hhcurveto
            -104 -73 52 97 104 84 53 114 return
          </CharString>
          <CharString index="301">
            25 26 -18 19 -26 -25 -19 -19 -26 vhcurveto
            return
          </CharString>
          <CharString index="302">
            -34 -10 -40 hhcurveto
            return
          </CharString>
        <CharString name=".notdef">
          195 176 hmoveto
          399 701 -399 hlineto
          59 -55 rmoveto
          281 -591 -281 hlineto
          endchar
        </CharString>
        <CharString name="A">
          92 205 246 -90 callgsubr
        </CharString>
        <CharString name="AE">
          323 252 246 rmoveto
          22 38 89 155 60 108 33 63 rlinecurve
          -364 vlineto
          80 -175 rmoveto
          230 256 71 -256 231 289 71 -419 vlineto
          -383 -674 rlineto
          87 hlineto
          102 177 rlineto
          244 -177 375 71 hlineto
          endchar
        </CharString>
        <CharString name="Aacute">
          92 492 883 30 callgsubr
          -163 -481 -90 callgsubr
        </CharString>
        <CharString name="Abreve">
          92 425 882 19 callsubr
          -285 -636 -90 callgsubr
        </CharString>
        <CharString name="Acircumflex">
          92 327 832 10 callsubr
          -37 -481 -90 callgsubr
        </CharString>
        <CharString name="Adieresis">
          92 428 754 -58 callsubr
          -22 -508 -90 callgsubr
        </CharString>
        <CharString name="Agrave">
          92 354 727 rmoveto
          -98 156 rlineto
          54 callgsubr
          -80 -481 -90 callgsubr
        </CharString>
        <CharString name="Amacron">
          92 468 833 138 callsubr
          -263 -531 -90 callgsubr
        </CharString>
        <CharString name="Aogonek">
          90 204 246 rmoveto
          13 38 rlineto
          96 283 12 42 0 vvcurveto
          0 11 -42 94 -282 vhcurveto
          13 -39 rlineto
          -62 428 rmoveto
          -112 hlineto
          -235 -674 rlineto
          87 hlineto
          60 177 rlineto
          285 hlineto
          56 -167 rlineto
          -50 -32 -41 -50 -60 85 callsubr
        </CharString>
        <CharString name="Aring">
          92 327 878 6 callsubr
          -122 -471 -90 callgsubr
        </CharString>
        <CharString name="Atilde">
          92 446 860 -66 callgsubr
          -290 -580 -90 callgsubr
        </CharString>
        <CharString name="B">
          15 158 69 rmoveto
          237 138 vlineto
          96 52 -45 -76 -76 -49 -40 -84 hvcurveto
          -153 536 rmoveto
          122 hlineto
          101 44 -50 -58 -66 -44 -56 -115 hvcurveto
          -108 hlineto
          -81 299 rmoveto
          -674 246 vlineto
          135 70 76 104 102 -68 50 -67 11 hvcurveto
          67 15 49 60 79 vvcurveto
          109 -91 68 -138 vhcurveto
          endchar
        </CharString>
        <CharString name="C">
          46 558 647 -50 callgsubr
          endchar
        </CharString>
        <CharString name="CR">
          endchar
        </CharString>
        <CharString name="Cacute">
          46 558 647 -50 callgsubr
          -228 163 130 callgsubr
        </CharString>
        <CharString name="Ccaron">
          46 558 647 -50 callgsubr
          -142 163 -75 callgsubr
          endchar
        </CharString>
        <CharString name="Ccedilla">
          46 333 -51 rmoveto
          15 -25 8 -20 -27 vvcurveto
          -42 -29 -25 -55 -4 vhcurveto
          -58 vlineto
          102 3 48 59 68 vvcurveto
          23 -6 31 -12 17 vhcurveto
          154 698 -50 callgsubr
          endchar
        </CharString>
        <CharString name="D">
          105 159 71 41 callgsubr
        </CharString>
        <CharString name="Dcaron">
          105 344 726 -75 callgsubr
          -109 -655 41 callgsubr
        </CharString>
        <CharString name="Dcroat">
          14 callgsubr
        </CharString>
        <CharString name="E">
          -55 158 71 -40 callgsubr
        </CharString>
        <CharString name="Eacute">
          -55 437 883 30 callgsubr
          -155 -656 -40 callgsubr
        </CharString>
        <CharString name="Ecaron">
          -55 309 726 -75 callgsubr
          -75 -655 -40 callgsubr
        </CharString>
        <CharString name="Ecircumflex">
          -55 273 832 10 callsubr
          -30 -656 -40 callgsubr
        </CharString>
        <CharString name="Edieresis">
          -55 369 753 -58 callsubr
          -10 -682 -40 callgsubr
        </CharString>
        <CharString name="Edotaccent">
          -55 275 755 rmoveto
          -19 callgsubr
          -117 -684 -40 callgsubr
        </CharString>
        <CharString name="Egrave">
          -55 320 726 rmoveto
          -98 156 rlineto
          54 callgsubr
          -93 -655 -40 callgsubr
        </CharString>
        <CharString name="Emacron">
          -55 404 834 138 callsubr
          -246 -707 -40 callgsubr
        </CharString>
        <CharString name="Eogonek">
          -55 453 hmoveto
          71 -295 230 256 71 -256 231 290 71 -371 -674 184 vlineto
          -43 -32 -35 -46 -54 -12 callsubr
          61 30 hvcurveto
          endchar
        </CharString>
        <CharString name="Eth">
          14 callgsubr
        </CharString>
        <CharString name="Euro">
          34 550 637 rmoveto
          17 -32 -42 6 -46 hhcurveto
          -132 -106 -82 -142 -37 hvcurveto
          -103 -57 93 hlineto
          -2 -18 -1 -18 -19 vvcurveto
          -16 1 -15 1 -15 vhcurveto
          -92 -57 102 hlineto
          -142 34 105 -87 132 hhcurveto
          52 39 6 18 34 hvcurveto
          78 vlineto
          -19 -31 -41 -8 -44 hhcurveto
          -89 -76 54 100 -30 hvcurveto
          201 57 -212 hlineto
          -2 15 -1 15 16 vvcurveto
          19 1 19 2 17 vhcurveto
          212 57 -199 hlineto
          96 31 73 52 94 hhcurveto
          43 39 -7 -18 29 hvcurveto
          endchar
        </CharString>
        <CharString name="F">
          -67 447 603 rmoveto
          71 -370 -674 81 293 254 71 -254 239 vlineto
          endchar
        </CharString>
        <CharString name="G">
          114 603 378 -39 callsubr
        </CharString>
        <CharString name="Gbreve">
          114 468 883 19 callsubr
          70 -505 -39 callsubr
        </CharString>
        <CharString name="H">
          87 485 674 rmoveto
          -296 -327 296 -81 -674 81 305 327 -305 81 674 vlineto
          endchar
        </CharString>
        <CharString name="I">
          76 callgsubr
          endchar
        </CharString>
        <CharString name="Iacute">
          76 callgsubr
          10 53 130 callgsubr
        </CharString>
        <CharString name="Icircumflex">
          -309 86 883 -9 callsubr
          -79 -883 rmoveto
          81 674 -81 hlineto
          endchar
        </CharString>
        <CharString name="Idieresis">
          76 callgsubr
          -110 132 -58 callgsubr
          endchar
        </CharString>
        <CharString name="Idotaccent">
          76 callgsubr
          -10 134 -37 callgsubr
          endchar
        </CharString>
        <CharString name="Igrave">
          76 callgsubr
          -28 209 rmoveto
          54 callgsubr
          69 hlineto
          endchar
        </CharString>
        <CharString name="Imacron">
          76 callgsubr
          182 103 125 callsubr
          endchar
        </CharString>
        <CharString name="Iogonek">
          -309 164 1 rmoveto
          673 -81 -660 vlineto
          -53 -32 -46 -51 -63 -12 callsubr
          61 30 hvcurveto
          endchar
        </CharString>
        <CharString name="J">
          -198 30 22 rmoveto
          -14 25 40 -8 30 hhcurveto
          87 70 42 131 hvcurveto
          501 -81 -508 vlineto
          -63 -30 -29 -57 -30 -31 11 15 -23 vhcurveto
          endchar
        </CharString>
        <CharString name="K">
          17 77 hmoveto
          81 674 -81 hlineto
          197 -341 121 callsubr
        </CharString>
        <CharString name="L">
          -79 158 73 130 callsubr
        </CharString>
        <CharString name="Lacute">
          -79 448 883 30 callgsubr
          -166 -53 rmoveto
          -81 -674 368 73 -287 hlineto
          endchar
        </CharString>
        <CharString name="Lcaron">
          -79 424 701 rmoveto
          -91 hlineto
          -85 -192 rlineto
          65 hlineto
          -155 -436 130 callsubr
        </CharString>
        <CharString name="Lslash">
          -56 178 73 rmoveto
          228 vlineto
          150 103 rlineto
          78 vlineto
          -150 -104 rlineto
          296 -81 -352 vlineto
          -68 -47 rlineto
          -77 vlineto
          68 47 rlineto
          -245 368 73 vlineto
          endchar
        </CharString>
        <CharString name="M">
          301 70 hmoveto
          81 hlineto
          19 266 rlineto
          11 147 8 134 12 vvcurveto
          0 45 -131 57 -162 vhcurveto
          89 -251 rlineto
          77 hlineto
          94 251 rlineto
          56 151 53 148 0 vvcurveto
          0 10 -147 14 -152 vhcurveto
          23 -266 rlineto
          81 hlineto
          -59 674 rlineto
          -103 hlineto
          -93 -246 rlineto
          -56 -150 -58 -164 0 vvcurveto
          0 -56 169 -52 145 vhcurveto
          -89 246 rlineto
          -103 hlineto
          endchar
        </CharString>
        <CharString name="N">
          117 77 hmoveto
          34 callsubr
        </CharString>
        <CharString name="NULL">
          endchar
        </CharString>
        <CharString name="Nacute">
          117 326 726 -18 callsubr
          -348 -882 32 callgsubr
        </CharString>
        <CharString name="Ncaron">
          117 77 hmoveto
          -63 callsubr
          314 53 -75 callgsubr
          endchar
        </CharString>
        <CharString name="Ntilde">
          117 77 hmoveto
          -63 callsubr
          388 186 -66 callgsubr
          endchar
        </CharString>
        <CharString name="O">
          14 callsubr
          endchar
        </CharString>
        <CharString name="OE">
          427 346 69 rmoveto
          -131 -82 103 168 168 76 103 136 139 75 -103 -168 -168 -75 -103 -138 hvcurveto
          292 2 rmoveto
          230 258 71 -258 231 292 71 -371 -82 vlineto
          61 -50 -72 34 -92 hhcurveto
          -185 -112 -136 -211 -211 116 -137 182 90 73 35 61 50 hvcurveto
          -88 376 71 vlineto
          endchar
        </CharString>
        <CharString name="Oacute">
          144 324 727 -18 callsubr
          -375 -543 -87 callsubr
          endchar
        </CharString>
        <CharString name="Ocircumflex">
          144 133 340 rmoveto
          168 81 103 136 139 78 -103 -168 -168 -78 -103 -138 -131 -87 103 168 vhcurveto
          -85 hmoveto
          -211 121 -137 182 186 116 137 211 211 -112 136 -191 -185 -117 -136 -211 vhcurveto
          271 543 -9 callsubr
          endchar
        </CharString>
        <CharString name="Odieresis">
          144 202 806 -58 callgsubr
          -356 -466 -87 callsubr
          endchar
        </CharString>
        <CharString name="Ograve">
          14 callsubr
          162 543 rmoveto
          54 callgsubr
          69 hlineto
          endchar
        </CharString>
        <CharString name="Ohungarumlaut">
          144 413 727 45 callgsubr
          -305 -543 -87 callsubr
          endchar
        </CharString>
        <CharString name="Omacron">
          144 492 777 125 callsubr
          -162 -437 -87 callsubr
          endchar
        </CharString>
        <CharString name="Oslash">
          119 520 518 rmoveto
          28 -46 14 -60 -72 vvcurveto
          -169 -79 -104 -138 -51 -43 15 28 -35 vhcurveto
          -47 53 rmoveto
          -28 45 -16 60 72 vvcurveto
          169 82 103 136 52 44 -14 -27 34 vhcurveto
          174 116 rmoveto
          -88 hlineto
          -39 -52 rlineto
          34 -47 -60 18 -70 hhcurveto
          -185 -117 -136 -211 -101 28 -84 49 -61 hvcurveto
          -77 -103 rlineto
          86 hlineto
          41 55 rlineto
          -35 48 60 -19 69 hhcurveto
          185 116 137 211 102 -26 84 -48 60 hvcurveto
          endchar
        </CharString>
        <CharString name="Otilde">
          14 callsubr
          339 521 -66 callgsubr
          endchar
        </CharString>
        <CharString name="P">
          -11 158 317 rmoveto
          288 101 vlineto
          106 -1 59 -61 -86 vvcurveto
          -76 -57 -62 -100 -2 vhcurveto
          -190 357 rmoveto
          -674 81 248 104 vlineto
          150 94 91 118 126 -93 91 -159 hvcurveto
          endchar
        </CharString>
        <CharString name="Q">
          153 133 340 rmoveto
          168 81 103 136 139 78 -103 -168 -168 -78 -103 -138 -131 -87 103 168 vhcurveto
          550 -445 rmoveto
          -200 124 rlineto
          107 50 63 116 155 vvcurveto
          211 -112 136 -191 -185 -117 -136 -211 -211 121 -137 182 15 15 1 2 14 vhcurveto
          200 -137 rlineto
          endchar
        </CharString>
        <CharString name="R">
          -8 158 604 -20 callgsubr
        </CharString>
        <CharString name="Racute">
          -8 429 883 30 callgsubr
          -147 -123 -20 callgsubr
        </CharString>
        <CharString name="Rcaron">
          -8 316 726 -75 callgsubr
          -82 -122 -20 callgsubr
        </CharString>
        <CharString name="S">
          -32 430 649 -80 callgsubr
          endchar
        </CharString>
        <CharString name="Sacute">
          -32 247 726 -18 callsubr
          84 -233 -80 callgsubr
          endchar
        </CharString>
        <CharString name="Scaron">
          -32 430 649 -80 callgsubr
          -129 162 -75 callgsubr
          endchar
        </CharString>
        <CharString name="T">
          -74 463 674 96 callsubr
        </CharString>
        <CharString name="Tcaron">
          -74 279 727 -75 callgsubr
          260 -53 96 callsubr
        </CharString>
        <CharString name="Thorn">
          -20 158 193 rmoveto
          288 91 vlineto
          118 49 -63 -87 -76 -49 -62 -110 hvcurveto
          -99 357 rmoveto
          124 -81 -674 81 124 96 vlineto
          158 86 91 118 126 -85 91 -167 hvcurveto
          endchar
        </CharString>
        <CharString name="U">
          89 488 254 11 callgsubr
        </CharString>
        <CharString name="Uacute">
          89 300 727 -18 callsubr
          89 -629 11 callgsubr
        </CharString>
        <CharString name="Ucircumflex">
          89 488 254 -73 callsubr
          -202 209 -9 callsubr
          endchar
        </CharString>
        <CharString name="Udieresis">
          89 171 806 -58 callgsubr
          115 -552 11 callgsubr
        </CharString>
        <CharString name="Ugrave">
          89 488 254 -73 callsubr
          -226 209 rmoveto
          54 callgsubr
          69 hlineto
          endchar
        </CharString>
        <CharString name="Uhungarumlaut">
          89 488 254 -73 callsubr
          -121 53 45 callgsubr
          endchar
        </CharString>
        <CharString name="Umacron">
          89 488 254 -73 callsubr
          -21 103 125 callsubr
          endchar
        </CharString>
        <CharString name="Uogonek">
          89 488 674 rmoveto
          -420 vlineto
          -137 -69 -49 -98 -93 -71 50 131 vhcurveto
          425 -81 -426 vlineto
          -161 85 -86 138 -8 vhcurveto
          -34 -31 -26 -40 -47 -12 callsubr
          60 30 hvcurveto
          95 31 55 83 135 vvcurveto
          418 vlineto
          endchar
        </CharString>
        <CharString name="Uring">
          89 219 822 63 callgsubr
          216 -569 11 callgsubr
        </CharString>
        <CharString name="V">
          81 601 674 rmoveto
          -87 hlineto
          -90 -267 rlineto
          -69 -208 -39 -126 0 vvcurveto
          0 -37 126 -68 208 vhcurveto
          -88 267 rlineto
          -87 hlineto
          228 -674 rlineto
          102 hlineto
          endchar
        </CharString>
        <CharString name="W">
          382 432 664 rmoveto
          -70 -240 rlineto
          -39 -134 -56 -205 0 vvcurveto
          0 -57 234 -26 105 vhcurveto
          -63 250 rlineto
          -85 hlineto
          176 -674 rlineto
          103 hlineto
          63 213 rlineto
          65 219 31 118 0 vvcurveto
          0 33 -117 68 -220 vhcurveto
          65 -213 rlineto
          104 hlineto
          158 674 rlineto
          -82 hlineto
          -57 -251 rlineto
          -28 -120 -46 -221 0 vvcurveto
          0 -69 230 -33 112 vhcurveto
          -74 240 rlineto
          endchar
        </CharString>
        <CharString name="X">
          57 256 340 rmoveto
          -217 -340 rlineto
          96 hlineto
          8 15 151 241 9 15 176 -271 rcurveline
          95 hlineto
          -226 340 204 334 rlineto
          -96 hlineto
          -8 -14 -140 -233 -7 -14 -155 261 rcurveline
          -95 hlineto
          endchar
        </CharString>
        <CharString name="Y">
          37 567 674 5 callsubr
        </CharString>
        <CharString name="Yacute">
          37 472 882 30 callgsubr
          219 -52 5 callsubr
        </CharString>
        <CharString name="Ydieresis">
          37 398 753 -58 callsubr
          370 -79 5 callsubr
        </CharString>
        <CharString name="Z">
          13 502 674 15 callsubr
          endchar
        </CharString>
        <CharString name="Zacute">
          13 263 727 -18 callsubr
          140 -209 15 callsubr
          endchar
        </CharString>
        <CharString name="Zcaron">
          13 502 674 15 callsubr
          -181 119 -75 callgsubr
          endchar
        </CharString>
        <CharString name="Zdotaccent">
          13 502 674 15 callsubr
          -262 200 -37 callgsubr
          endchar
        </CharString>
        <CharString name="a">
          -64 346 234 -98 callgsubr
        </CharString>
        <CharString name="aacute">
          -64 416 716 30 callgsubr
          54 -326 -98 callgsubr
        </CharString>
        <CharString name="abreve">
          -64 349 715 19 callsubr
          -68 -481 -98 callgsubr
        </CharString>
        <CharString name="acircumflex">
          -64 254 664 10 callsubr
          177 -325 -98 callgsubr
        </CharString>
        <CharString name="acute">
          -135 115 642 130 callgsubr
        </CharString>
        <CharString name="adieresis">
          -64 353 584 -58 callsubr
          194 -350 -98 callgsubr
        </CharString>
        <CharString name="ae">
          263 351 177 rmoveto
          -70 -53 -43 -65 -66 -33 33 48 58 49 29 93 vhcurveto
          75 hlineto
          350 54 rmoveto
          -272 hlineto
          110 12 64 48 70 hhcurveto
          73 52 -47 -91 1 hvcurveto
          73 -86 rmoveto
          3 16 2 26 13 vvcurveto
          153 -72 85 -131 -74 -63 -31 -57 -38 vhcurveto
          57 -23 -54 33 -88 hhcurveto
          -56 -57 -15 -21 -34 hvcurveto
          -77 vlineto
          25 38 57 17 49 hhcurveto
          89 29 -45 -76 hvcurveto
          -25 -90 vlineto
          -128 -81 -57 -99 -91 66 -56 97 94 63 45 59 24 hvcurveto
          -64 40 80 -40 87 hhcurveto
          45 58 11 20 37 hvcurveto
          74 vlineto
          -24 -35 -54 -11 -45 hhcurveto
          -93 -73 52 103 -13 hvcurveto
          endchar
        </CharString>
        <CharString name="agrave">
          -64 291 560 rmoveto
          -98 156 rlineto
          54 callgsubr
          124 -326 -98 callgsubr
        </CharString>
        <CharString name="amacron">
          -64 388 666 138 callsubr
          -42 -376 -98 callgsubr
        </CharString>
        <CharString name="ampersand">
          147 315 65 rmoveto
          -97 -71 43 69 56 45 35 81 31 hvcurveto
          24 -23 86 -79 88 -82 rrcurveto
          -33 -41 -54 -17 -61 hhcurveto
          3 553 rmoveto
          74 35 -48 -54 -56 -40 -41 -88 -41 hvcurveto
          -64 65 -21 36 43 vvcurveto
          62 46 34 58 vhcurveto
          383 -618 rmoveto
          -127 118 28 43 16 51 4 56 rlinecurve
          -76 hlineto
          -3 -38 -10 -32 -15 -28 -169 158 rcurveline
          119 55 40 61 73 vvcurveto
          97 -74 76 -115 -113 -74 -67 -100 -62 33 -49 58 -63 vhcurveto
          -102 -39 -56 -52 -82 vvcurveto
          -107 100 -77 152 89 70 27 44 50 vhcurveto
          68 -63 rlineto
          endchar
        </CharString>
        <CharString name="aogonek">
          -65 346 232 rmoveto
          -70 vlineto
          -52 -49 -46 -69 -66 -33 33 48 58 49 29 93 vhcurveto
          154 89 rmoveto
          124 -56 70 -135 -57 -59 -15 -21 -34 vhcurveto
          -77 vlineto
          25 38 57 17 49 hhcurveto
          89 29 -45 -76 hvcurveto
          -25 -90 vlineto
          -128 -81 -57 -99 -89 64 -58 94 63 50 29 39 29 hvcurveto
          -47 vlineto
          -54 -32 -49 -52 -64 85 callsubr
        </CharString>
        <CharString name="apostrophemod">
          147 callsubr
        </CharString>
        <CharString name="approxequal">
          61 509 297 rmoveto
          -36 -20 -30 -23 83 callsubr
          -57 241 rmoveto
          -35 -20 -30 -24 83 callsubr
          endchar
        </CharString>
        <CharString name="aring">
          -64 255 711 6 callsubr
          91 -316 -98 callgsubr
        </CharString>
        <CharString name="asciicircum">
          -95 416 332 rmoveto
          -138 262 rlineto
          -91 hlineto
          -142 -262 rlineto
          79 hlineto
          108 208 105 -208 rlineto
          endchar
        </CharString>
        <CharString name="asciitilde">
          43 504 326 rmoveto
          -36 -21 -30 -24 -40 -71 -50 74 -100 hhcurveto
          -59 -54 -35 -60 -43 hvcurveto
          53 -46 rlineto
          49 34 38 20 43 62 66 -74 88 hhcurveto
          65 43 36 54 35 hvcurveto
          endchar
        </CharString>
        <CharString name="asterisk">
          -148 250 488 rmoveto
          10 13 1 5 13 hvcurveto
          92 30 -20 61 -92 -29 -17 -5 -13 -8 -9 -9 rlinecurve
          5 11 3 15 18 vvcurveto
          96 -64 -96 vlineto
          -20 4 -15 5 -11 vhcurveto
          -9 8 -12 9 -18 6 -93 30 rcurveline
          -19 -62 91 -30 rlineto
          -5 14 11 -1 11 3 2 0 3 hhcurveto
          -11 -6 -10 -10 -10 -13 -57 -79 rcurveline
          52 -37 57 77 10 14 6 13 3 13 rlinecurve
          3 -12 6 -13 10 -14 57 -78 rcurveline
          51 38 -56 78 -10 15 -11 9 -11 6 rlinecurve
          endchar
        </CharString>
        <CharString name="at">
          349 429 83 rmoveto
          -57 -40 45 70 83 49 68 71 67 31 -40 -65 10 hvcurveto
          -2 -20 -1 -18 -1 -17 rrcurveto
          -69 -22 -54 -37 -51 hhcurveto
          165 -140 rmoveto
          -32 -58 -61 -11 -59 hhcurveto
          -144 -136 96 200 203 165 147 188 166 133 -99 -188 -104 -46 -70 -57 -50 -16 38 63 19 1 27 3 40 hvcurveto
          15 138 rlineto
          -66 hlineto
          -1 -21 -2 -20 -1 -18 rrcurveto
          40 -24 -38 24 -56 hhcurveto
          -110 -83 -94 -119 -102 58 -82 101 64 51 34 55 33 hvcurveto
          -42 12 30 -44 75 hhcurveto
          83 94 79 164 216 -168 133 -199 -236 -195 -175 -242 -207 132 -157 222 53 70 7 27 53 hvcurveto
          endchar
        </CharString>
        <CharString name="atilde">
          -64 370 693 -66 callgsubr
          -73 -425 -98 callgsubr
        </CharString>
        <CharString name="b">
          14 304 64 rmoveto
          -72 -77 46 147 143 87 43 57 80 66 -64 -131 -110 -61 -74 -80 hvcurveto
          -149 643 rmoveto
          -79 -707 79 75 hlineto
          -49 32 50 -34 74 hhcurveto
          141 75 122 135 159 -91 107 -127 -68 -52 -32 -52 -34 hvcurveto
          endchar
        </CharString>
        <CharString name="backslash">
          -154 48 707 rmoveto
          -81 hlineto
          365 -810 rlineto
          80 hlineto
          endchar
        </CharString>
        <CharString name="bar">
          -328 78 -194 rmoveto
          72 889 -72 hlineto
          endchar
        </CharString>
        <CharString name="braceleft">
          -222 321 705 rmoveto
          5 -16 -16 3 -15 hhcurveto
          -70 -60 -57 -93 hvcurveto
          -52 21 -45 -46 vvcurveto
          -58 -29 -50 -59 -9 vhcurveto
          -2 -11 -11 0 -7 hhcurveto
          -77 vlineto
          7 13 0 -2 9 hvcurveto
          63 -13 25 -48 -58 -46 -21 -45 -52 vvcurveto
          -93 60 -56 70 15 16 2 6 16 vhcurveto
          77 vlineto
          -6 -11 -12 -3 -10 hhcurveto
          -43 -20 34 40 hvcurveto
          54 21 45 59 vvcurveto
          71 -41 59 -81 13 vhcurveto
          81 13 41 58 72 58 -21 45 54 vvcurveto
          40 20 34 43 10 12 -3 -6 11 vhcurveto
          endchar
        </CharString>
        <CharString name="braceright">
          -222 13 627 rmoveto
          6 11 13 3 10 hhcurveto
          42 20 -34 -40 hvcurveto
          -54 -20 -45 -58 vvcurveto
          -72 41 -58 80 -13 vhcurveto
          -80 -13 -41 -59 -71 -59 20 -45 -54 vvcurveto
          -40 -20 -34 -42 -10 -13 3 6 -11 vhcurveto
          -77 vlineto
          -6 16 16 -2 15 hhcurveto
          70 60 56 93 hvcurveto
          52 -21 45 46 vvcurveto
          58 26 48 62 13 vhcurveto
          2 9 13 0 7 hhcurveto
          77 vlineto
          -7 -11 0 2 -11 hvcurveto
          -59 9 -29 50 58 46 21 45 52 vvcurveto
          93 -60 57 -70 -15 -16 -3 -5 -16 vhcurveto
          endchar
        </CharString>
        <CharString name="bracketleft">
          -246 307 637 rmoveto
          70 -230 -890 230 72 -152 748 vlineto
          endchar
        </CharString>
        <CharString name="bracketright">
          -246 233 707 rmoveto
          -230 -70 152 -748 -152 -72 230 hlineto
          endchar
        </CharString>
        <CharString name="breve">
          -135 46 798 rmoveto
          -93 51 -66 114 113 51 66 93 vhcurveto
          -65 hlineto
          -56 -27 -46 -72 -73 -27 46 56 vhcurveto
          endchar
        </CharString>
        <CharString name="brokenbar">
          -328 150 367 rmoveto
          331 -72 -331 vlineto
          72 -545 rmoveto
          331 -72 -331 vlineto
          endchar
        </CharString>
        <CharString name="bullet">
          -107 92 356 rmoveto
          -75 56 -58 77 74 58 58 75 75 -58 58 -75 -76 -56 -58 -75 vhcurveto
          endchar
        </CharString>
        <CharString name="c">
          -85 125 251 rmoveto
          101 callgsubr
          75 vlineto
          -27 callsubr
          endchar
        </CharString>
        <CharString name="cacute">
          -85 259 559 -18 callsubr
          -233 -464 rmoveto
          101 callgsubr
          75 vlineto
          -27 callsubr
          endchar
        </CharString>
        <CharString name="caron">
          -135 248 642 -75 callgsubr
          endchar
        </CharString>
        <CharString name="ccaron">
          -85 422 488 rmoveto
          -27 callsubr
          101 callgsubr
          -109 147 -75 callgsubr
          endchar
        </CharString>
        <CharString name="ccedilla">
          -85 125 251 rmoveto
          101 callgsubr
          75 vlineto
          -27 callsubr
          214 -373 -5 callsubr
        </CharString>
        <CharString name="cedilla">
          -135 285 -122 -5 callsubr
        </CharString>
        <CharString name="cent">
          -104 412 490 rmoveto
          -28 13 -26 6 -24 3 rrcurveto
          103 -69 -105 vlineto
          -142 -20 -77 -115 -123 vvcurveto
          -128 78 -111 141 -18 vhcurveto
          -106 69 104 vlineto
          26 3 27 6 25 12 rrcurveto
          74 vlineto
          -16 -28 -36 -8 -30 hhcurveto
          -126 -64 85 102 -1 hvcurveto
          105 1 71 85 119 hhcurveto
          30 34 -9 -16 30 hvcurveto
          endchar
        </CharString>
        <CharString name="circumflex">
          -135 172 798 -9 callsubr
          endchar
        </CharString>
        <CharString name="colon">
          -321 59 380 rmoveto
          -34 25 -24 33 33 26 24 34 32 -26 26 -33 -33 -25 -26 -32 vhcurveto
          -323 vmoveto
          -33 25 -25 33 33 26 25 33 33 -26 26 -33 -33 -25 -26 -33 vhcurveto
          endchar
        </CharString>
        <CharString name="comma">
          -331 -8 -123 181 callsubr
        </CharString>
        <CharString name="copyright">
          220 43 336 rmoveto
          -188 156 -157 189 189 156 157 188 189 -156 157 -189 -189 -156 -157 -189 vhcurveto
          67 hmoveto
          154 125 126 154 154 125 -126 -154 -154 -125 -125 -154 -154 -125 125 154 vhcurveto
          183 -2 rmoveto
          76 51 52 73 23 32 -8 -15 23 vhcurveto
          65 vlineto
          15 -27 -34 5 -22 hhcurveto
          -121 -67 -92 -97 -1 hvcurveto
          -101 70 -87 118 28 36 8 13 20 vhcurveto
          65 vlineto
          -14 -18 -32 -11 -28 hhcurveto
          -75 -48 55 71 -1 hvcurveto
          endchar
        </CharString>
        <CharString name="currency">
          -13 55 309 rmoveto
          -48 13 -43 25 -35 vhcurveto
          -59 -58 51 -49 58 58 rlineto
          -23 34 43 -13 49 hhcurveto
          48 44 14 25 36 hvcurveto
          62 -61 50 49 -62 61 rlineto
          26 36 16 44 49 vvcurveto
          48 -15 43 -23 34 vhcurveto
          58 58 -50 49 -58 -57 rlineto
          23 -35 -43 14 -48 hhcurveto
          -49 -45 -15 -26 -36 hvcurveto
          -60 61 -51 -49 61 -61 rlineto
          -25 -35 -15 -45 -48 vvcurveto
          68 4 rmoveto
          85 62 64 87 86 62 -65 -85 -86 -62 -63 -86 -87 -62 64 86 vhcurveto
          endchar
        </CharString>
        <CharString name="d">
          11 43 callgsubr
          149 643 rmoveto
          -277 vlineto
          38 callsubr
          707 vlineto
          endchar
        </CharString>
        <CharString name="dagger">
          -33 482 503 rmoveto
          177 callgsubr
          -434 72 434 188 hlineto
          endchar
        </CharString>
        <CharString name="daggerdbl">
          -26 485 434 rmoveto
          69 177 callgsubr
          -184 -180 -69 180 -181 72 181 188 69 -188 184 vlineto
          endchar
        </CharString>
        <CharString name="danda">
          -213 160 hmoveto
          79 642 -79 hlineto
          endchar
        </CharString>
        <CharString name="dcaron">
          104 43 callgsubr
          149 366 rmoveto
          38 callsubr
          707 -79 vlineto
          221 hmoveto
          -84 -192 rlineto
          65 hlineto
          111 192 rlineto
          endchar
        </CharString>
        <CharString name="dcroat">
          11 43 callgsubr
          299 578 rmoveto
          -71 65 -79 -65 -193 -55 193 -157 hlineto
          38 callsubr
          587 71 vlineto
          endchar
        </CharString>
        <CharString name="degree">
          -201 30 530 rmoveto
          -85 61 -59 85 84 65 62 85 84 -62 59 -84 -85 -64 -62 -84 vhcurveto
          63 1 rmoveto
          48 35 39 48 48 37 -39 -48 -48 -34 -38 -48 -48 -38 38 48 vhcurveto
          endchar
        </CharString>
        <CharString name="dieresis">
          -135 58 723 -58 callgsubr
          endchar
        </CharString>
        <CharString name="divide">
          -3 223 518 rmoveto
          -28 24 -24 29 28 24 24 28 29 -24 24 -28 -29 -24 -24 -29 vhcurveto
          -166 -214 rmoveto
          440 72 -440 hlineto
          166 -214 rmoveto
          -29 24 -24 29 28 24 24 29 28 -24 24 -28 -29 -24 -24 -28 vhcurveto
          endchar
        </CharString>
        <CharString name="dollar">
          -51 417 649 rmoveto
          -30 15 -36 9 -36 4 rrcurveto
          106 -69 -104 vlineto
          -108 -8 -85 -64 -110 vvcurveto
          -107 80 -43 79 -35 vhcurveto
          81 -35 77 -27 -73 vvcurveto
          -71 -53 -38 -83 -66 -68 22 33 -44 vhcurveto
          -87 vlineto
          38 -22 50 -14 51 -5 rrcurveto
          -104 69 103 vlineto
          109 9 81 63 113 vvcurveto
          110 -84 43 -82 36 vhcurveto
          -76 33 -73 28 72 vvcurveto
          61 50 42 83 51 59 -17 -23 35 vhcurveto
          endchar
        </CharString>
        <CharString name="dotaccent">
          -135 159 724 -37 callgsubr
          endchar
        </CharString>
        <CharString name="dotlessi">
          76 callsubr
          endchar
        </CharString>
        <CharString name="dottedcircle">
          104 139 517 rmoveto
          -26 18 -19 26 26 18 19 26 25 -18 19 -26 -26 -18 -19 -25 vhcurveto
          -82 -110 rmoveto
          -25 20 -19 26 24 20 19 25 25 -20 19 -24 -26 -20 -19 -25 vhcurveto
          -13 -126 rmoveto
          -25 19 -18 25 26 18 18 194 callsubr
          52 -116 rmoveto
          -26 18 -18 26 25 19 18 26 25 -19 19 -25 -26 -18 -19 -25 vhcurveto
          101 -75 rmoveto
          -26 19 -20 26 25 19 20 26 24 -19 20 -25 -26 -19 -20 -24 vhcurveto
          127 -16 rmoveto
          -26 18 -18 26 26 19 18 26 26 -19 18 -26 -26 -18 -18 -26 vhcurveto
          121 53 rmoveto
          -26 19 -18 25 25 20 18 26 25 -20 19 -25 -25 -19 -19 -25 vhcurveto
          73 98 rmoveto
          -25 19 -19 26 24 19 19 25 26 -19 19 -24 -26 -19 -19 -26 vhcurveto
          10 134 rmoveto
          -26 18 -18 26 25 19 18 26 26 -19 18 -25 -26 -18 -18 -26 vhcurveto
          -50 118 rmoveto
          -25 19 -19 25 26 18 19 194 callsubr
          -95 68 rmoveto
          -24 19 -20 26 25 18 20 24 26 -18 19 -25 -26 -19 -19 -26 vhcurveto
          -126 15 rmoveto
          -26 18 -18 26 26 18 18 26 26 -18 18 -26 -26 -18 -18 -26 vhcurveto
          endchar
        </CharString>
        <CharString name="doubledanda">
          4 160 hmoveto
          79 642 -79 hlineto
          217 -642 rmoveto
          78 642 -78 hlineto
          endchar
        </CharString>
        <CharString name="dvA">
          103 681 -17 callgsubr
          -285 -88 callsubr
          116 hlineto
          endchar
        </CharString>
        <CharString name="dvAA">
          368 946 -17 callgsubr
          -550 -88 callsubr
          187 -575 54 callsubr
          hlineto
          endchar
        </CharString>
        <CharString name="dvAI">
          -1 577 -17 callgsubr
          -92 hlineto
          -102 155 rlineto
          62 -40 -45 28 8 callsubr
          -421 -34 callgsubr
        </CharString>
        <CharString name="dvAU">
          369 837 642 18 callsubr
          -332 -88 callsubr
          188 185 callsubr
        </CharString>
        <CharString name="dvAbbreviationsign">
          -122 57 303 rmoveto
          -88 71 -71 88 87 71 71 88 86 -71 72 -87 -88 -71 -72 -86 vhcurveto
          69 hmoveto
          49 40 40 50 49 40 -40 -49 -50 -40 -40 -49 -50 -40 40 50 vhcurveto
          endchar
        </CharString>
        <CharString name="dvAnusvara">
          -189 783 rmoveto
          -31 23 86 callgsubr
          -31 -23 -25 -30 vhcurveto
          endchar
        </CharString>
        <CharString name="dvAnusvara.amI">
          -53 856 rmoveto
          -31 23 86 callgsubr
          -31 -23 -25 -30 vhcurveto
          endchar
        </CharString>
        <CharString name="dvAvagraha">
          -103 227 -3 rmoveto
          145 60 87 82 hvcurveto
          172 -331 87 98 vvcurveto
          34 24 15 32 vhcurveto
          248 70 -257 hlineto
          -81 -47 -45 -71 hvcurveto
          -164 333 -65 -135 vvcurveto
          -46 -37 -49 -87 -66 -82 25 41 -63 vhcurveto
          -83 vlineto
          -24 40 75 -29 94 hhcurveto
          endchar
        </CharString>
        <CharString name="dvB">
          -177 401 -17 callgsubr
          -423 -67 423 hlineto
          -26 -405 -78 callgsubr
          304 -120 rmoveto
          -14 -20 -15 -20 -19 -18 -98 callsubr
          112 73 59 74 52 hvcurveto
          endchar
        </CharString>
        <CharString name="dvBA">
          59 372 173 -32 callsubr
          -660 -67 466 -269 hlineto
          26 callgsubr
        </CharString>
        <CharString name="dvBH">
          -230 421 347 rmoveto
          -234 -59 callgsubr
          234 hlineto
          endchar
        </CharString>
        <CharString name="dvBHA">
          -1 383 347 rmoveto
          -196 -59 callgsubr
          196 -281 54 callsubr
          67 -194 hlineto
          endchar
        </CharString>
        <CharString name="dvBH_LA">
          499 1077 -17 callgsubr
          -778 -67 583 60 callsubr
          -79 -57 -48 -74 -24 hvcurveto
          -201 -59 callgsubr
          190 hlineto
          -1 -6 0 -6 -6 vvcurveto
          -86 callsubr
        </CharString>
        <CharString name="dvBH_NA">
          7 391 -17 callgsubr
          -251 -196 136 vlineto
          102 callsubr
          -26 -6 -17 100 callsubr
          196 -92 hlineto
          -232 -150 rlineto
          -32 -20 -14 -22 -26 vvcurveto
          -48 51 -46 37 -18 vhcurveto
          51 32 rlineto
          -23 18 -27 30 27 vvcurveto
          16 10 13 16 10 vhcurveto
          163 104 rlineto
          -153 48 callgsubr
        </CharString>
        <CharString name="dvBH_R">
          -186 197 391 rmoveto
          136 vlineto
          -3 callgsubr
          208 hlineto
          -340 -365 rlineto
          108 hlineto
          326 365 rlineto
          66 vlineto
          endchar
        </CharString>
        <CharString name="dvBH_RA">
          9 393 -17 callgsubr
          -251 -196 136 vlineto
          -3 callgsubr
          196 -68 hlineto
          -336 -297 182 callsubr
          226 200 rlineto
          -160 54 callsubr
          67 vlineto
          endchar
        </CharString>
        <CharString name="dvBH_R_YA">
          418 802 187 callsubr
          -80 -59 54 71 -16 vhcurveto
          1 1 rlineto
          78 24 69 -95 callsubr
          187 hlineto
          -476 67 rmoveto
          -67 205 vlineto
          -11 callsubr
          -38 -25 -34 -52 -23 vhcurveto
          -288 136 hlineto
          -3 callgsubr
          208 hlineto
          -340 -365 rlineto
          108 hlineto
          261 292 rlineto
          -83 43 77 -44 86 -101 callgsubr
          67 vlineto
          endchar
        </CharString>
        <CharString name="dvBH_VA">
          338 917 -17 callgsubr
          -618 -67 424 -61 callgsubr
          -92 -70 -51 -75 -26 hvcurveto
          -191 -59 callgsubr
          181 hlineto
          -121 1 93 -69 101 hhcurveto
          107 callgsubr
          hvcurveto
          -166 -85 callgsubr
        </CharString>
        <CharString name="dvBH_YA">
          386 771 -106 callsubr
          -476 67 rmoveto
          46 callgsubr
          1 -7 1 -6 1 -7 rrcurveto
          -184 -59 callgsubr
          203 hlineto
          -102 40 83 -54 96 -101 callgsubr
          67 vlineto
          endchar
        </CharString>
        <CharString name="dvB_BA">
          446 758 173 rmoveto
          -18 -26 195 callsubr
          -82 -59 58 83 37 10 32 19 24 hvcurveto
          -171 -209 -78 callgsubr
          864 263 rmoveto
          -1046 -67 852 16 callsubr
          -127 -92 -86 -122 -18 2 -17 4 -16 hvcurveto
          -9 -12 -10 -12 -12 -11 -98 callsubr
          89 65 38 52 49 hvcurveto
          -57 38 66 -33 72 hhcurveto
          81 64 36 46 34 hvcurveto
          -163 -85 callgsubr
        </CharString>
        <CharString name="dvB_BHA">
          377 375 170 -78 callgsubr
          601 263 rmoveto
          -295 -196 180 vlineto
          117 callgsubr
          -19 -18 -3 -5 -16 vhcurveto
          4 -423 -67 406 -9 116 callgsubr
          19 90 callgsubr
          -170 vlineto
          -25 -5 -17 -22 -28 vvcurveto
          -14 4 -15 5 -16 vhcurveto
          -11 -15 -12 -15 -14 -13 -98 callsubr
          93 66 41 56 50 hvcurveto
          14 -34 rlineto
          70 137 196 -281 92 callgsubr
        </CharString>
        <CharString name="dvB_BH_RA">
          365 375 170 -78 callgsubr
          589 263 rmoveto
          -251 -196 136 vlineto
          117 callgsubr
          -14 -14 -2 -3 -13 vhcurveto
          1 -423 -67 394 -9 vlineto
          7 4 8 3 10 2 rrcurveto
          4 1 hlineto
          2 9 10 1 9 hhcurveto
          97 callsubr
          -25 -6 -18 -21 -28 vvcurveto
          -25 12 -31 13 -28 vhcurveto
          -12 -17 -13 -16 -16 -15 -98 callsubr
          99 68 46 61 50 hvcurveto
          64 89 callgsubr
        </CharString>
        <CharString name="dvB_DA">
          378 375 170 -78 callgsubr
          676 29 rmoveto
          167 120 67 -978 -67 780 47 callgsubr
          -17 2 -17 4 -16 hvcurveto
          -6 -7 -7 -7 -7 -7 49 callsubr
          -53 34 61 -35 79 hhcurveto
          57 52 19 33 26 hvcurveto
          -77 callsubr
          endchar
        </CharString>
        <CharString name="dvB_DHA">
          463 375 170 -78 callgsubr
          880 263 rmoveto
          -193 -344 144 callsubr
          -83 -49 40 53 60 50 36 81 vhcurveto
          59 67 -50 hlineto
          -73 -63 24 64 57 49 43 91 hvcurveto
          1 67 -694 -67 536 36 callgsubr
          -68 -9 -53 -39 -6 -70 -9 -12 -10 -12 -12 -11 -98 callsubr
          82 61 32 46 47 hvcurveto
          -57 29 68 -38 96 hhcurveto
          93 68 45 48 31 hvcurveto
          -157 98 callgsubr
        </CharString>
        <CharString name="dvB_DH_VA">
          826 375 170 -78 callgsubr
          1244 263 rmoveto
          -558 -67 364 98 callsubr
          -23 hhcurveto
          -116 132 callsubr
          -22 3 -19 5 -19 hvcurveto
          -54 -50 -65 -37 -87 -61 callsubr
          -694 -67 536 36 callgsubr
          -68 -9 -53 -39 -6 -70 -9 -12 -10 -12 -12 -11 49 callsubr
          -57 29 68 -38 97 hhcurveto
          105 79 44 52 55 hvcurveto
          -45 37 57 -24 60 hhcurveto
          107 callgsubr
          hvcurveto
          -166 -85 callgsubr
        </CharString>
        <CharString name="dvB_JA">
          478 375 170 -78 callgsubr
          896 263 rmoveto
          -1078 -67 884 163 callsubr
          -30 -27 6 8 -24 hvcurveto
          25 21 21 24 18 26 -45 45 rcurveline
          -14 -20 -15 -20 -19 -18 -98 callsubr
          56 47 15 24 39 hvcurveto
          -35 -39 callgsubr
        </CharString>
        <CharString name="dvB_JHA">
          561 640 316 rmoveto
          -14 1 rlineto
          20 callgsubr
          141 180 -259 hlineto
          -569 -146 -78 callgsubr
          979 263 rmoveto
          -1161 -67 707 -74 -86 hlineto
          -98 -68 -46 -83 173 callsubr
          hvcurveto
          85 -6 33 -34 -46 vvcurveto
          -53 -37 -32 -56 -63 -60 42 56 -23 vhcurveto
          -12 hlineto
          10 11 9 13 9 12 -45 45 rcurveline
          -14 -20 -15 -20 -19 -18 -98 callsubr
          61 49 17 28 41 hvcurveto
          -174 76 113 vlineto
          -32 36 52 -18 56 hhcurveto
          100 67 65 87 34 -10 28 -19 23 hvcurveto
          163 -252 131 callsubr
        </CharString>
        <CharString name="dvB_J_YA">
          844 1228 95 callsubr
          -853 -405 -78 callgsubr
          1262 263 rmoveto
          -1444 -67 980 hlineto
          16 -19 14 -31 -39 vvcurveto
          -41 -28 -36 -58 -22 vhcurveto
          18 -17 -54 46 -118 hhcurveto
          -227 -67 hlineto
          107 68 -45 -91 -76 -53 -43 -76 -32 -28 6 10 -25 hvcurveto
          24 20 20 24 18 25 -45 45 rcurveline
          -14 -20 -15 -20 -19 -18 -98 callsubr
          59 49 17 26 40 hvcurveto
          -39 -23 callsubr
          44 hlineto
          66 36 -17 -9 14 hvcurveto
          -152 23 98 -81 118 12 callsubr
          vlineto
          endchar
        </CharString>
        <CharString name="dvB_JxA">
          494 375 170 -78 callgsubr
          912 263 rmoveto
          -1094 -67 900 163 callsubr
          -35 -30 7 12 -27 hvcurveto
          23 19 19 23 17 24 -45 45 rcurveline
          -14 -20 -15 -20 -19 -18 -98 callsubr
          64 52 20 30 42 hvcurveto
          -46 -39 callgsubr
        </CharString>
        <CharString name="dvB_LA">
          564 375 170 -78 callgsubr
          982 263 rmoveto
          -1164 -67 969 60 callsubr
          -106 -66 -87 -119 -11 1 -11 1 -11 hvcurveto
          -8 -10 -9 -10 -10 -9 -98 callsubr
          80 60 30 44 47 hvcurveto
          -92 34 79 -63 109 -65 callgsubr
        </CharString>
        <CharString name="dvB_L_YA">
          879 1263 -106 callsubr
          -888 -405 -78 callgsubr
          1296 263 rmoveto
          -1478 -67 1014 87 callgsubr
          -21 -7 -19 -15 -17 vhcurveto
          27 -29 -38 17 -49 hhcurveto
          -72 -51 -34 -64 -15 hvcurveto
          59 -13 153 callsubr
          -106 -66 -87 -119 -11 1 -11 1 -11 hvcurveto
          -8 -10 -9 -10 -10 -9 -98 callsubr
          80 60 30 44 47 hvcurveto
          -92 34 79 -63 109 hhcurveto
          11 15 1 2 12 hvcurveto
          65 vlineto
          -2 -10 -11 0 -6 hhcurveto
          -120 -53 90 106 95 46 46 55 55 32 -36 -83 hvcurveto
          -74 78 72 vlineto
          89 43 38 61 23 19 -8 -10 15 vhcurveto
          -24 -11 -28 -8 -34 -5 rrcurveto
          -158 21 100 -84 120 -102 callsubr
        </CharString>
        <CharString name="dvB_NA">
          67 380 173 rmoveto
          -18 -27 -34 -10 179 callsubr
          477 263 rmoveto
          -667 50 callgsubr
          -116 84 -78 102 -11 hvcurveto
          -55 -31 rlineto
          -40 -23 -16 -26 -28 vvcurveto
          -47 43 -41 34 -20 vhcurveto
          50 31 rlineto
          -19 17 -22 25 26 vvcurveto
          13 6 14 13 9 vhcurveto
          156 114 22 14 18 16 13 18 rlinecurve
          -163 98 callgsubr
        </CharString>
        <CharString name="dvB_R">
          -182 396 -17 callgsubr
          -418 -67 418 hlineto
          -18 -401 rmoveto
          -18 -27 -32 -11 179 callsubr
          289 -110 rmoveto
          -12 -23 -13 -20 -15 -18 -208 204 rcurveline
          11 21 27 6 30 hhcurveto
          22 27 -4 -9 29 hvcurveto
          69 vlineto
          6 -26 -27 4 -30 hhcurveto
          -127 -92 -86 -122 -118 90 -81 109 -4 hvcurveto
          -166 -149 rlineto
          108 hlineto
          295 266 rlineto
          endchar
        </CharString>
        <CharString name="dvB_RA">
          68 380 173 118 callsubr
          -668 50 callgsubr
          -118 90 -80 108 -5 hvcurveto
          -165 -149 rlineto
          108 hlineto
          248 225 rlineto
          -160 -85 callgsubr
        </CharString>
        <CharString name="dvB_SA">
          474 637 136 callsubr
          194 -242 vlineto
          -483 -163 -78 callgsubr
          891 263 rmoveto
          -1073 -67 608 137 callgsubr
          28 -42 -10 -14 -11 -13 -13 -12 rlinecurve
          128 callgsubr
          rlineto
          -93 callsubr
          100 -81 117 97 67 44 60 51 hvcurveto
          122 -185 rlineto
          95 hlineto
          -184 274 rlineto
          -5 33 53 -4 84 hhcurveto
          168 -265 17 callsubr
        </CharString>
        <CharString name="dvB_SHA">
          514 401 -17 callgsubr
          -423 -67 423 hlineto
          -26 -405 -78 callgsubr
          405 63 rmoveto
          -72 callgsubr
          15 -17 -9 -12 -10 -12 -12 -11 rlinecurve
          128 callgsubr
          rlineto
          -93 callsubr
          100 -81 117 98 69 46 61 50 hvcurveto
          164 -188 -6 callsubr
          409 200 rmoveto
          -642 79 -35 callgsubr
        </CharString>
        <CharString name="dvB_TA">
          408 375 170 -78 callgsubr
          826 263 rmoveto
          -1008 -67 814 148 callsubr
          hvcurveto
          -1 vlineto
          -8 -9 -8 -9 -9 -9 -98 callsubr
          76 58 27 41 46 hvcurveto
          -89 26 73 -60 106 hhcurveto
          12 10 1 1 8 hvcurveto
          -83 callgsubr
        </CharString>
        <CharString name="dvB_VA">
          402 375 170 -78 callgsubr
          820 263 rmoveto
          -1002 -67 808 68 callsubr
          -21 3 -19 5 -17 hvcurveto
          -7 -8 -8 -8 -8 -8 -98 callsubr
          86 62 34 50 48 hvcurveto
          -48 37 59 -26 62 hhcurveto
          107 callgsubr
          hvcurveto
          -166 -85 callgsubr
        </CharString>
        <CharString name="dvB_YA">
          422 807 -106 callsubr
          -432 -405 -78 callgsubr
          840 263 rmoveto
          -1022 -67 558 hlineto
          -90 callsubr
          7 -51 15 -44 22 -36 -10 -12 -10 -12 -12 -11 -98 callsubr
          98 68 45 60 50 hvcurveto
          -40 42 55 -21 60 -102 callsubr
        </CharString>
        <CharString name="dvC">
          -170 408 -17 callgsubr
          -430 -67 430 hlineto
          69 -295 rmoveto
          -57 -27 -71 -59 -87 -38 callgsubr
          113 84 66 66 31 vhcurveto
          endchar
        </CharString>
        <CharString name="dvCA">
          78 656 -17 callgsubr
          -678 -67 484 39 callgsubr
          160 vhcurveto
          67 -342 110 callgsubr
          -103 82 -60 105 vhcurveto
          51 callsubr
        </CharString>
        <CharString name="dvCH">
          67 645 174 callsubr
          -667 -67 150 vlineto
          -3 callsubr
          101 -59 73 -120 127 callgsubr
          vhcurveto
          -44 callsubr
          38 67 -30 hlineto
          -53 -48 34 58 41 20 38 42 23 hvcurveto
          endchar
        </CharString>
        <CharString name="dvCHA">
          75 427 481 -74 callsubr
          -675 -67 150 vlineto
          -3 callsubr
          66 -25 54 -51 29 vhcurveto
          117 vlineto
          endchar
        </CharString>
        <CharString name="dvCH_RA">
          82 435 481 rmoveto
          1 -10 -10 1 -11 hhcurveto
          -19 -24 -2 -5 -12 hvcurveto
          -44 callsubr
          38 67 -30 hlineto
          -53 -48 34 58 41 20 38 42 23 hvcurveto
          205 hlineto
          225 hmoveto
          67 -682 -67 157 vlineto
          34 callgsubr
          83 callgsubr
        </CharString>
        <CharString name="dvCH_R_YA">
          644 1029 158 callsubr
          -71 -51 40 60 -13 vhcurveto
          71 23 59 51 66 vvcurveto
          65 -46 55 -130 -49 -84 -13 -26 -55 vhcurveto
          -3 3 -4 2 -4 2 rrcurveto
          117 522 vlineto
          -730 -261 rmoveto
          67 -30 vlineto
          -53 -48 34 58 41 20 38 42 23 hvcurveto
          205 -94 hlineto
          1 -10 -10 1 -11 hhcurveto
          -19 -24 -2 -5 -12 hvcurveto
          -44 callsubr
          966 328 rmoveto
          -1249 -67 157 hlineto
          34 callgsubr
          34 -7 30 -13 26 vhcurveto
          17 48 54 10 43 hhcurveto
          54 42 -16 -38 -53 -59 -28 -85 -15 hvcurveto
          -149 18 94 -66 107 hhcurveto
          73 50 33 38 27 hvcurveto
          -132 77 575 121 vlineto
          endchar
        </CharString>
        <CharString name="dvCH_YA">
          632 1017 158 callsubr
          147 callgsubr
          -48 -82 -13 -24 -55 vhcurveto
          -3 2 -3 2 -3 1 rrcurveto
          117 517 vlineto
          -725 -261 rmoveto
          67 -30 vlineto
          -53 -48 34 58 41 20 38 42 23 hvcurveto
          204 -94 hlineto
          1 -10 -10 1 -10 hhcurveto
          127 callgsubr
          hvcurveto
          -44 callsubr
          961 328 rmoveto
          -1237 -67 150 hlineto
          -3 callsubr
          34 -7 31 -13 26 vhcurveto
          16 46 53 10 41 152 callgsubr
          108 hhcurveto
          73 148 callgsubr
          120 vlineto
          endchar
        </CharString>
        <CharString name="dvC_CA">
          442 1020 -17 callgsubr
          -1042 -67 848 39 callgsubr
          160 vhcurveto
          67 -312 -67 112 vlineto
          -48 -24 -29 -42 -59 -5 0 -4 -5 vvcurveto
          -45 -34 -60 -39 -71 -38 callgsubr
          83 67 36 45 42 vhcurveto
          -52 31 61 -29 73 hhcurveto
          51 callsubr
        </CharString>
        <CharString name="dvC_CHA">
          471 823 481 -74 callsubr
          -1071 -67 546 vlineto
          -31 -26 -14 -39 -37 vvcurveto
          -72 52 -42 43 -7 vhcurveto
          -55 -6 -41 -34 -13 -52 rrcurveto
          -47 -29 -66 -49 -78 -38 callgsubr
          78 64 31 42 42 vhcurveto
          -74 28 86 -41 108 hhcurveto
          101 callsubr
          66 -25 54 -51 29 hvcurveto
          117 vlineto
          endchar
        </CharString>
        <CharString name="dvC_CH_VA">
          482 851 481 rmoveto
          119 callgsubr
          -43 -65 -102 -92 -70 -118 -103 -76 38 69 47 41 34 69 hvcurveto
          38 67 -30 hlineto
          -53 -47 25 59 41 20 35 41 22 hvcurveto
          241 hlineto
          -6 -568 rmoveto
          -81 -54 -79 -98 -72 -52 40 74 72 54 39 78 vhcurveto
          0 9 vlineto
          48 46 10 18 41 hvcurveto
          215 475 rmoveto
          67 -1082 -67 537 vlineto
          -31 -25 -14 -36 -37 vvcurveto
          -72 53 -37 42 -7 vhcurveto
          -60 -7 -53 -44 -68 vvcurveto
          0 vlineto
          -41 -33 -59 -37 -68 -38 callgsubr
          78 65 32 41 42 vhcurveto
          20 -33 33 -25 44 -17 rrcurveto
          -48 -29 -30 -49 -58 vvcurveto
          -116 94 -62 101 78 53 35 44 29 vhcurveto
          -166 77 453 vlineto
          47 42 30 57 64 vvcurveto
          66 -25 53 -51 28 vhcurveto
          116 vlineto
          endchar
        </CharString>
        <CharString name="dvC_MA">
          391 776 -30 callsubr
          193 67 rmoveto
          -991 -67 510 -232 hlineto
          -25 -6 -17 -20 -27 vvcurveto
          -13 4 -15 5 -17 vhcurveto
          -44 -35 -59 -37 -69 -38 callgsubr
          85 68 37 46 42 vhcurveto
          17 -38 rlineto
          156 callsubr
        </CharString>
        <CharString name="dvC_NA">
          86 664 -17 callgsubr
          -686 -67 492 39 callgsubr
          159 vhcurveto
          67 -341 110 callgsubr
          -91 64 -57 87 -12 vhcurveto
          -76 -43 rlineto
          -31 -18 -15 -23 -27 vvcurveto
          -49 46 -43 35 -24 vhcurveto
          51 35 rlineto
          -20 18 -26 34 27 vvcurveto
          14 7 9 12 8 vhcurveto
          172 108 29 17 21 22 14 23 rlinecurve
          -190 -85 callgsubr
        </CharString>
        <CharString name="dvC_R">
          -139 439 -17 callgsubr
          -461 -67 461 hlineto
          56 -273 rmoveto
          -70 -40 -74 -68 -89 hhcurveto
          -69 -49 35 67 58 40 63 159 hvcurveto
          67 -341 110 callgsubr
          -98 75 -58 95 -5 vhcurveto
          -171 -146 rlineto
          112 hlineto
          327 276 rlineto
          endchar
        </CharString>
        <CharString name="dvC_RA">
          82 660 -17 callgsubr
          -682 -67 488 -262 hlineto
          -67 -63 -82 -111 -69 -49 35 67 58 40 63 159 vhcurveto
          67 -341 110 callgsubr
          -97 73 -57 95 -7 vhcurveto
          -171 -146 182 callsubr
          263 223 rlineto
          -178 -85 callgsubr
        </CharString>
        <CharString name="dvC_YA">
          452 837 -106 callsubr
          193 67 rmoveto
          -1052 -67 588 hlineto
          -90 callsubr
          5 -41 11 -36 15 -31 rrcurveto
          -49 -33 -64 -46 -76 -38 callgsubr
          99 76 50 57 39 vhcurveto
          -53 44 62 -28 69 -102 callsubr
        </CharString>
        <CharString name="dvCandrabindu">
          37 callgsubr
        </CharString>
        <CharString name="dvD">
          -6 611 -243 35 callsubr
          -536 885 28 callsubr
        </CharString>
        <CharString name="dvDA">
          -6 -22 642 28 callsubr
        </CharString>
        <CharString name="dvDA_mvR">
          -71 381 575 rmoveto
          126 67 -529 -67 326 -84 hlineto
          2 -19 -21 1 -20 hhcurveto
          -105 -63 -51 -71 -63 43 -36 62 -7 hvcurveto
          -69 -10 -41 -45 -64 vvcurveto
          -87 87 -47 111 62 64 19 22 36 vhcurveto
          74 vlineto
          -28 -39 -62 -22 -61 hhcurveto
          -67 -53 22 51 51 44 31 75 hvcurveto
          62 68 -60 hlineto
          -75 -40 24 43 43 40 22 65 1 hvcurveto
          31 59 -5 -11 31 hvcurveto
          endchar
        </CharString>
        <CharString name="dvDD">
          -35 222 -68 20 callsubr
          97 492 78 callsubr
          -565 -67 343 -84 -99 vlineto
          -89 -71 -43 -89 -87 67 -40 117 -5 hvcurveto
          -62 callgsubr
        </CharString>
        <CharString name="dvDDA">
          -35 399 171 callsubr
          -565 -67 343 -84 -99 vlineto
          -89 -71 -43 -89 -87 67 -40 117 -5 hvcurveto
          -62 callgsubr
        </CharString>
        <CharString name="dvDDH">
          0 482 -212 35 callsubr
          -119 424 -46 callsubr
          endchar
        </CharString>
        <CharString name="dvDDHA">
          0 266 212 -46 callsubr
          endchar
        </CharString>
        <CharString name="dvDDH_DDHA">
          5 441 575 rmoveto
          142 67 -605 -67 385 -76 hlineto
          1 -16 -17 1 -16 hhcurveto
          -143 -1 -107 -75 -114 vvcurveto
          -83 53 -53 68 -28 vhcurveto
          -77 -32 -39 -60 -63 vvcurveto
          -117 114 -65 127 115 97 54 84 66 -58 38 -88 -36 -43 -12 -14 -26 vhcurveto
          -65 vlineto
          15 23 43 13 37 hhcurveto
          43 27 -15 -32 -41 -58 -26 -75 -95 -68 46 73 74 63 44 98 11 hvcurveto
          5 hlineto
          104 96 48 80 68 -57 42 -89 -43 -35 -10 -13 -26 hvcurveto
          -65 vlineto
          13 24 36 13 41 hhcurveto
          45 27 -17 -29 -49 -55 -17 -75 -87 -76 43 80 80 75 47 115 36 40 -5 -6 31 hvcurveto
          endchar
        </CharString>
        <CharString name="dvDDH_R">
          1 255 -186 20 callsubr
          97 761 -16 callsubr
        </CharString>
        <CharString name="dvDDH_RA">
          1 432 575 -16 callsubr
        </CharString>
        <CharString name="dvDDH_YA">
          538 594 422 rmoveto
          59 45 -15 -40 -53 -60 -26 -84 -15 hvcurveto
          -148 18 93 -64 108 hhcurveto
          72 53 33 38 24 182 callgsubr
          117 67 -1139 -67 375 -101 vlineto
          -178 -19 -121 -77 -141 vvcurveto
          -132 110 -84 136 62 callgsubr
          -65 vlineto
          12 20 32 11 33 hhcurveto
          45 28 -25 -36 -56 -54 -32 -69 -95 -72 60 92 131 147 36 166 12 hvcurveto
          4 51 52 1 44 hhcurveto
          -162 153 rmoveto
          490 -297 hlineto
          -80 -50 -68 -92 -70 -51 37 61 -14 vhcurveto
          72 22 59 50 65 vvcurveto
          69 -50 53 -131 -42 -65 -1 -5 -56 vhcurveto
          endchar
        </CharString>
        <CharString name="dvDDHxA">
          0 266 212 -46 callsubr
          -19 -405 rmoveto
          -30 22 -22 30 30 24 22 30 29 -24 24 -30 -30 -22 -24 -29 vhcurveto
          endchar
        </CharString>
        <CharString name="dvDD_DDA">
          -5 424 444 rmoveto
          131 149 67 -595 -67 368 -65 -117 vlineto
          -94 -75 -31 -84 -57 46 -49 106 hvcurveto
          33 41 7 48 hhcurveto
          43 24 -19 168 callsubr
          17 -9 22 -8 24 -7 rrcurveto
          -31 -16 -18 -31 -31 vvcurveto
          -60 50 -43 98 vhcurveto
          28 53 8 38 hhcurveto
          44 22 -19 -28 -44 -54 -23 -71 -74 -88 22 33 -52 hvcurveto
          -77 vlineto
          -29 55 86 -14 71 hhcurveto
          129 76 53 85 59 -46 47 -85 1 hvcurveto
          -43 -52 -7 -26 hhcurveto
          -62 -16 19 24 29 24 19 39 5 hvcurveto
          -1 16 16 -1 15 hhcurveto
          133 79 46 84 1 hvcurveto
          63 -43 48 -83 vhcurveto
          -52 -38 -5 -29 hhcurveto
          -76 -17 20 23 33 30 14 63 hvcurveto
          endchar
        </CharString>
        <CharString name="dvDD_DDHA">
          -2 435 444 rmoveto
          131 141 67 -598 -67 379 -65 -117 vlineto
          -92 -77 -31 -84 -58 48 -49 96 hvcurveto
          35 43 7 51 hhcurveto
          43 25 -18 168 callsubr
          23 -12 31 -11 34 -7 rrcurveto
          -59 -32 -34 -52 -62 vvcurveto
          -115 102 -67 126 115 90 54 84 67 -59 37 -84 -34 -41 -12 -14 -26 vhcurveto
          -65 vlineto
          14 20 41 14 35 hhcurveto
          44 27 -15 -32 -41 -52 -26 -75 -95 -53 46 71 76 58 45 100 12 hvcurveto
          115 7 70 46 77 vvcurveto
          62 -43 50 -92 vhcurveto
          -51 -53 -7 -26 hhcurveto
          -59 -15 21 22 33 33 14 59 hvcurveto
          endchar
        </CharString>
        <CharString name="dvDD_R">
          -34 214 -208 20 callsubr
          106 632 -13 callgsubr
        </CharString>
        <CharString name="dvDD_RA">
          -34 400 424 -13 callgsubr
        </CharString>
        <CharString name="dvDD_VA">
          -6 370 40 rmoveto
          -84 -36 -66 -91 -57 -46 36 63 62 39 47 75 5 vhcurveto
          -1 8 9 0 8 hhcurveto
          30 32 3 7 29 hvcurveto
          75 332 rmoveto
          131 127 67 -594 -67 389 -65 -127 vlineto
          -94 -75 -39 -84 -58 45 -49 103 hvcurveto
          34 37 8 50 hhcurveto
          44 30 -18 -35 hvcurveto
          -50 -2 -57 -17 -77 hhcurveto
          -64 -93 25 30 -49 hvcurveto
          -77 vlineto
          19 -10 24 -9 27 -7 rrcurveto
          -50 -25 -31 -46 -61 vvcurveto
          -99 79 -63 98 60 45 26 38 27 vhcurveto
          -121 77 378 vlineto
          28 22 18 30 42 vvcurveto
          64 -50 48 -86 vhcurveto
          -65 -41 -6 -31 hhcurveto
          -53 -15 21 26 32 32 18 61 hvcurveto
          endchar
        </CharString>
        <CharString name="dvDD_YA">
          502 887 278 rmoveto
          -77 -51 -71 -91 -69 -52 38 60 -14 vhcurveto
          73 21 57 51 64 vvcurveto
          75 -52 49 -132 vhcurveto
          -154 87 485 hlineto
          193 67 rmoveto
          -1102 -67 346 -86 -99 hlineto
          -89 -70 -43 -89 -83 63 -51 81 -3 hvcurveto
          88 7 rlineto
          50 31 -28 -45 -61 -52 -28 -73 -65 -74 24 31 -48 hvcurveto
          -77 vlineto
          -26 49 67 -18 73 hhcurveto
          119 83 61 94 1 hvcurveto
          80 -49 58 -101 1 vhcurveto
          -88 -6 rlineto
          -45 1 -31 25 46 vvcurveto
          47 43 16 41 vhcurveto
          327 hlineto
          69 37 -19 -38 -52 -59 -25 -85 -13 hvcurveto
          -146 19 94 -68 106 hhcurveto
          73 52 33 38 25 hvcurveto
          -132 131 callgsubr
        </CharString>
        <CharString name="dvDDxA">
          -35 248 -83 rmoveto
          -102 callgsubr
          151 507 78 callsubr
          -565 -67 343 -84 -99 vlineto
          -89 -71 -43 -89 -87 67 -40 117 -5 hvcurveto
          -62 callgsubr
        </CharString>
        <CharString name="dvDH">
          -130 512 263 rmoveto
          -75 -53 -75 -57 -107 -48 callsubr
          135 93 73 69 53 vhcurveto
          endchar
        </CharString>
        <CharString name="dvDHA">
          78 656 9 callsubr
          -310 -67 152 hlineto
          -28 callgsubr
          78 -70 130 93 68 45 48 31 vhcurveto
          -157 98 callgsubr
        </CharString>
        <CharString name="dvDH_MA">
          418 803 347 rmoveto
          -210 228 210 hlineto
          -377 67 rmoveto
          -67 89 -231 vlineto
          -25 -6 -17 -21 -28 vvcurveto
          -17 6 -20 8 -21 vhcurveto
          -59 -51 -68 -41 -91 -48 callsubr
          107 81 46 53 55 vhcurveto
          9 -20 rlineto
          68 135 210 -278 92 callgsubr
        </CharString>
        <CharString name="dvDH_NA">
          86 664 -17 callgsubr
          -194 -326 hlineto
          -78 -68 -89 -120 -84 -48 33 55 54 53 35 79 vhcurveto
          2 callgsubr
          23 16 18 19 12 19 rrcurveto
          -175 -85 callgsubr
        </CharString>
        <CharString name="dvDH_N_YA">
          449 834 -106 callsubr
          -476 67 rmoveto
          46 callgsubr
          6 -47 14 -41 19 -34 rrcurveto
          -52 -48 -60 -44 -80 hhcurveto
          -84 -48 33 55 54 53 35 79 hvcurveto
          2 callgsubr
          34 20 30 25 27 27 rrcurveto
          -45 43 58 -23 63 -101 callgsubr
          67 vlineto
          endchar
        </CharString>
        <CharString name="dvDH_R">
          -114 516 299 rmoveto
          -86 -66 -76 -64 -94 hhcurveto
          172 callsubr
          hvcurveto
          58 callsubr
          -91 78 -56 120 -2 vhcurveto
          -160 -129 rlineto
          114 hlineto
          345 286 rlineto
          endchar
        </CharString>
        <CharString name="dvDH_RA">
          84 662 -17 callgsubr
          -194 -326 144 callsubr
          172 callsubr
          vhcurveto
          58 callsubr
          -86 72 -58 117 -5 vhcurveto
          -155 -129 rlineto
          111 hlineto
          254 211 rlineto
          -166 -85 callgsubr
        </CharString>
        <CharString name="dvDH_VA">
          446 1024 -17 callgsubr
          -558 -67 364 98 callsubr
          -23 hhcurveto
          -116 132 callsubr
          -20 3 -19 4 -17 hvcurveto
          -56 -50 -67 -39 -88 -48 callsubr
          106 80 45 53 56 vhcurveto
          -46 36 58 -25 61 hhcurveto
          107 callgsubr
          hvcurveto
          -166 -85 callgsubr
        </CharString>
        <CharString name="dvDH_YA">
          465 849 334 -12 callgsubr
          -420 67 rmoveto
          -67 150 172 callgsubr
          -53 -46 57 callgsubr
          7 -52 15 -44 22 -36 rrcurveto
          -61 -52 -69 -43 -93 -48 callsubr
          120 86 57 61 55 vhcurveto
          -38 42 53 -19 58 12 callsubr
          67 vlineto
          endchar
        </CharString>
        <CharString name="dvD_BA">
          22 415 93 callsubr
          -213 rmoveto
          -17 -24 -28 -8 -26 hhcurveto
          -61 -48 33 57 28 11 24 19 175 callgsubr
          -622 -67 427 -101 -105 vlineto
          -145 -89 -83 -115 -71 35 -63 65 -32 hvcurveto
          -47 -27 -24 -46 -53 vvcurveto
          -88 78 -60 95 52 49 20 34 33 vhcurveto
          1 -1 12 14 rlineto
          -100 77 464 -74 vlineto
          -68 -3 -52 -47 -81 hhcurveto
          -78 -54 47 80 84 64 45 92 hvcurveto
          endchar
        </CharString>
        <CharString name="dvD_BHA">
          144 601 408 rmoveto
          167 121 67 -744 -67 545 157 callsubr
          -89 51 -75 86 -27 hvcurveto
          -110 -59 -37 72 rlineto
          44 -22 -29 23 -40 hhcurveto
          -40 -41 -25 -32 -23 hvcurveto
          30 -54 rlineto
          17 14 24 21 22 hhcurveto
          21 11 -14 -27 13 hvcurveto
          32 -63 rlineto
          -10 -10 -6 -12 -13 vvcurveto
          -35 55 -36 50 -36 vhcurveto
          53 29 -48 95 209 112 33 8 28 16 17 21 rlinecurve
          109 callsubr
        </CharString>
        <CharString name="dvD_B_RA">
          19 412 93 callsubr
          -214 rmoveto
          -16 -24 -28 -8 -27 hhcurveto
          -60 -48 33 57 28 10 24 20 175 callgsubr
          -619 -67 424 -101 -106 vlineto
          -145 -88 -83 -115 -71 34 -63 66 -32 hvcurveto
          -47 -27 -24 -46 -53 vvcurveto
          -77 60 -56 79 -12 vhcurveto
          -126 -97 rlineto
          104 hlineto
          163 127 rlineto
          -1 hlineto
          9 7 9 7 8 8 2 -2 rcurveline
          13 14 rlineto
          -100 77 464 -75 vlineto
          -68 -2 -52 -47 -81 hhcurveto
          -78 -55 47 80 84 65 45 92 hvcurveto
          endchar
        </CharString>
        <CharString name="dvD_DA">
          -36 418 575 rmoveto
          124 67 -564 -67 362 -77 hlineto
          4 -24 -26 2 -27 hhcurveto
          -117 -72 -49 -79 -59 39 -39 61 -4 hvcurveto
          -60 -8 -42 -50 -59 vvcurveto
          -85 72 -50 87 57 58 27 38 24 vhcurveto
          -104 77 222 -75 vlineto
          -80 -15 -56 -38 -61 hhcurveto
          -55 -34 29 46 47 41 34 68 hvcurveto
          47 68 -51 hlineto
          -59 -41 18 44 42 46 24 69 51 56 -9 -14 40 hvcurveto
          endchar
        </CharString>
        <CharString name="dvD_DHA">
          175 290 122 rmoveto
          24 -21 29 -16 35 -8 rrcurveto
          -77 -14 -42 -44 -47 hhcurveto
          -31 -23 22 33 39 24 34 27 23 hvcurveto
          360 301 rmoveto
          167 121 67 -775 -67 576 157 callsubr
          -36 9 -35 16 -29 hvcurveto
          -15 -12 rlineto
          -16 -20 -30 -7 -22 hhcurveto
          -30 -22 15 29 54 53 9 1 77 hvcurveto
          -67 22 rlineto
          -84 -63 -19 -65 vvcurveto
          -63 49 -33 56 15 17 3 6 15 vhcurveto
          -23 -22 -11 -32 -34 vvcurveto
          -66 54 -40 61 76 74 57 120 23 vhcurveto
          54 2 48 19 25 31 rrcurveto
          109 callsubr
        </CharString>
        <CharString name="dvD_GA">
          2 460 63 callsubr
          -602 -67 404 157 callsubr
          -91 53 -76 89 -25 hvcurveto
          -79 vlineto
          -45 -11 -16 -39 -30 -27 14 0 vhcurveto
          -67 vlineto
          -7 16 23 -6 30 hhcurveto
          75 38 42 78 hvcurveto
          77 vlineto
          53 2 49 19 24 31 rrcurveto
          -133 77 264 -75 vlineto
          -68 -2 -50 -50 -80 hhcurveto
          -77 -52 51 88 84 57 49 90 hvcurveto
          endchar
        </CharString>
        <CharString name="dvD_GHA">
          162 273 125 rmoveto
          24 -22 30 -17 35 -8 rrcurveto
          -75 -14 -41 -42 -48 hhcurveto
          -31 -22 21 33 39 24 34 26 23 hvcurveto
          -43 161 rmoveto
          -35 8 -32 14 -29 vhcurveto
          -15 -12 rlineto
          -15 -18 -25 -8 -23 hhcurveto
          -32 -29 16 38 50 58 31 62 3 hvcurveto
          406 129 rmoveto
          167 121 67 -762 -67 562 -101 -104 vlineto
          -115 -72 -54 -80 -26 hvcurveto
          -3 hlineto
          -91 -111 -51 -104 -65 51 -37 57 15 16 3 6 16 hvcurveto
          -24 -22 -10 -32 -33 vvcurveto
          -67 53 -40 62 75 73 56 117 24 vhcurveto
          54 1 50 19 25 32 rrcurveto
          -133 78 264 -75 vlineto
          -68 -2 -51 -50 -79 hhcurveto
          -78 -52 51 88 84 57 49 90 hvcurveto
          endchar
        </CharString>
        <CharString name="dvD_G_RA">
          42 462 408 rmoveto
          167 158 67 -642 -67 406 47 callgsubr
          -87 49 -74 83 -28 hvcurveto
          -81 vlineto
          -44 -11 -16 -38 -30 -27 14 0 vhcurveto
          -67 vlineto
          -6 16 23 -6 29 hhcurveto
          75 37 41 77 hvcurveto
          75 7 vlineto
          35 31 7 12 26 hvcurveto
          -138 vlineto
          -235 -185 rlineto
          105 hlineto
          130 105 rlineto
          -84 74 370 vlineto
          63 -167 rlineto
          78 hlineto
          -102 264 rlineto
          -71 hlineto
          -68 -2 -50 -50 -81 hhcurveto
          -79 -51 51 88 84 56 49 90 hvcurveto
          endchar
        </CharString>
        <CharString name="dvD_MA">
          175 559 121 rmoveto
          -158 196 -74 hlineto
          -58 -4 -52 -40 -58 hhcurveto
          -59 -44 36 61 71 55 35 89 hvcurveto
          147 153 158 hlineto
          70 callsubr
          -775 -67 345 -87 -76 hlineto
          -135 -81 -66 -106 -101 74 -64 96 56 46 24 32 20 hvcurveto
          -89 vlineto
          -25 -5 -18 -22 -27 vvcurveto
          -29 24 -44 29 -51 vhcurveto
          68 113 158 -191 78 713 116 hlineto
          endchar
        </CharString>
        <CharString name="dvD_NA">
          4 462 63 callsubr
          -604 -67 406 47 callgsubr
          -99 63 -82 103 -17 hvcurveto
          -76 -44 rlineto
          -38 -24 -18 -23 -31 vvcurveto
          -40 33 -41 43 -28 vhcurveto
          51 32 rlineto
          -21 19 -20 25 25 vvcurveto
          17 10 12 13 9 vhcurveto
          174 118 rlineto
          0 vlineto
          10 7 8 7 7 9 rrcurveto
          -77 callsubr
          endchar
        </CharString>
        <CharString name="dvD_R">
          -1 499 -289 35 callsubr
          -424 931 17 callgsubr
        </CharString>
        <CharString name="dvD_RA">
          -1 -22 642 17 callgsubr
        </CharString>
        <CharString name="dvD_VA">
          3 396 74 callgsubr
          -603 -67 404 -101 -97 vlineto
          -145 -86 -83 -115 -72 34 -63 66 -33 hvcurveto
          59 callgsubr
        </CharString>
        <CharString name="dvD_YA">
          99 483 300 rmoveto
          -109 -100 -62 -107 -70 -56 21 47 53 62 14 70 vhcurveto
          43 68 -43 hlineto
          -77 -48 19 44 37 31 24 61 30 39 -5 -11 33 hvcurveto
          135 132 56 callsubr
          -699 -67 295 -63 hlineto
          1 -12 -13 1 -14 hhcurveto
          -98 -59 -51 -67 -63 55 -30 55 -5 hvcurveto
          -56 -2 -59 -35 -64 vvcurveto
          -90 97 -44 103 101 79 46 47 31 vhcurveto
          -156 -85 callgsubr
        </CharString>
        <CharString name="dvE">
          -1 577 -17 callgsubr
          -599 -34 callgsubr
        </CharString>
        <CharString name="dvEcandra">
          -1 395 896 rmoveto
          -53 -34 -42 -67 -66 -34 139 callgsubr
          82 -49 96 94 84 52 105 vhcurveto
          105 -254 rmoveto
          -599 -34 callgsubr
        </CharString>
        <CharString name="dvEight">
          -16 268 62 rmoveto
          -91 -43 50 56 62 38 56 96 4 hvcurveto
          99 -3 40 -52 -58 vvcurveto
          -60 -45 -55 -94 vhcurveto
          -1 529 rmoveto
          85 39 -54 -60 -76 -53 -38 -67 -70 -56 33 79 60 43 56 79 hvcurveto
          101 -263 rmoveto
          64 26 39 52 68 vvcurveto
          127 -101 60 -103 -102 -101 -66 -122 -72 40 -51 65 -24 vhcurveto
          -70 -24 -46 -54 -84 vvcurveto
          -108 95 -64 119 122 98 67 110 88 -48 49 -71 22 vhcurveto
          endchar
        </CharString>
        <CharString name="dvEyelash">
          -362 11 375 rmoveto
          -72 vlineto
          -17 30 41 -11 54 hhcurveto
          71 58 22 20 38 hvcurveto
          -19 66 rlineto
          -23 -40 -54 -20 -56 hhcurveto
          -59 -40 18 17 -24 hvcurveto
          205 200 rmoveto
          67 -238 -67 vlineto
          endchar
        </CharString>
        <CharString name="dvEyelash_HA">
          169 635 106 callsubr
          112 67 -769 -67 579 -92 -175 vlineto
          -69 -54 -34 -66 -5 0 -4 1 -5 hvcurveto
          -16 -36 -44 -13 -44 hhcurveto
          -59 -42 18 17 -24 hvcurveto
          -72 vlineto
          -17 30 43 -11 54 hhcurveto
          59 51 15 16 36 hvcurveto
          13 -17 16 -13 13 -9 rrcurveto
          -41 -30 -22 -44 -44 vvcurveto
          -86 79 -94 167 39 40 4 13 52 vhcurveto
          67 vlineto
          -12 -43 -46 -6 -36 hhcurveto
          -124 -50 51 62 51 47 48 94 68 28 -34 -39 -16 -3 -21 -11 -15 hvcurveto
          78 hlineto
          8 17 2 21 18 vvcurveto
          67 -53 67 -116 -37 -33 -5 -10 -28 vhcurveto
          -21 11 -26 26 39 112 callsubr
          endchar
        </CharString>
        <CharString name="dvEyelash_YA">
          247 632 35 callgsubr
          193 67 rmoveto
          -847 -67 383 87 callgsubr
          -56 -55 -45 -108 -21 vhcurveto
          0 vlineto
          -5 -26 -27 -3 -27 hhcurveto
          -50 -49 10 23 -39 hvcurveto
          -71 vlineto
          -19 36 51 -9 51 hhcurveto
          35 34 4 7 25 hvcurveto
          -117 36 88 -59 103 -102 callsubr
        </CharString>
        <CharString name="dvFive">
          -28 179 24 callsubr
        </CharString>
        <CharString name="dvFour">
          15 135 65 callgsubr
        </CharString>
        <CharString name="dvG">
          -252 326 -17 callgsubr
          -348 -67 173 -231 hlineto
          -96 callsubr
          98 vlineto
          endchar
        </CharString>
        <CharString name="dvGA">
          18 -22 642 rmoveto
          -23 callgsubr
          175 -575 77 -35 callgsubr
        </CharString>
        <CharString name="dvGH">
          -193 434 233 rmoveto
          -49 -38 -63 -25 -63 hhcurveto
          -60 -61 25 62 60 47 33 74 hvcurveto
          59 68 -48 hlineto
          110 callsubr
          174 67 -407 -67 140 hlineto
          -2 callgsubr
          82 74 34 51 45 vhcurveto
          endchar
        </CharString>
        <CharString name="dvGHA">
          86 471 61 callgsubr
          110 callsubr
          260 hlineto
          193 67 rmoveto
          -686 -67 140 hlineto
          -2 callgsubr
          93 76 43 50 38 vhcurveto
          -186 131 callgsubr
        </CharString>
        <CharString name="dvGH_MA">
          358 743 -30 callsubr
          -414 -236 rmoveto
          68 -48 vlineto
          110 callsubr
          244 -232 hlineto
          -25 -6 -17 -20 -27 vvcurveto
          -18 7 -22 9 -23 vhcurveto
          -45 -38 -61 -23 -60 hhcurveto
          -60 -61 25 62 60 47 33 74 hvcurveto
          666 303 rmoveto
          -958 -67 140 hlineto
          -2 callgsubr
          76 69 29 45 46 vhcurveto
          10 -23 rlineto
          156 callsubr
        </CharString>
        <CharString name="dvGH_NA">
          90 475 61 callgsubr
          -68 -58 23 59 38 20 28 37 20 hvcurveto
          259 hlineto
          193 67 rmoveto
          -690 -67 144 186 callsubr
          -69 58 -37 53 -6 vhcurveto
          -67 -10 -50 -45 -71 vvcurveto
          -86 66 -56 98 -10 vhcurveto
          -71 -40 rlineto
          -31 -20 -14 -21 -27 vvcurveto
          -49 50 -46 38 -21 vhcurveto
          51 34 rlineto
          -24 23 -27 30 26 vvcurveto
          14 6 12 16 9 vhcurveto
          167 106 32 17 26 22 18 23 rlinecurve
          -186 131 callgsubr
        </CharString>
        <CharString name="dvGH_R">
          -147 494 310 rmoveto
          -67 -31 -81 -84 -107 hhcurveto
          -59 -62 25 62 60 47 33 74 hvcurveto
          164 callgsubr
          214 67 -453 73 callgsubr
          110 hlineto
          314 272 rlineto
          endchar
        </CharString>
        <CharString name="dvGH_RA">
          91 476 330 rmoveto
          -91 -87 -80 -114 -59 -62 25 62 60 47 33 74 vhcurveto
          164 callgsubr
          259 hlineto
          193 67 rmoveto
          -691 73 callgsubr
          106 hlineto
          259 228 rlineto
          -183 131 callgsubr
        </CharString>
        <CharString name="dvGH_YA">
          424 808 -106 callsubr
          -479 -236 rmoveto
          68 -48 vlineto
          110 callsubr
          326 hlineto
          -90 callsubr
          6 -49 14 -41 20 -35 rrcurveto
          -51 -44 -58 -32 -73 hhcurveto
          -60 -61 25 62 60 47 33 74 hvcurveto
          731 303 rmoveto
          -1023 -67 140 hlineto
          -2 callgsubr
          95 72 41 59 51 vhcurveto
          -45 43 58 -23 63 -102 callsubr
        </CharString>
        <CharString name="dvG_BA">
          344 657 173 -32 callsubr
          -945 -67 173 -231 hlineto
          -96 callsubr
          501 -269 vlineto
          26 callgsubr
        </CharString>
        <CharString name="dvG_BHA">
          289 674 106 callgsubr
          -14 -14 -2 -3 -13 vhcurveto
          1 -348 -23 callgsubr
          69 -9 vlineto
          7 4 8 3 9 2 rrcurveto
          5 1 hlineto
          2 9 9 1 9 hhcurveto
          35 11 -21 -44 hvcurveto
          -170 80 callsubr
        </CharString>
        <CharString name="dvG_BH_YA">
          656 1041 35 callgsubr
          -416 67 rmoveto
          -67 145 vlineto
          -90 callsubr
          1 -7 1 -6 1 -7 rrcurveto
          -151 180 hlineto
          117 callgsubr
          -19 -18 -3 -5 -16 vhcurveto
          4 -348 -23 callgsubr
          81 -9 116 callgsubr
          19 -33 callsubr
          169 hlineto
          -102 40 84 -54 96 143 callgsubr
        </CharString>
        <CharString name="dvG_DA">
          300 758 63 callsubr
          -900 -23 callgsubr
          452 47 callgsubr
          52 callsubr
          hvcurveto
          -77 callsubr
          endchar
        </CharString>
        <CharString name="dvG_DHA">
          359 937 9 callsubr
          -591 -67 173 -231 hlineto
          -96 callsubr
          183 vlineto
          -28 callgsubr
          78 -70 130 93 68 45 48 31 vhcurveto
          -157 98 callgsubr
        </CharString>
        <CharString name="dvG_DH_VA">
          750 1328 -17 callgsubr
          -552 -67 358 -262 hlineto
          150 callsubr
          -68 -56 -88 callgsubr
          -16 -25 3 -22 hhcurveto
          -117 -81 -82 -109 -24 4 -22 6 -20 hvcurveto
          -51 -49 -64 -34 -83 -61 callsubr
          -626 -67 173 -231 hlineto
          -96 callsubr
          218 vlineto
          -20 callsubr
          102 78 42 50 55 vhcurveto
          -42 37 55 -23 58 hhcurveto
          107 callgsubr
          hvcurveto
          -166 -85 callgsubr
        </CharString>
        <CharString name="dvG_DH_YA">
          760 1144 334 -12 callgsubr
          -402 67 rmoveto
          -67 132 172 callgsubr
          -53 -46 57 callgsubr
          7 -59 19 -49 27 -37 rrcurveto
          -54 -50 -66 -37 -86 -61 callsubr
          -626 -67 173 -231 hlineto
          -96 callsubr
          218 vlineto
          -20 callsubr
          113 84 51 57 55 vhcurveto
          -31 40 48 -16 53 12 callsubr
          67 vlineto
          endchar
        </CharString>
        <CharString name="dvG_GA">
          322 900 -17 callgsubr
          -922 -67 173 -231 hlineto
          -96 callsubr
          227 -231 64 callsubr
        </CharString>
        <CharString name="dvG_GHA">
          376 762 61 callgsubr
          110 callsubr
          260 hlineto
          193 67 rmoveto
          -977 -67 173 -231 hlineto
          -96 callsubr
          181 vlineto
          -2 callgsubr
          93 76 43 50 38 vhcurveto
          -186 131 callgsubr
        </CharString>
        <CharString name="dvG_JA">
          406 984 -17 callgsubr
          -1006 -67 173 -231 hlineto
          -96 callsubr
          562 -124 -382 -67 vlineto
          -103 callsubr
          201 -384 54 callsubr
          hlineto
          endchar
        </CharString>
        <CharString name="dvG_LA">
          477 1054 -17 callgsubr
          -1076 -67 173 -231 hlineto
          -96 callsubr
          631 -113 vlineto
          6 -15 -21 5 -24 hhcurveto
          -75 -50 -106 callgsubr
          42 38 66 21 19 -6 -7 14 vhcurveto
          -396 189 callsubr
          vlineto
          endchar
        </CharString>
        <CharString name="dvG_MA">
          305 689 -30 callsubr
          193 67 rmoveto
          -904 -67 173 -231 hlineto
          -96 callsubr
          173 -232 vlineto
          -55 callsubr
          hlineto
          endchar
        </CharString>
        <CharString name="dvG_NA">
          26 189 callgsubr
          181 65 callsubr
          81 44 48 84 hvcurveto
          234 175 -333 vlineto
          -242 -147 rlineto
          -32 -20 -16 -19 -29 vvcurveto
          -49 58 -45 34 -20 vhcurveto
          50 34 rlineto
          -21 18 -34 31 27 vvcurveto
          11 6 10 12 8 vhcurveto
          185 111 rlineto
          -163 77 -35 callgsubr
        </CharString>
        <CharString name="dvG_NNA">
          498 642 348 -60 callgsubr
          434 67 rmoveto
          -1098 -67 173 -231 hlineto
          -96 callsubr
          153 -225 37 callsubr
        </CharString>
        <CharString name="dvG_N_YA">
          619 1003 -106 callsubr
          193 67 rmoveto
          -1218 -67 173 -231 hlineto
          -96 callsubr
          504 vlineto
          -11 callsubr
          -45 -34 -38 -69 -22 vhcurveto
          20 -28 -46 20 -70 hhcurveto
          -89 120 callgsubr
          25 vhcurveto
          58 hlineto
          59 26 -17 -11 11 hvcurveto
          -131 31 93 -70 109 -102 callsubr
        </CharString>
        <CharString name="dvG_R">
          30 callsubr
          endchar
        </CharString>
        <CharString name="dvG_RA">
          25 -22 642 24 callgsubr
        </CharString>
        <CharString name="dvG_R_YA">
          420 805 -106 callsubr
          193 67 rmoveto
          -1020 -67 180 -231 hlineto
          -79 callgsubr
          44 48 84 hvcurveto
          234 298 vlineto
          -90 callsubr
          3 -24 5 -23 7 -21 -371 -319 rcurveline
          110 hlineto
          294 250 rlineto
          -69 45 70 -36 78 -102 callsubr
        </CharString>
        <CharString name="dvG_SA">
          406 569 136 callsubr
          194 -242 vlineto
          193 309 rmoveto
          -1005 -67 173 -231 hlineto
          -96 callsubr
          290 -49 callgsubr
          168 -265 17 callsubr
        </CharString>
        <CharString name="dvG_VA">
          324 902 -17 callgsubr
          -924 -67 173 -231 hlineto
          -96 callsubr
          480 -262 vlineto
          -15 callgsubr
        </CharString>
        <CharString name="dvG_YA">
          380 765 -106 callsubr
          193 67 rmoveto
          -980 -67 173 -231 hlineto
          -96 callsubr
          266 vlineto
          -90 callsubr
          -158 21 100 -84 120 -102 callsubr
        </CharString>
        <CharString name="dvGx">
          -236 129 83 rmoveto
          -102 callgsubr
          213 559 rmoveto
          -364 -67 173 -231 hlineto
          -96 callsubr
          114 vlineto
          endchar
        </CharString>
        <CharString name="dvGxA">
          18 129 83 rmoveto
          -102 callgsubr
          -151 559 rmoveto
          -23 callgsubr
          175 -575 77 -35 callgsubr
        </CharString>
        <CharString name="dvGx_R">
          30 callsubr
          -104 -234 rmoveto
          -102 callgsubr
          endchar
        </CharString>
        <CharString name="dvGx_RA">
          25 309 -13 rmoveto
          -102 callgsubr
          -331 655 24 callgsubr
        </CharString>
        <CharString name="dvH">
          -90 549 247 rmoveto
          64 -261 vlineto
          -37 -32 -5 -9 -28 hvcurveto
          -22 11 -25 26 39 vvcurveto
          37 25 8 31 vhcurveto
          240 157 48 67 -510 -67 385 -92 -176 hlineto
          -69 -53 -34 -66 -61 37 -36 29 -18 hvcurveto
          -41 -30 -21 -43 -46 vvcurveto
          -94 82 -86 164 174 callgsubr
          vhcurveto
          67 vlineto
          -12 -43 -47 -6 -35 hhcurveto
          -121 -53 47 66 55 47 44 93 hvcurveto
          endchar
        </CharString>
        <CharString name="dvHA">
          45 callsubr
          -62 38 -35 29 -19 hvcurveto
          -42 -31 -21 -43 -44 vvcurveto
          -86 78 -94 168 174 callgsubr
          vhcurveto
          -72 callsubr
        </CharString>
        <CharString name="dvHA_mU">
          45 callsubr
          -62 38 -33 29 -19 hvcurveto
          -42 -31 -21 -44 -45 vvcurveto
          -93 67 -72 114 -9 vhcurveto
          16 -1 rlineto
          12 16 23 7 20 hhcurveto
          39 35 -14 -47 -41 -33 -35 -69 -61 -77 32 39 -51 hvcurveto
          -79 vlineto
          -34 47 77 -23 68 hhcurveto
          110 66 60 83 77 -58 47 -84 -27 -32 -10 -8 -16 hvcurveto
          -77 4 -35 45 59 vvcurveto
          51 47 51 93 68 29 -33 -40 -16 -4 -19 -10 -14 vhcurveto
          77 hlineto
          8 16 2 19 18 vvcurveto
          66 -49 68 -120 -37 -32 -5 -10 -28 vhcurveto
          -22 10 -25 25 38 vvcurveto
          37 25 8 31 vhcurveto
          endchar
        </CharString>
        <CharString name="dvHA_mUU">
          45 callsubr
          -60 35 -35 29 -19 hvcurveto
          -40 -30 -20 -43 -43 vvcurveto
          -66 41 -56 66 -21 vhcurveto
          -29 -23 -17 -34 -37 vvcurveto
          -89 68 -44 80 11 18 1 4 14 vhcurveto
          64 vlineto
          -4 -10 -10 -1 -13 hhcurveto
          -41 -40 20 47 41 30 27 46 109 46 -104 -113 hvcurveto
          73 hlineto
          93 -37 188 -190 vhcurveto
          -80 1 -57 41 64 vvcurveto
          48 41 47 89 75 32 -32 -41 -16 -3 -21 -11 -15 vhcurveto
          77 hlineto
          8 17 3 21 18 vvcurveto
          70 -56 64 -125 -34 -30 -5 -8 -25 vhcurveto
          -21 12 -23 25 37 vvcurveto
          37 25 8 31 vhcurveto
          endchar
        </CharString>
        <CharString name="dvHA_mvR">
          -52 389 106 callsubr
          137 67 -548 -67 333 -92 -134 vlineto
          -68 -54 -34 -66 -59 35 -34 28 -20 hvcurveto
          -42 -35 -21 -50 -49 vvcurveto
          -124 109 -78 158 31 31 4 8 32 vhcurveto
          63 vlineto
          -8 -31 -33 -3 -24 hhcurveto
          -136 -59 66 70 69 57 57 90 29 5 -10 -13 hvcurveto
          -29 -64 -31 -42 vvcurveto
          -51 50 -20 51 42 39 10 15 28 vhcurveto
          65 vlineto
          -19 -32 -35 -10 -30 hhcurveto
          -24 -13 6 15 hvcurveto
          25 67 34 47 vvcurveto
          40 -32 32 -77 -44 -37 -8 -13 -31 vhcurveto
          -19 13 -19 24 33 112 callsubr
          endchar
        </CharString>
        <CharString name="dvH_LA">
          30 473 106 callsubr
          135 67 -630 -67 418 -92 -205 184 callgsubr
          -49 -40 -27 -59 -69 vvcurveto
          -139 104 -100 168 23 28 2 4 18 vhcurveto
          65 vlineto
          -4 -15 -26 -3 -21 hhcurveto
          -133 -68 73 99 91 56 70 119 58 43 -17 -29 26 hvcurveto
          -7 hlineto
          -31 -28 -21 -27 -6 hvcurveto
          25 -7 -28 20 -38 hhcurveto
          -54 -37 -44 -63 -83 62 -43 80 hvcurveto
          7 7 1 6 hhcurveto
          50 vlineto
          -1 -5 -7 0 -6 hhcurveto
          -50 -34 25 51 33 13 23 23 28 10 -21 -30 hvcurveto
          -26 60 24 vlineto
          34 11 23 32 10 9 -2 -3 8 vhcurveto
          3 -13 1 -13 -14 vvcurveto
          -46 -10 -45 -15 -34 vhcurveto
          74 hlineto
          15 38 9 43 45 vvcurveto
          129 -99 76 -133 -47 -41 -8 -14 -34 vhcurveto
          -21 11 -23 26 36 112 callsubr
          endchar
        </CharString>
        <CharString name="dvH_MA">
          178 562 195 rmoveto
          -127 11 hlineto
          64 -48 50 -103 -31 -29 -5 -9 -25 vhcurveto
          -21 10 -24 20 37 112 callsubr
          205 157 147 hlineto
          70 callsubr
          -778 -67 359 -92 -139 hlineto
          -69 -54 -34 -66 -61 38 -30 29 -17 hvcurveto
          -43 -34 -24 -50 -60 vvcurveto
          -132 102 -102 158 27 30 3 6 25 vhcurveto
          65 vlineto
          -5 -22 -27 -3 -28 hhcurveto
          -120 -67 74 91 76 50 52 77 57 21 -23 -30 hvcurveto
          -9 vlineto
          -24 -6 -17 -19 -27 vvcurveto
          -27 25 -38 26 -44 vhcurveto
          67 94 127 -150 78 598 116 hlineto
          endchar
        </CharString>
        <CharString name="dvH_NA">
          42 470 106 callsubr
          151 67 -643 -67 414 -92 -202 vlineto
          -69 -53 -34 -66 -60 41 -41 31 -20 hvcurveto
          -55 -41 -26 -59 -64 vvcurveto
          -135 120 -96 155 35 22 0 11 42 vhcurveto
          65 vlineto
          -9 -29 -31 -3 -32 hhcurveto
          -122 -82 72 93 77 54 74 129 43 33 -9 -14 26 hvcurveto
          -130 -59 rlineto
          -35 -15 -18 -21 -29 vvcurveto
          -43 46 -47 26 -18 vhcurveto
          53 24 rlineto
          -24 25 -18 30 20 vvcurveto
          14 8 10 15 6 vhcurveto
          124 56 rlineto
          8 -15 4 -16 -15 vvcurveto
          -31 -7 -22 -6 -18 vhcurveto
          75 hlineto
          6 14 5 31 30 vvcurveto
          84 -70 93 -162 -48 -41 -7 -12 -34 vhcurveto
          -26 14 -26 29 37 vvcurveto
          37 25 8 31 vhcurveto
          endchar
        </CharString>
        <CharString name="dvH_NNA">
          35 356 135 rmoveto
          -44 -8 -19 -33 -33 -10 18 46 vhcurveto
          116 vlineto
          2 13 13 1 15 hhcurveto
          15 15 -1 -2 13 hvcurveto
          120 166 rmoveto
          157 138 67 -636 -67 420 -92 -204 vlineto
          -69 -54 -34 -66 -62 39 -36 29 -18 hvcurveto
          -49 -39 -27 -56 95 callgsubr
          56 22 47 49 27 hvcurveto
          -97 vlineto
          -85 38 -30 64 70 32 38 77 vhcurveto
          94 vlineto
          37 -23 19 -39 -50 185 callgsubr
          6 31 25 vvcurveto
          129 -99 72 -132 -45 -41 -8 -13 -34 vhcurveto
          -21 11 -24 26 37 112 callsubr
          endchar
        </CharString>
        <CharString name="dvH_RA">
          30 476 106 callsubr
          133 67 -631 -67 420 -92 -204 vlineto
          -69 -54 173 callgsubr
          -48 -38 -27 -57 95 callgsubr
          85 57 67 111 33 28 -5 -10 23 hvcurveto
          -173 -194 rlineto
          93 hlineto
          133 152 rlineto
          15 -21 7 -27 -32 185 callgsubr
          5 31 25 vvcurveto
          129 -98 72 -132 -44 -40 -7 -14 -33 vhcurveto
          -21 12 -23 26 36 112 callsubr
          endchar
        </CharString>
        <CharString name="dvH_VA">
          12 475 106 callsubr
          115 67 -612 -67 419 -92 -204 vlineto
          -69 -54 -34 -66 -61 38 -36 29 -18 hvcurveto
          -50 -40 -27 -59 -68 vvcurveto
          -135 103 -102 170 36 31 4 10 44 vhcurveto
          65 vlineto
          -9 -31 -38 -6 -33 hhcurveto
          -128 -76 64 104 87 56 72 112 86 45 -45 -62 13 hvcurveto
          -1 1 rlineto
          -59 -3 -46 -34 -49 hhcurveto
          -40 -25 17 33 35 28 17 30 13 12 -2 -4 10 hvcurveto
          53 vlineto
          5 -12 -15 3 -20 hhcurveto
          -64 -57 -42 -66 -62 48 -47 77 47 38 19 31 26 hvcurveto
          -4 -18 -5 -18 -4 -11 rrcurveto
          75 hlineto
          8 23 11 55 33 vvcurveto
          114 -72 96 -148 -44 -38 -7 -14 -33 vhcurveto
          -21 12 -23 26 36 112 callsubr
          endchar
        </CharString>
        <CharString name="dvH_YA">
          192 577 212 rmoveto
          -90 -58 -46 -67 -47 -37 22 32 -14 vhcurveto
          53 13 38 40 50 vvcurveto
          76 -64 33 -88 -38 -36 -8 -15 -32 vhcurveto
          -14 11 -11 17 26 112 callsubr
          201 157 158 hlineto
          193 67 rmoveto
          -792 -67 364 -92 -136 hlineto
          -69 -54 -34 -66 -52 27 -29 26 -18 hvcurveto
          -38 -35 -23 -50 -59 vvcurveto
          -146 120 -97 158 18 24 3 5 15 vhcurveto
          64 vlineto
          -3 -12 -23 -3 -17 hhcurveto
          -116 -89 74 100 88 64 56 85 43 23 -15 -33 -39 -39 -18 -65 -10 hvcurveto
          -102 17 83 -52 81 hhcurveto
          56 49 23 36 27 hvcurveto
          -94 77 598 116 vlineto
          endchar
        </CharString>
        <CharString name="dvI">
          -75 395 426 rmoveto
          149 108 67 -525 -67 338 -82 -83 vlineto
          19 callgsubr
        </CharString>
        <CharString name="dvII">
          -75 393 426 rmoveto
          149 110 67 -126 vlineto
          -18 20 -20 35 34 vvcurveto
          44 26 30 44 26 24 -7 -8 17 vhcurveto
          71 vlineto
          9 -19 -25 5 -27 hhcurveto
          -91 -54 -63 -75 -43 16 -32 17 -20 hvcurveto
          -315 -67 336 -82 -81 hlineto
          19 callgsubr
        </CharString>
        <CharString name="dvII_Anusvara">
          -44 405 575 rmoveto
          130 67 -143 hlineto
          -25 21 -29 44 52 vvcurveto
          58 39 42 51 24 22 -6 -8 16 vhcurveto
          71 vlineto
          9 -18 -26 5 -26 hhcurveto
          -97 -65 -71 -89 -55 25 -46 26 -27 hvcurveto
          -331 -67 348 -82 -93 hlineto
          -89 -70 -45 -89 -76 64 -52 80 -3 hvcurveto
          85 7 rlineto
          49 -1 29 -29 -44 vvcurveto
          -53 -40 -37 -54 -65 -56 42 55 -22 vhcurveto
          -70 -228 77 115 hlineto
          -31 35 51 -18 53 hhcurveto
          97 72 67 87 80 -48 59 -97 2 hvcurveto
          -85 -6 rlineto
          -45 1 -31 27 38 vvcurveto
          47 43 18 41 vhcurveto
          168 1 hlineto
          0 vlineto
          38 371 rmoveto
          -28 -20 -21 -28 -28 20 57 callsubr
        </CharString>
        <CharString name="dvJ">
          -134 444 -17 callgsubr
          -466 -67 466 hlineto
          101 -124 rmoveto
          -449 -67 hlineto
          -103 callsubr
          268 hlineto
          endchar
        </CharString>
        <CharString name="dvJA">
          94 189 callgsubr
          500 -124 -382 -67 vlineto
          -103 callsubr
          201 -384 92 callgsubr
        </CharString>
        <CharString name="dvJH">
          -18 649 316 rmoveto
          -367 hlineto
          -14 1 rlineto
          20 callgsubr
          141 154 67 -582 -49 callsubr
          226 hlineto
          endchar
        </CharString>
        <CharString name="dvJHA">
          203 282 316 rmoveto
          -14 1 rlineto
          20 callgsubr
          141 180 -259 hlineto
          195 326 rmoveto
          -803 -49 callsubr
          163 -252 131 callsubr
        </CharString>
        <CharString name="dvJH_MA">
          537 922 -30 callsubr
          -516 -141 rmoveto
          141 228 -232 vlineto
          -16 -4 -13 -9 -7 -14 rrcurveto
          -316 hlineto
          -14 1 rlineto
          -78 6 -36 10 41 vvcurveto
          40 34 20 58 vhcurveto
          869 208 rmoveto
          -1137 -49 callsubr
          176 hlineto
          5 -17 8 -18 7 -17 44 callsubr
        </CharString>
        <CharString name="dvJH_NA">
          300 314 318 rmoveto
          1 -7 -8 1 -8 hhcurveto
          -82 6 -41 13 40 vvcurveto
          37 35 19 58 vhcurveto
          179 140 252 -257 hlineto
          186 324 rmoveto
          -900 -67 384 -74 -106 hlineto
          -100 -67 -46 -78 -91 84 -27 105 -5 hvcurveto
          86 -5 25 -35 -45 vvcurveto
          -52 -43 -33 -55 -63 -58 40 56 -23 vhcurveto
          -71 -226 77 114 hlineto
          -31 36 55 -17 51 hhcurveto
          97 75 62 89 33 -8 28 -15 22 hvcurveto
          248 -39 hlineto
          -235 -209 rlineto
          -28 -24 -12 -25 -23 vvcurveto
          -43 39 -39 49 -22 vhcurveto
          49 31 rlineto
          -28 23 -25 25 25 vvcurveto
          13 7 12 15 15 vhcurveto
          169 155 rlineto
          -129 71 -42 callgsubr
        </CharString>
        <CharString name="dvJH_R">
          51 713 253 rmoveto
          64 -436 vlineto
          20 callgsubr
          1 hlineto
          2 -1 rlineto
          141 213 67 -652 -67 360 -74 -88 vlineto
          42 callgsubr
          274 -25 rmoveto
          -386 -355 rlineto
          107 hlineto
          324 297 rlineto
          endchar
        </CharString>
        <CharString name="dvJH_RA">
          287 277 317 rmoveto
          20 callgsubr
          1 hlineto
          2 -1 rlineto
          141 254 -258 vlineto
          194 325 rmoveto
          -887 -67 360 -74 -88 hlineto
          42 callgsubr
          240 -56 hlineto
          -352 -324 rlineto
          107 hlineto
          245 233 rlineto
          -106 -85 callgsubr
        </CharString>
        <CharString name="dvJH_YA">
          590 975 -106 callsubr
          -693 -259 rmoveto
          -14 1 rlineto
          20 callgsubr
          141 298 hlineto
          -90 callsubr
          2 -18 4 -17 4 -16 rrcurveto
          586 326 rmoveto
          -1190 -49 callsubr
          184 hlineto
          -83 44 76 -44 86 -102 callsubr
        </CharString>
        <CharString name="dvJ_BA">
          486 798 173 -32 callsubr
          -1086 -67 892 16 callsubr
          -62 -54 -21 -35 -39 hvcurveto
          12 -449 -67 vlineto
          -103 callsubr
          226 hlineto
          -14 -28 -8 -33 -36 55 callgsubr
        </CharString>
        <CharString name="dvJ_DA">
          422 880 63 callsubr
          -1014 -67 816 -101 -104 vlineto
          -60 -49 -15 -25 -36 hvcurveto
          17 -449 -67 vlineto
          -103 callsubr
          220 hlineto
          -21 -32 -10 -38 -42 vvcurveto
          52 callsubr
          vhcurveto
          -77 callsubr
          endchar
        </CharString>
        <CharString name="dvJ_DDA">
          375 809 171 callsubr
          -975 -67 753 -84 -99 vlineto
          -49 -44 -13 -27 -29 hvcurveto
          -414 -67 hlineto
          -103 callsubr
          197 hlineto
          -1 -8 -1 -8 -9 vvcurveto
          -87 67 -40 117 -5 vhcurveto
          -62 callgsubr
        </CharString>
        <CharString name="dvJ_JA">
          494 1072 -17 callgsubr
          -1094 -67 900 -124 -782 -67 hlineto
          -103 callsubr
          219 44 callgsubr
        </CharString>
        <CharString name="dvJ_JHA">
          613 693 316 rmoveto
          -14 1 rlineto
          20 callgsubr
          141 180 -259 hlineto
          195 326 rmoveto
          -1214 -67 760 -74 -86 hlineto
          -60 -49 -17 -33 -29 hvcurveto
          -418 -67 hlineto
          -103 callsubr
          209 hlineto
          -4 0 -4 -4 vvcurveto
          173 callsubr
          vhcurveto
          85 -6 33 -34 -46 vvcurveto
          -53 -37 -32 -56 -63 -60 169 callgsubr
          52 -18 56 hhcurveto
          100 67 65 87 34 -10 28 -19 23 hvcurveto
          163 -252 131 callsubr
        </CharString>
        <CharString name="dvJ_J_NYA">
          619 1213 -17 callgsubr
          -1235 -67 1025 -84 -324 hlineto
          -54 -46 -14 -26 -31 hvcurveto
          -452 -67 hlineto
          -103 callsubr
          234 hlineto
          -1 -7 -1 -7 -7 vvcurveto
          -77 61 -44 112 73 54 -13 -60 -52 -38 -37 -57 -65 -59 44 54 -22 vhcurveto
          48 callsubr
          hlineto
          endchar
        </CharString>
        <CharString name="dvJ_J_VA">
          838 1416 -17 callgsubr
          -1438 -67 1244 -61 callgsubr
          -46 -40 -13 -21 -32 hvcurveto
          12 -851 -67 vlineto
          -103 callsubr
          221 hlineto
          -103 callsubr
          216 hlineto
          -18 -29 -10 -35 -38 -68 callgsubr
        </CharString>
        <CharString name="dvJ_J_YA">
          895 1280 -106 callsubr
          193 67 rmoveto
          -1495 -67 1031 87 callgsubr
          -40 -27 -35 -56 -23 vhcurveto
          15 -14 -55 48 -116 hhcurveto
          -676 -67 hlineto
          -103 callsubr
          243 hlineto
          -91 callgsubr
          45 hhcurveto
          121 78 73 107 67 -27 68 callgsubr
          59 hlineto
          71 31 -16 -11 17 hvcurveto
          -152 23 99 -80 117 -102 callsubr
        </CharString>
        <CharString name="dvJ_KA">
          651 1229 174 callsubr
          -1251 -67 804 -305 vlineto
          -105 callgsubr
          -52 -47 -17 -30 -36 hvcurveto
          28 -449 -67 vlineto
          -103 callsubr
          234 hlineto
          -18 -29 -11 -36 -41 vvcurveto
          39 callsubr
          vhcurveto
          -89 callgsubr
        </CharString>
        <CharString name="dvJ_MA">
          443 827 -30 callsubr
          193 67 rmoveto
          -1042 -67 561 -124 -443 -67 hlineto
          -103 callsubr
          262 -41 hlineto
          -55 callsubr
          hlineto
          endchar
        </CharString>
        <CharString name="dvJ_NA">
          86 189 callgsubr
          492 -124 -381 -67 vlineto
          106 68 -45 -89 -76 -53 -41 -76 -44 -37 12 16 -31 hvcurveto
          -71 vlineto
          -14 126 callgsubr
          118 81 74 105 66 -28 46 -44 26 hvcurveto
          201 -217 hlineto
          -189 -121 rlineto
          -33 -21 -12 -24 -24 vvcurveto
          -50 53 -42 35 -18 vhcurveto
          51 34 rlineto
          -23 19 -29 25 28 vvcurveto
          14 6 10 13 9 vhcurveto
          128 84 rlineto
          -90 79 132 callgsubr
        </CharString>
        <CharString name="dvJ_NY">
          -43 535 -17 callgsubr
          -565 -67 565 hlineto
          173 -173 rmoveto
          67 -461 vlineto
          28 callgsubr
          endchar
        </CharString>
        <CharString name="dvJ_NYA">
          166 -30 -17 callgsubr
          -67 601 -84 -324 vlineto
          -98 -72 -45 -83 -77 61 -44 112 73 54 -13 -60 -52 -38 -37 -57 -65 -59 44 54 -22 hvcurveto
          48 callsubr
          67 hlineto
          endchar
        </CharString>
        <CharString name="dvJ_NY_YA">
          552 937 -106 callsubr
          193 67 rmoveto
          -1160 -67 696 87 callgsubr
          -41 -29 -35 -57 -23 vhcurveto
          45 -34 -61 37 -118 hhcurveto
          -151 hlineto
          28 callgsubr
          131 hlineto
          83 46 -11 -38 27 hvcurveto
          -149 25 97 -79 117 -102 callsubr
        </CharString>
        <CharString name="dvJ_R">
          176 callgsubr
          -374 -675 rmoveto
          109 hlineto
          350 299 -42 57 rlineto
          -433 195 rmoveto
          -14 callgsubr
          355 67 hlineto
          endchar
        </CharString>
        <CharString name="dvJ_RA">
          101 189 callgsubr
          508 -124 -382 -14 callgsubr
          198 -173 hlineto
          -366 -311 rlineto
          109 hlineto
          257 219 rlineto
          -119 78 132 callgsubr
        </CharString>
        <CharString name="dvJ_TA">
          454 1032 -17 callgsubr
          -1054 -67 860 -123 -104 hlineto
          -4 0 -634 -67 hlineto
          107 68 -44 -91 -76 -53 -43 -76 -44 -37 12 16 -31 hvcurveto
          -71 vlineto
          -14 53 callgsubr
          74 107 67 -27 46 -45 26 hvcurveto
          267 hlineto
          -38 -39 -19 -55 -62 84 callgsubr
          95 -384 54 callsubr
          hlineto
          endchar
        </CharString>
        <CharString name="dvJ_TTA">
          351 818 575 rmoveto
          111 67 -951 -67 762 77 callgsubr
          -23 -22 -3 -4 -21 hvcurveto
          -554 -67 hlineto
          -103 callsubr
          249 hlineto
          -36 -38 -21 -50 -58 -69 callsubr
        </CharString>
        <CharString name="dvJ_VA">
          440 1018 -17 callgsubr
          -1040 -67 846 -61 callgsubr
          -48 -41 -14 -23 -33 hvcurveto
          15 -449 -67 vlineto
          -103 callsubr
          220 hlineto
          -18 -29 -10 -35 -38 -68 callgsubr
        </CharString>
        <CharString name="dvJ_YA">
          454 838 95 callsubr
          70 callsubr
          -1054 -67 590 hlineto
          16 -19 14 -31 -39 vvcurveto
          -41 -28 -36 -58 -22 vhcurveto
          18 -17 -54 46 -118 hhcurveto
          -227 -67 hlineto
          -103 callsubr
          44 hlineto
          66 36 -17 -9 14 hvcurveto
          -152 23 98 -81 118 12 callsubr
          vlineto
          endchar
        </CharString>
        <CharString name="dvJx">
          -133 444 -17 callgsubr
          -466 -67 466 hlineto
          -290 -608 rmoveto
          -102 callgsubr
          391 484 rmoveto
          -449 -67 hlineto
          -103 callsubr
          268 hlineto
          endchar
        </CharString>
        <CharString name="dvJxA">
          94 154 -33 rmoveto
          -102 callgsubr
          -176 675 rmoveto
          -67 500 -124 -382 -67 vlineto
          -103 callsubr
          201 -384 92 callgsubr
        </CharString>
        <CharString name="dvJx_JxA">
          530 154 -33 rmoveto
          -102 callgsubr
          436 hmoveto
          -102 callgsubr
          518 675 rmoveto
          -1130 -67 936 -124 -818 -67 hlineto
          -103 callsubr
          255 44 callgsubr
        </CharString>
        <CharString name="dvJx_R">
          176 callgsubr
          18 -582 rmoveto
          -102 callgsubr
          -392 -93 rmoveto
          109 hlineto
          350 299 -42 57 rlineto
          -433 195 rmoveto
          -14 callgsubr
          355 67 hlineto
          endchar
        </CharString>
        <CharString name="dvJx_RA">
          101 404 -67 rmoveto
          -102 callgsubr
          -426 709 rmoveto
          -67 508 -124 -382 -14 callgsubr
          198 -173 hlineto
          -366 -311 rlineto
          109 hlineto
          257 219 rlineto
          -119 78 132 callgsubr
        </CharString>
        <CharString name="dvJx_YA">
          454 154 -33 rmoveto
          -102 callgsubr
          685 367 -33 callgsubr
          -92 -80 -59 54 72 -16 vhcurveto
          78 -104 callgsubr
          hlineto
          193 67 rmoveto
          -1054 -67 590 87 callgsubr
          -32 -18 -29 -36 -22 vhcurveto
          48 -449 -67 vlineto
          -103 callsubr
          228 hlineto
          -20 -7 -23 -6 -26 -4 rrcurveto
          -158 21 100 -84 120 -102 callsubr
        </CharString>
        <CharString name="dvK">
          -37 425 575 rmoveto
          116 67 -563 -70 callsubr
          51 45 57 36 29 -14 -23 19 vhcurveto
          55 54 rlineto
          30 -32 -46 18 -52 21 callsubr
          endchar
        </CharString>
        <CharString name="dvKA">
          215 793 174 callsubr
          -815 -67 368 -305 vlineto
          -63 -50 -45 -57 -68 -47 49 68 79 55 44 69 6 8 0 -1 5 vhcurveto
          66 vlineto
          2 -5 -9 1 -9 hhcurveto
          -108 -90 -72 -120 -108 75 -72 109 23 callgsubr
        </CharString>
        <CharString name="dvKH">
          27 535 282 -55 callgsubr
          320 67 -627 -67 228 -106 vlineto
          -67 callgsubr
          181 106 123 134 132 -86 60 -101 -47 callsubr
          endchar
        </CharString>
        <CharString name="dvKHA">
          223 801 -17 callgsubr
          -823 -67 242 -134 hlineto
          -60 -34 -37 -88 vhcurveto
          -67 -65 hlineto
          215 -279 -86 callgsubr
        </CharString>
        <CharString name="dvKH_KHA">
          794 1178 451 rmoveto
          27 -32 -41 176 callsubr
          18 150 callgsubr
          61 vlineto
          -8 -16 -14 -2 -15 hhcurveto
          -40 -30 28 44 44 31 40 58 74 136 callgsubr
          90 4 26 50 95 vvcurveto
          117 335 vlineto
          -893 hmoveto
          480 -106 hlineto
          -66 -6 -29 -70 vhcurveto
          -10 hlineto
          80 -27 -70 37 -79 -41 callsubr
          61 vlineto
          -99 callsubr
          1088 184 rmoveto
          -1395 -67 228 -106 hlineto
          -67 callgsubr
          137 93 70 92 38 hvcurveto
          -94 60 99 -68 129 hhcurveto
          99 74 38 57 46 hvcurveto
          -137 79 -89 callsubr
        </CharString>
        <CharString name="dvKH_MA">
          587 972 -30 callsubr
          -437 -293 -55 callgsubr
          399 -219 vlineto
          92 -21 -75 43 -85 -41 callsubr
          630 421 rmoveto
          -1187 -67 228 -106 hlineto
          -67 callgsubr
          134 93 68 89 39 hvcurveto
          25 -55 rlineto
          156 callsubr
        </CharString>
        <CharString name="dvKH_NA">
          236 620 450 rmoveto
          28 -32 -42 13 -43 -41 callsubr
          61 vlineto
          -8 -16 -15 -2 -14 hhcurveto
          -40 -30 28 44 44 31 40 57 75 136 callgsubr
          89 4 27 50 95 vvcurveto
          117 335 56 callsubr
          -836 -67 228 -106 hlineto
          -66 -6 -29 -69 vhcurveto
          -66 -65 hlineto
          37 -122 90 -107 132 -30 -124 -53 rcurveline
          -44 -16 -18 -24 -31 vvcurveto
          -46 38 -47 25 -22 vhcurveto
          58 18 rlineto
          -18 26 -19 36 23 vvcurveto
          15 8 9 16 7 vhcurveto
          281 122 rlineto
          0 vlineto
          38 17 31 24 24 30 rrcurveto
          -138 -85 callgsubr
        </CharString>
        <CharString name="dvKH_R">
          14 526 284 -22 callsubr
        </CharString>
        <CharString name="dvKH_RA">
          227 611 450 -40 callsubr
          -827 -67 220 -104 hlineto
          -67 -6 -28 -69 vhcurveto
          -66 -65 hlineto
          13 callsubr
        </CharString>
        <CharString name="dvKH_SHA">
          729 780 442 rmoveto
          -81 callsubr
          -57 hlineto
          115 -10 -81 53 -95 -41 callsubr
          61 vlineto
          -54 callsubr
          320 67 -627 -67 228 -106 vlineto
          -67 callgsubr
          144 96 78 99 34 hvcurveto
          191 -219 -6 callsubr
          409 200 rmoveto
          -642 79 -35 callgsubr
        </CharString>
        <CharString name="dvKH_TA">
          584 968 452 rmoveto
          -104 hlineto
          -86 -62 -25 -42 -41 hvcurveto
          72 -29 -67 34 -76 -41 callsubr
          61 vlineto
          -54 callsubr
          683 56 callsubr
          -1184 -67 228 -106 hlineto
          -67 callgsubr
          102 78 39 57 48 hvcurveto
          -83 29 71 -55 102 hhcurveto
          12 10 1 1 8 hvcurveto
          -83 callgsubr
        </CharString>
        <CharString name="dvKH_VA">
          590 974 313 rmoveto
          -100 callsubr
          -64 -54 -25 -40 -35 hvcurveto
          56 -33 -61 27 -67 -41 callsubr
          61 vlineto
          -54 callsubr
          689 56 callsubr
          -1190 -67 228 -106 hlineto
          -67 callgsubr
          119 86 53 74 45 hvcurveto
          -51 37 61 -27 63 hhcurveto
          107 callgsubr
          hvcurveto
          -166 -85 callgsubr
        </CharString>
        <CharString name="dvKH_YA">
          630 1015 -106 callsubr
          -480 -293 -55 callgsubr
          459 vlineto
          -11 callsubr
          -44 -33 -37 -66 -23 vhcurveto
          74 -28 -68 35 -77 -41 callsubr
          673 421 rmoveto
          -1230 -67 228 -106 hlineto
          -67 callgsubr
          140 95 73 95 36 hvcurveto
          -56 45 63 -29 71 -102 callsubr
        </CharString>
        <CharString name="dvKHx">
          25 84 47 rmoveto
          -102 callgsubr
          451 235 -55 callgsubr
          320 67 -627 -67 228 -106 vlineto
          -67 callgsubr
          181 106 123 134 132 -86 60 -101 -47 callsubr
          endchar
        </CharString>
        <CharString name="dvKHxA">
          223 74 19 rmoveto
          -102 callgsubr
          727 623 rmoveto
          -823 -67 242 -134 hlineto
          -60 -34 -37 -88 vhcurveto
          -67 -65 hlineto
          215 -279 -86 callgsubr
        </CharString>
        <CharString name="dvKHx_MA">
          577 84 47 rmoveto
          -102 callgsubr
          878 299 rmoveto
          -210 229 210 hlineto
          -677 hmoveto
          389 -188 hlineto
          71 -29 -67 33 -75 -41 callsubr
          61 vlineto
          -99 callsubr
          870 184 rmoveto
          -1177 -67 228 -106 hlineto
          -67 callgsubr
          129 91 62 84 41 hvcurveto
          20 -44 rlineto
          156 callsubr
        </CharString>
        <CharString name="dvKHx_R">
          14 535 -71 rmoveto
          -102 callgsubr
          -9 355 -22 callsubr
        </CharString>
        <CharString name="dvKHx_RA">
          227 528 -28 rmoveto
          -102 callgsubr
          83 478 -40 callsubr
          -827 -67 220 -104 hlineto
          -67 -6 -28 -69 vhcurveto
          -66 -65 hlineto
          13 callsubr
        </CharString>
        <CharString name="dvKHx_SA">
          680 84 47 rmoveto
          -102 callgsubr
          760 286 rmoveto
          -78 callsubr
          194 -242 vlineto
          -780 242 rmoveto
          508 97 callgsubr
          -9 hlineto
          101 -17 -77 46 -89 -41 callsubr
          61 vlineto
          -99 callsubr
          973 184 rmoveto
          -1280 -67 228 -106 hlineto
          -67 callgsubr
          141 95 75 96 36 hvcurveto
          141 -213 rlineto
          95 hlineto
          -184 274 rlineto
          -5 33 53 -4 84 hhcurveto
          168 -265 17 callsubr
        </CharString>
        <CharString name="dvKHx_SHA">
          712 84 47 rmoveto
          -102 callgsubr
          680 395 rmoveto
          -81 callsubr
          -41 hlineto
          115 -10 -81 53 -95 -41 callsubr
          61 vlineto
          -54 callsubr
          320 67 -627 -67 228 -106 vlineto
          -67 callgsubr
          138 94 71 93 37 hvcurveto
          180 -206 -6 callsubr
          409 200 rmoveto
          -642 79 -35 callgsubr
        </CharString>
        <CharString name="dvKHx_TA">
          589 84 47 rmoveto
          -102 callgsubr
          890 405 rmoveto
          -104 hlineto
          -89 -64 -27 -44 -41 hvcurveto
          75 -28 -68 35 -77 -41 callsubr
          61 vlineto
          -54 callsubr
          689 56 callsubr
          -1190 -67 228 -106 hlineto
          -67 callgsubr
          105 79 41 61 49 hvcurveto
          -86 27 72 -58 104 hhcurveto
          12 10 1 1 8 hvcurveto
          -83 callgsubr
        </CharString>
        <CharString name="dvKHx_VA">
          594 84 47 rmoveto
          -102 callgsubr
          894 266 rmoveto
          -100 callsubr
          -66 -54 -26 -42 -35 hvcurveto
          58 -33 -62 28 -68 -41 callsubr
          61 vlineto
          -54 callsubr
          693 56 callsubr
          -1194 -67 228 -106 hlineto
          -67 callgsubr
          120 87 54 76 45 hvcurveto
          -53 36 62 -28 65 hhcurveto
          107 callgsubr
          hvcurveto
          -166 -85 callgsubr
        </CharString>
        <CharString name="dvKHx_YA">
          640 84 47 rmoveto
          -102 callgsubr
          941 287 -33 callgsubr
          -92 -80 -59 54 72 -16 vhcurveto
          78 -104 callgsubr
          hlineto
          -490 -293 -55 callgsubr
          469 vlineto
          -11 callsubr
          -46 -36 -39 -72 -22 vhcurveto
          77 -28 -68 35 -78 -41 callsubr
          683 421 rmoveto
          -1240 -67 228 -106 hlineto
          -67 callgsubr
          144 97 78 99 33 hvcurveto
          -62 45 67 -32 74 -102 callsubr
        </CharString>
        <CharString name="dvK_CA">
          575 959 322 rmoveto
          -77 -57 -86 -116 -69 -50 35 67 161 callsubr
          vhcurveto
          68 -250 vlineto
          19 -26 -30 11 -37 hhcurveto
          -44 -33 -15 -26 -22 hvcurveto
          136 534 161 callgsubr
          -1176 -70 callsubr
          31 45 58 33 19 -12 -21 18 vhcurveto
          82 hlineto
          -47 -24 -29 -43 -58 vvcurveto
          -103 82 -60 105 vhcurveto
          93 2 60 41 29 46 rrcurveto
          -183 79 -89 callsubr
        </CharString>
        <CharString name="dvK_DA">
          492 425 575 rmoveto
          423 -84 -99 hlineto
          -45 -40 -11 -22 -29 hvcurveto
          14 -27 -32 8 -34 21 callsubr
          501 -8 78 callsubr
          -1092 -67 368 -305 vlineto
          -107 callgsubr
          51 45 57 24 20 -6 -11 17 vhcurveto
          -3 -12 -2 -13 -14 vvcurveto
          -87 67 -40 117 -5 vhcurveto
          -62 callgsubr
        </CharString>
        <CharString name="dvK_JA">
          609 647 451 rmoveto
          18 -29 -36 11 -40 4 callsubr
          568 -124 vlineto
          194 191 rmoveto
          -1209 -70 callsubr
          51 45 57 32 27 -11 -19 19 vhcurveto
          -1 1 vlineto
          5 -6 6 6 rlineto
          100 -3 63 -45 -88 -48 callgsubr
        </CharString>
        <CharString name="dvK_KA">
          725 855 270 rmoveto
          -105 callgsubr
          -36 -34 -8 -15 -29 hvcurveto
          21 -31 -38 12 -43 4 callsubr
          430 vlineto
          447 hmoveto
          67 -1324 -67 368 -305 vlineto
          -107 callgsubr
          51 45 57 24 20 -6 -11 17 vhcurveto
          -24 -31 -15 -41 -48 vvcurveto
          39 callsubr
          vhcurveto
          -89 callgsubr
        </CharString>
        <CharString name="dvK_KHA">
          799 796 441 rmoveto
          -59 -32 -36 -84 -2 vhcurveto
          83 -9 -64 53 -76 hhcurveto
          -45 -36 -17 -28 -25 hvcurveto
          140 371 vlineto
          581 67 rmoveto
          -1399 -67 368 -305 hlineto
          -107 callsubr
          63 46 44 55 51 29 -38 -49 1 vhcurveto
          -49 vlineto
          215 -279 -86 callgsubr
        </CharString>
        <CharString name="dvK_LA">
          705 1088 462 rmoveto
          -41 callgsubr
          -36 -31 -10 -18 -26 hvcurveto
          25 -31 -42 14 -46 4 callsubr
          663 161 callgsubr
          -1305 -70 callsubr
          51 45 57 32 27 -11 -19 19 vhcurveto
          -19 -34 -10 -41 -47 vvcurveto
          -86 callsubr
        </CharString>
        <CharString name="dvK_MA">
          528 913 -30 callsubr
          -488 hmoveto
          200 -112 hlineto
          11 -25 -28 6 -30 21 callsubr
          681 210 rmoveto
          -1128 -70 callsubr
          51 45 57 36 29 -14 -23 19 vhcurveto
          8 8 rlineto
          -43 vlineto
          -55 callsubr
          hlineto
          endchar
        </CharString>
        <CharString name="dvK_NA">
          227 804 174 callsubr
          -826 -67 380 -303 vlineto
          90 callsubr
          48 67 79 54 44 69 6 9 70 callgsubr
          -6 -9 1 -8 hhcurveto
          -109 -90 -72 -119 -91 53 -64 81 -19 hvcurveto
          -71 -48 rlineto
          -31 -21 -14 -23 -23 vvcurveto
          -50 60 -45 37 -19 vhcurveto
          48 36 rlineto
          -23 20 -36 32 27 vvcurveto
          9 5 9 11 8 vhcurveto
          158 110 rlineto
          -1 hlineto
          9 6 8 7 7 8 rrcurveto
          -148 78 53 callsubr
          68 47 -49 -67 -79 -55 -45 -9 callgsubr
          -1 6 9 -1 8 hhcurveto
          109 90 71 120 108 -75 73 -109 27 callsubr
          vlineto
          endchar
        </CharString>
        <CharString name="dvK_NNA">
          732 876 348 -60 callgsubr
          -451 hmoveto
          190 -108 hlineto
          8 -22 -25 5 -26 21 callsubr
          885 210 rmoveto
          -1332 -70 callsubr
          51 45 57 35 28 -13 -22 19 vhcurveto
          -30 37 callsubr
        </CharString>
        <CharString name="dvK_PA">
          535 919 -38 callsubr
          -494 hmoveto
          181 -105 hlineto
          7 -20 -21 3 -23 21 callsubr
          688 210 rmoveto
          -1135 -70 callsubr
          51 45 57 30 25 -9 -17 18 vhcurveto
          -14 vlineto
          47 callsubr
        </CharString>
        <CharString name="dvK_PHA">
          773 919 -19 callsubr
          -494 hmoveto
          181 -105 hlineto
          7 -20 -21 3 -23 21 callsubr
          926 143 rmoveto
          67 -1373 -67 368 -305 vlineto
          -107 callgsubr
          51 45 57 30 25 -9 -17 18 vhcurveto
          -18 vlineto
          -141 65 -51 115 vhcurveto
          -103 callgsubr
        </CharString>
        <CharString name="dvK_P_RA">
          539 923 -31 callsubr
          -498 hmoveto
          185 -106 hlineto
          7 -21 -23 4 -24 21 callsubr
          692 210 rmoveto
          -1139 -70 callsubr
          51 45 57 32 26 -11 -18 19 vhcurveto
          2 -125 56 -56 94 -9 -25 callgsubr
        </CharString>
        <CharString name="dvK_R">
          -23 433 575 rmoveto
          122 67 -577 -67 376 -305 hlineto
          -54 callgsubr
          36 29 -14 -23 20 vhcurveto
          54 54 rlineto
          30 -32 -46 18 -52 hhcurveto
          160 callsubr
          endchar
        </CharString>
        <CharString name="dvK_RA">
          222 800 174 callsubr
          -822 -67 376 -305 vlineto
          -63 -51 -45 -57 -68 -46 49 68 79 54 44 69 6 9 0 -1 5 vhcurveto
          66 vlineto
          2 -6 -9 1 -8 hhcurveto
          -109 -90 -72 -120 -102 69 -69 96 -7 hvcurveto
          -140 -145 rlineto
          -29 callgsubr
        </CharString>
        <CharString name="dvK_SA">
          674 838 136 callsubr
          194 -242 vlineto
          -634 242 rmoveto
          362 -137 hlineto
          -57 -16 -34 -71 -3 vhcurveto
          102 -23 -72 34 -71 187 callgsubr
          827 207 rmoveto
          -1274 -70 callsubr
          43 45 58 50 39 -26 -56 8 vhcurveto
          -51 -24 callsubr
        </CharString>
        <CharString name="dvK_SHA">
          664 425 575 rmoveto
          116 67 -563 -70 callsubr
          51 45 57 36 29 -14 -23 19 vhcurveto
          55 54 -4 3 -4 4 -4 3 rlinecurve
          56 hlineto
          -85 callsubr
          33 hlineto
          111 115 71 143 93 -62 80 -103 -93 -52 -65 -72 -15 2 -16 4 -15 hvcurveto
          13 -26 -31 7 -33 21 callsubr
          623 210 rmoveto
          -642 79 -35 callgsubr
        </CharString>
        <CharString name="dvK_SS">
          -25 271 583 -57 callgsubr
          376 -258 rmoveto
          64 -268 vlineto
          -97 callgsubr
          endchar
        </CharString>
        <CharString name="dvK_SSA">
          195 271 583 -57 callgsubr
          309 59 rmoveto
          -253 -201 vlineto
          -97 callgsubr
          248 hlineto
          1 -325 rlineto
          79 67 callgsubr
        </CharString>
        <CharString name="dvK_SS_MA">
          526 910 -30 callsubr
          -639 8 -57 callgsubr
          216 59 rmoveto
          -67 135 -186 -243 vlineto
          -97 callgsubr
          260 hlineto
          -8 -9 -4 -12 -14 -31 callgsubr
          67 hlineto
          endchar
        </CharString>
        <CharString name="dvK_SS_M_YA">
          898 1282 -106 callsubr
          -590 139 callsubr
          319 vlineto
          -90 callsubr
          1 -7 1 -6 1 -7 rrcurveto
          -611 236 -57 callgsubr
          1204 59 rmoveto
          -996 -67 135 -186 -235 hlineto
          -97 callgsubr
          252 hlineto
          -8 -10 -4 -12 -14 170 callgsubr
          210 hlineto
          -100 41 82 -53 95 -102 callsubr
        </CharString>
        <CharString name="dvK_SS_VA">
          516 271 583 -57 callgsubr
          823 59 rmoveto
          -584 -67 390 -262 hlineto
          -80 -53 -78 -98 -69 -56 49 79 74 55 48 69 22 19 -3 -6 18 158 callgsubr
          -73 -60 -33 -51 -34 hvcurveto
          -197 hlineto
          -97 callgsubr
          217 hlineto
          -2 -14 -2 -14 -15 -68 callgsubr
        </CharString>
        <CharString name="dvK_SS_YA">
          540 924 334 -12 callgsubr
          -653 8 -57 callgsubr
          233 59 rmoveto
          -67 150 vlineto
          15 -65 callsubr
          -40 -26 -34 -54 -23 vhcurveto
          -225 hlineto
          -97 callgsubr
          198 hlineto
          -131 31 92 -69 109 12 callsubr
          67 vlineto
          endchar
        </CharString>
        <CharString name="dvK_S_DDA">
          485 271 583 -57 callgsubr
          649 -159 78 callsubr
          -565 -67 343 -84 -99 vlineto
          -78 -65 -33 -69 -14 hvcurveto
          -207 hlineto
          -97 callgsubr
          255 hlineto
          16 -64 63 -30 101 -4 rrcurveto
          -62 callgsubr
        </CharString>
        <CharString name="dvK_S_P_LA">
          1419 1801 462 rmoveto
          -41 callgsubr
          -95 -63 -71 -100 -12 hvcurveto
          -36 -31 -43 -22 -47 67 callsubr
          201 731 vlineto
          -997 -242 rmoveto
          -78 callsubr
          160 -200 vlineto
          -15 1 -14 1 -13 vhcurveto
          -568 103 callgsubr
          1571 210 rmoveto
          -2018 -70 callsubr
          52 45 57 34 52 -9 -62 20 vhcurveto
          -51 -62 hlineto
          -101 callsubr
          153 hlineto
          -62 28 55 -27 78 hhcurveto
          50 43 16 24 34 hvcurveto
          -125 18 88 -91 131 -65 callgsubr
        </CharString>
        <CharString name="dvK_S_P_RA">
          943 1327 -31 callsubr
          -523 -242 rmoveto
          -78 callsubr
          183 -182 vlineto
          -22 2 -20 3 -18 vhcurveto
          -594 103 callgsubr
          1096 210 rmoveto
          -1543 -70 callsubr
          52 45 57 34 52 -9 -62 20 vhcurveto
          -51 -62 hlineto
          -101 callsubr
          186 hlineto
          25 -42 43 -22 55 -5 -25 callgsubr
        </CharString>
        <CharString name="dvK_S_TA">
          530 271 583 -57 callgsubr
          837 59 rmoveto
          -586 -67 392 -123 -104 hlineto
          -83 -62 -24 -39 -41 hvcurveto
          -245 hlineto
          -97 callgsubr
          249 hlineto
          -12 -29 -6 -32 -35 vvcurveto
          -45 callsubr
          12 11 1 1 7 vhcurveto
          179 callgsubr
          66 callgsubr
          hvcurveto
          94 -52 callsubr
        </CharString>
        <CharString name="dvK_S_TTA">
          443 271 583 -57 callgsubr
          640 -8 rmoveto
          110 67 -519 -67 330 77 callgsubr
          -76 -1 -65 -25 -44 -43 rrcurveto
          -244 hlineto
          -97 callgsubr
          246 hlineto
          -11 -26 -6 -29 -32 vvcurveto
          -137 106 -79 149 55 60 16 16 30 vhcurveto
          72 vlineto
          -18 -30 -59 -20 -53 193 callsubr
          22 29 -2 -3 20 hvcurveto
          endchar
        </CharString>
        <CharString name="dvK_TA">
          351 929 174 callsubr
          -951 -67 473 -127 -377 -69 60 vlineto
          19 17 0 1 17 hvcurveto
          -51 -37 -21 -58 -66 vvcurveto
          -134 86 -83 131 11 11 1 1 7 vhcurveto
          68 vlineto
          -1 -5 -11 -1 -6 hhcurveto
          -96 -48 59 92 105 60 55 120 hvcurveto
          76 -381 78 271 hlineto
          64 59 46 62 77 59 -55 -89 -101 -53 -49 -76 -7 -11 1 1 -6 vhcurveto
          -67 vlineto
          -2 6 13 -1 8 hhcurveto
          118 87 86 133 117 -82 90 -124 -54 -46 -18 -31 -30 hvcurveto
          179 vlineto
          endchar
        </CharString>
        <CharString name="dvK_THA">
          662 1046 642 84 callsubr
          -32 8 -15 3 -11 vhcurveto
          77 hlineto
          -3 10 -8 10 146 callgsubr
          72 -16 -52 49 -76 187 callgsubr
          140 146 67 -593 -67 368 -305 vlineto
          -107 callgsubr
          43 45 57 46 26 -29 -44 10 vhcurveto
          -1 hlineto
          -163 17 113 -71 120 hhcurveto
          96 46 callsubr
          114 67 vlineto
          endchar
        </CharString>
        <CharString name="dvK_TTA">
          453 425 575 rmoveto
          418 77 callgsubr
          -53 -48 -13 -22 -39 hvcurveto
          37 -33 -49 20 -55 21 callsubr
          496 143 rmoveto
          111 67 -1054 -70 callsubr
          51 45 57 37 28 -12 -27 23 vhcurveto
          -31 -37 -18 -47 -54 -69 callsubr
        </CharString>
        <CharString name="dvK_T_RA">
          521 905 376 rmoveto
          58 -45 -67 31 -75 hhcurveto
          -28 -27 -3 -6 -24 hvcurveto
          15 -28 -33 9 -36 4 callsubr
          480 161 callgsubr
          -1122 -70 callsubr
          51 45 57 13 11 -2 -3 11 vhcurveto
          -53 vlineto
          14 7 16 8 19 7 rrcurveto
          -1 vlineto
          1 1 rlineto
          10 29 34 8 36 hhcurveto
          77 -2 57 -43 31 -59 -295 -184 rcurveline
          89 callsubr
        </CharString>
        <CharString name="dvK_T_VA">
          868 1253 313 rmoveto
          -100 callsubr
          -35 -33 -8 -13 -27 hvcurveto
          -196 hlineto
          -52 -43 -9 -16 -35 hvcurveto
          37 -34 -49 16 -50 4 callsubr
          828 56 callsubr
          -1469 -70 callsubr
          51 45 57 31 27 -12 -20 22 vhcurveto
          -37 -40 -18 -53 -61 84 callgsubr
          112 hlineto
          -18 -29 -10 -35 -38 -68 callgsubr
        </CharString>
        <CharString name="dvK_T_YA">
          832 1221 -106 callsubr
          -796 hmoveto
          525 87 callgsubr
          -31 -17 -28 -33 -22 vhcurveto
          20 -24 -44 27 -67 hhcurveto
          -48 -41 -8 -15 -34 hvcurveto
          36 -37 -41 15 -53 21 callsubr
          989 210 rmoveto
          -1436 -70 callsubr
          51 45 57 30 28 -11 -18 19 vhcurveto
          -39 -39 -19 -55 -63 vvcurveto
          -45 callsubr
          11 11 146 callsubr
          65 53 96 23 19 -5 -6 15 hvcurveto
          -10 -2 -10 -2 -11 -2 rrcurveto
          -158 21 100 -84 120 -102 callsubr
        </CharString>
        <CharString name="dvK_VA">
          537 922 313 rmoveto
          -100 callsubr
          -41 -37 -10 -18 -30 hvcurveto
          22 -30 -40 13 -44 4 callsubr
          496 56 callsubr
          -1137 -70 callsubr
          51 45 57 27 23 -8 -13 17 vhcurveto
          -22 -31 -12 -38 -43 -68 callgsubr
        </CharString>
        <CharString name="dvK_V_YA">
          867 1251 -106 callsubr
          -422 -110 rmoveto
          5 -16 -25 3 -22 hhcurveto
          -42 -37 -10 -19 -30 hvcurveto
          23 -31 -40 13 -44 4 callsubr
          555 vlineto
          -90 callsubr
          9 -67 23 -54 33 -40 rrcurveto
          -30 -32 -40 -21 -56 154 callgsubr
          615 246 rmoveto
          -1466 -70 callsubr
          51 45 57 27 24 -8 -14 18 vhcurveto
          -22 -31 -12 -38 -42 vvcurveto
          143 callsubr
          81 61 33 40 39 vhcurveto
          -26 38 44 -13 48 -102 callsubr
        </CharString>
        <CharString name="dvK_YA">
          618 1003 -106 callsubr
          -578 hmoveto
          307 87 callgsubr
          -42 -31 -37 -61 -22 vhcurveto
          57 -22 -49 38 -66 187 callgsubr
          771 207 rmoveto
          -1218 -70 callsubr
          43 45 57 38 25 -20 -32 13 vhcurveto
          -155 22 99 -83 119 -102 callsubr
        </CharString>
        <CharString name="dvKx">
          -29 -10 callgsubr
          271 562 rmoveto
          116 67 -563 -70 callsubr
          51 45 57 36 29 -14 -23 19 vhcurveto
          55 54 rlineto
          30 -32 -46 18 -52 21 callsubr
          endchar
        </CharString>
        <CharString name="dvKxA">
          215 -10 callgsubr
          639 562 rmoveto
          67 -815 -67 368 -305 vlineto
          -63 -50 -45 -57 -68 -47 49 68 79 55 44 69 6 8 0 -1 5 vhcurveto
          66 vlineto
          2 -5 -9 1 -9 hhcurveto
          -108 -90 -72 -120 -108 75 -72 109 23 callgsubr
        </CharString>
        <CharString name="dvKx_BA">
          580 -10 callgsubr
          810 293 rmoveto
          -66 callsubr
          -56 -50 -17 -29 -37 hvcurveto
          20 -30 -38 11 -41 4 callsubr
          539 vlineto
          -72 -402 -32 callsubr
          -1180 -70 callsubr
          51 45 57 28 23 -8 -14 18 vhcurveto
          -17 -31 -10 -35 -40 55 callgsubr
        </CharString>
        <CharString name="dvKx_KxA">
          744 280 -16 callgsubr
          285 hmoveto
          -102 callgsubr
          309 257 rmoveto
          -105 callgsubr
          -41 -38 -10 -19 -31 hvcurveto
          24 -31 -42 15 -47 4 callsubr
          449 vlineto
          447 hmoveto
          67 -1343 -67 368 -305 vlineto
          -107 callgsubr
          51 45 57 30 25 -10 -16 18 vhcurveto
          -20 -30 -12 -37 -44 vvcurveto
          39 callsubr
          vhcurveto
          -89 callgsubr
        </CharString>
        <CharString name="dvKx_MA">
          528 -10 callgsubr
          758 333 rmoveto
          -210 229 210 hlineto
          -487 hmoveto
          199 -112 hlineto
          11 -24 -28 6 -30 21 callsubr
          680 210 rmoveto
          -1127 -70 callsubr
          51 45 57 36 29 -14 -23 19 vhcurveto
          7 7 rlineto
          -42 vlineto
          -55 callsubr
          hlineto
          endchar
        </CharString>
        <CharString name="dvKx_PHA">
          771 -10 callgsubr
          763 369 rmoveto
          -60 callsubr
          201 234 vlineto
          -492 hmoveto
          179 -104 hlineto
          6 -19 -21 3 -22 21 callsubr
          924 143 rmoveto
          67 -1371 -67 368 -305 vlineto
          -107 callgsubr
          51 45 57 29 24 -9 -15 18 vhcurveto
          -20 vlineto
          -141 65 -51 115 vhcurveto
          -103 callgsubr
        </CharString>
        <CharString name="dvKx_PHxA">
          774 -10 callgsubr
          525 54 rmoveto
          -102 callgsubr
          241 315 rmoveto
          -60 callsubr
          201 234 vlineto
          -495 hmoveto
          182 -105 hlineto
          6 -20 -22 4 -23 21 callsubr
          927 143 rmoveto
          67 -1374 -67 368 -305 vlineto
          -107 callgsubr
          51 45 57 30 25 -10 -17 19 vhcurveto
          -17 vlineto
          -141 65 -51 115 vhcurveto
          -103 callgsubr
        </CharString>
        <CharString name="dvKx_R">
          -23 287 -75 rmoveto
          -102 callgsubr
          146 650 rmoveto
          122 67 -577 -67 376 -305 hlineto
          -54 callgsubr
          36 29 -14 -23 20 vhcurveto
          54 54 rlineto
          30 -32 -46 18 -52 hhcurveto
          160 callsubr
          endchar
        </CharString>
        <CharString name="dvKx_RA">
          222 284 -26 rmoveto
          -102 callgsubr
          516 601 rmoveto
          67 -822 -67 376 -305 vlineto
          -63 -51 -45 -57 -68 -46 49 68 79 54 44 69 6 9 0 -1 5 vhcurveto
          66 vlineto
          2 -6 -9 1 -8 hhcurveto
          -109 -90 -72 -120 -102 69 -69 96 -7 hvcurveto
          -140 -145 rlineto
          -29 callgsubr
        </CharString>
        <CharString name="dvKx_TA">
          547 -10 callgsubr
          777 439 rmoveto
          -104 hlineto
          -58 -48 -12 -20 -37 hvcurveto
          34 -35 -44 26 -63 4 callsubr
          506 56 callsubr
          -1147 -70 callsubr
          51 45 57 39 29 -15 -28 25 vhcurveto
          -31 -38 -15 -50 -55 84 callgsubr
          95 -384 54 callsubr
          hlineto
          endchar
        </CharString>
        <CharString name="dvL">
          -78 333 68 rmoveto
          -2 -10 -11 0 -6 hhcurveto
          -120 -53 90 106 95 46 46 55 55 32 -36 -83 hvcurveto
          -74 78 72 vlineto
          89 43 38 61 37 26 -20 -18 14 vhcurveto
          44 48 rlineto
          33 -30 -40 21 -55 hhcurveto
          -72 -51 -34 -64 -15 hvcurveto
          59 -13 -48 -91 callsubr
          11 15 1 2 12 hvcurveto
          -355 572 rmoveto
          523 67 -523 hlineto
          endchar
        </CharString>
        <CharString name="dvLA">
          178 756 -17 callgsubr
          -778 -67 583 -113 hlineto
          6 -15 -21 5 -24 hhcurveto
          -75 -50 -106 callgsubr
          42 38 66 21 19 -6 -7 14 vhcurveto
          -396 189 callsubr
          vlineto
          endchar
        </CharString>
        <CharString name="dvLL">
          242 557 91 rmoveto
          108 87 74 116 108 -79 75 -118 -78 -43 -29 -38 -29 hvcurveto
          29 callgsubr
          -3 309 rmoveto
          74 45 -48 -70 -75 -46 -50 -73 -57 -48 32 37 -31 hvcurveto
          80 27 14 94 95 hhcurveto
          -315 -243 59 callsubr
          -261 418 rmoveto
          842 67 -842 hlineto
          endchar
        </CharString>
        <CharString name="dvLLA">
          242 673 282 145 callgsubr
          74 45 -48 -70 hvcurveto
          -434 -125 59 callsubr
          581 418 rmoveto
          67 -842 -67 545 -113 vlineto
          -58 -7 -35 -26 -25 -32 rrcurveto
          29 callgsubr
          108 87 74 116 94 -60 69 -93 16 hvcurveto
          56 callgsubr
        </CharString>
        <CharString name="dvLL_YA">
          676 1061 -106 callsubr
          -388 -293 145 callgsubr
          55 39 -27 -42 16 hvcurveto
          2 -9 3 -8 2 -9 rrcurveto
          1 -7 1 -8 -8 vvcurveto
          -434 -125 59 callsubr
          1015 485 rmoveto
          -1276 -67 812 87 callgsubr
          -43 -32 -38 -66 -22 vhcurveto
          50 -33 -59 31 -76 hhcurveto
          -78 -43 -29 -38 -29 hvcurveto
          29 callgsubr
          78 67 39 65 31 hvcurveto
          -46 44 58 -24 64 -102 callsubr
        </CharString>
        <CharString name="dvL_BA">
          540 853 173 -32 callsubr
          -1141 -67 947 16 callsubr
          -62 -53 -20 -35 -39 hvcurveto
          21 -26 -34 12 -42 hhcurveto
          -72 -51 -106 callgsubr
          43 38 61 24 20 -9 -11 14 vhcurveto
          -16 -29 -9 -35 -38 55 callgsubr
        </CharString>
        <CharString name="dvL_BHA">
          463 848 106 callgsubr
          -14 -13 -2 -3 -13 vhcurveto
          1 -523 -67 493 -9 vlineto
          7 4 8 3 9 2 rrcurveto
          6 1 hlineto
          2 9 9 1 8 90 callgsubr
          -57 vlineto
          10 -21 -25 6 -28 hhcurveto
          -72 -51 -106 callgsubr
          43 38 61 32 23 -15 -15 15 vhcurveto
          -35 80 callsubr
        </CharString>
        <CharString name="dvL_DA">
          478 937 63 callsubr
          -1079 -67 881 -101 -104 vlineto
          -60 -49 -15 -26 -37 hvcurveto
          25 -28 -36 15 -46 hhcurveto
          -72 -51 -106 callgsubr
          43 38 61 26 20 -10 -12 15 vhcurveto
          -22 -32 -11 -39 -44 vvcurveto
          52 callsubr
          vhcurveto
          -77 callsubr
          endchar
        </CharString>
        <CharString name="dvL_DDA">
          465 900 171 callsubr
          -1066 -67 844 -84 -99 vlineto
          -53 -46 -15 -31 -29 hvcurveto
          18 -26 -31 10 -39 hhcurveto
          -72 -51 -106 callgsubr
          43 38 61 27 21 -10 -13 14 vhcurveto
          -1 -8 -1 -9 -10 vvcurveto
          -87 67 -40 117 -5 vhcurveto
          -62 callgsubr
        </CharString>
        <CharString name="dvL_DDHA">
          459 891 575 rmoveto
          146 67 -1059 -67 834 -109 hlineto
          2 -15 -16 1 -14 hhcurveto
          -60 -52 -15 -26 -40 hvcurveto
          28 -29 -37 17 -50 hhcurveto
          -72 -51 -106 callgsubr
          43 38 61 27 20 -10 -13 15 vhcurveto
          -34 -38 -18 -50 -54 vvcurveto
          -136 107 -87 139 124 77 67 87 0 callsubr
        </CharString>
        <CharString name="dvL_D_RA">
          469 928 63 callsubr
          -1070 -67 872 -101 -104 vlineto
          -58 -47 -14 -23 -36 hvcurveto
          22 -27 -35 14 -44 hhcurveto
          -72 -51 -106 callgsubr
          43 38 61 22 19 -7 -10 14 vhcurveto
          -24 -33 -12 -41 -46 vvcurveto
          -104 68 -84 118 -11 vhcurveto
          71 callgsubr
          endchar
        </CharString>
        <CharString name="dvL_GA">
          471 1049 -17 callgsubr
          -1071 -67 626 -124 hlineto
          14 -28 -35 8 -34 hhcurveto
          -72 -59 -106 callgsubr
          51 38 60 37 43 -20 -18 14 vhcurveto
          -27 64 callsubr
        </CharString>
        <CharString name="dvL_HA">
          453 918 106 callsubr
          113 67 -1053 -67 863 -92 -176 vlineto
          -36 -31 -9 -18 -22 hvcurveto
          11 -22 -25 6 -30 hhcurveto
          -72 -51 -106 callgsubr
          43 38 61 16 14 -4 -5 11 vhcurveto
          -1 -6 0 -5 -6 vvcurveto
          -62 38 -35 29 -19 vhcurveto
          -42 -31 -21 -43 -44 vvcurveto
          -86 78 -94 168 174 callgsubr
          vhcurveto
          -72 callsubr
        </CharString>
        <CharString name="dvL_JA">
          549 1127 -17 callgsubr
          -1149 -67 955 -124 -348 hlineto
          14 -24 -28 8 -34 hhcurveto
          -72 -51 -106 callgsubr
          43 38 61 19 16 -5 -8 13 vhcurveto
          -12 vlineto
          6 6 0 5 hhcurveto
          5 -5 4 -4 3 -4 10 11 rcurveline
          84 -10 52 -45 -79 -48 callgsubr
        </CharString>
        <CharString name="dvL_JxA">
          543 603 -33 rmoveto
          -102 callgsubr
          518 675 rmoveto
          -1143 -67 949 -124 -342 hlineto
          14 -24 -28 8 -34 hhcurveto
          -72 -51 -106 callgsubr
          43 38 61 16 14 -4 -6 12 vhcurveto
          -15 vlineto
          8 8 0 -1 8 hvcurveto
          4 -4 4 -4 3 -4 9 10 rcurveline
          81 -11 50 -44 -78 -48 callgsubr
        </CharString>
        <CharString name="dvL_KA">
          703 1281 174 callsubr
          -1303 -67 856 -305 vlineto
          -105 callgsubr
          -46 -42 -13 -24 -34 hvcurveto
          25 -28 -36 15 -47 hhcurveto
          -72 -51 -106 callgsubr
          43 38 61 26 21 -10 -12 15 vhcurveto
          -20 -30 -11 -36 -43 vvcurveto
          39 callsubr
          vhcurveto
          -89 callgsubr
        </CharString>
        <CharString name="dvL_KHA">
          745 1323 -17 callgsubr
          -1345 -67 764 -134 hlineto
          -58 -31 -36 -81 -3 vhcurveto
          91 -2 -70 38 -67 hhcurveto
          -72 -43 -106 callgsubr
          35 38 54 42 22 -24 -41 1 vhcurveto
          0 vlineto
          -65 vlineto
          215 -279 -86 callgsubr
        </CharString>
        <CharString name="dvL_K_YA">
          1035 1420 -106 callsubr
          -514 hmoveto
          243 87 callgsubr
          -22 -8 -20 -17 -18 vhcurveto
          28 -26 -46 26 -61 hhcurveto
          160 callsubr
          707 209 rmoveto
          -1635 -67 849 -305 hlineto
          90 callsubr
          49 68 79 54 44 69 7 8 70 callgsubr
          -6 -8 1 -9 hhcurveto
          -44 -41 -12 -22 -34 hvcurveto
          23 -27 -35 14 -45 hhcurveto
          -72 -51 -106 callgsubr
          43 38 61 23 19 -8 -10 15 vhcurveto
          -22 -30 -12 -38 -45 vvcurveto
          -108 76 -72 109 47 41 167 callsubr
          58 35 24 -11 -18 18 vhcurveto
          -21 -9 -26 -6 -29 -5 rrcurveto
          -158 21 100 -84 120 -102 callsubr
        </CharString>
        <CharString name="dvL_LA">
          657 1234 -17 callgsubr
          -1256 -67 1061 60 callsubr
          -39 -33 -12 -20 -27 hvcurveto
          22 -28 -34 14 -45 hhcurveto
          -72 -51 -106 callgsubr
          43 38 61 25 21 -9 -12 14 vhcurveto
          -19 -34 -11 -43 -48 vvcurveto
          -86 callsubr
        </CharString>
        <CharString name="dvL_L_YA">
          1007 1392 -106 callsubr
          193 67 rmoveto
          -1607 -67 1143 87 callgsubr
          -28 -14 -26 -28 -21 vhcurveto
          39 -28 -47 23 -55 hhcurveto
          -73 -50 -34 -64 -15 hvcurveto
          59 -14 153 callsubr
          -39 -34 -12 -21 -27 hvcurveto
          23 -28 -35 14 -45 hhcurveto
          -72 -51 -106 callgsubr
          43 38 61 26 21 -10 -13 15 vhcurveto
          -19 -33 -11 -43 -47 vvcurveto
          -149 94 -114 147 11 15 1 2 11 vhcurveto
          65 vlineto
          -2 -9 -11 0 -7 hhcurveto
          -119 -54 90 106 95 46 46 56 54 32 -36 -83 hvcurveto
          -74 79 72 vlineto
          89 42 38 61 28 24 -12 -15 16 vhcurveto
          -18 -6 -21 -5 -23 -4 rrcurveto
          -158 21 100 -84 120 -102 callsubr
        </CharString>
        <CharString name="dvL_MA">
          475 860 -30 callsubr
          193 67 rmoveto
          -1075 -67 594 -117 hlineto
          10 -21 -24 5 -28 hhcurveto
          -72 -51 -106 callgsubr
          43 38 61 31 23 -14 -15 15 vhcurveto
          -37 vlineto
          -55 callsubr
          hlineto
          endchar
        </CharString>
        <CharString name="dvL_PA">
          484 867 -38 callsubr
          194 67 rmoveto
          -1083 -67 576 -110 hlineto
          5 -16 -19 3 -20 hhcurveto
          -72 -51 -106 callgsubr
          43 38 61 20 17 -6 -9 14 vhcurveto
          -19 vlineto
          47 callsubr
        </CharString>
        <CharString name="dvL_PHA">
          731 877 60 callgsubr
          -1331 -67 586 -114 vlineto
          8 -19 -22 4 -24 hhcurveto
          -72 -51 -106 callgsubr
          43 38 61 26 20 -10 -12 15 vhcurveto
          -16 vlineto
          -141 65 -51 115 vhcurveto
          -103 callgsubr
        </CharString>
        <CharString name="dvL_SA">
          602 779 136 callsubr
          194 -242 vlineto
          193 309 rmoveto
          -1215 -67 750 -137 hlineto
          -58 -17 -33 -72 -3 vhcurveto
          90 -2 -78 39 -64 hhcurveto
          -72 -47 -106 callgsubr
          39 38 58 41 25 -26 -39 2 vhcurveto
          0 vlineto
          -62 -24 callsubr
        </CharString>
        <CharString name="dvL_TA">
          469 1047 -17 callgsubr
          -1069 -67 875 -123 -104 hlineto
          -52 -44 -9 -17 -36 hvcurveto
          29 -29 -38 18 -51 hhcurveto
          -72 -51 -106 callgsubr
          43 38 61 25 20 -9 -12 15 vhcurveto
          -41 -39 -20 -56 -64 84 callgsubr
          95 -384 54 callsubr
          hlineto
          endchar
        </CharString>
        <CharString name="dvL_THA">
          544 501 -17 callgsubr
          -523 -67 523 hlineto
          428 67 rmoveto
          78 callgsubr
          -84 -58 41 138 callgsubr
          152 callsubr
          -90 -54 -61 -66 -26 4 -15 4 -12 vhcurveto
          3 -13 -15 2 -16 hhcurveto
          -72 -51 -106 callgsubr
          43 38 61 37 26 -20 -18 14 vhcurveto
          44 48 -14 16 -17 13 -19 9 rlinecurve
          50 hlineto
          -4 11 -8 13 32 13 callgsubr
          -82 -86 -46 -170 -36 vhcurveto
          -163 16 113 -71 120 100 callgsubr
          vlineto
          endchar
        </CharString>
        <CharString name="dvL_TH_YA">
          980 516 -17 callgsubr
          -538 -67 538 hlineto
          849 -241 -33 callgsubr
          -92 -80 -59 54 72 -16 vhcurveto
          78 -104 callgsubr
          hlineto
          -405 67 rmoveto
          -67 134 vlineto
          -90 callsubr
          6 -45 12 -39 18 -32 rrcurveto
          -46 -49 -69 -30 -67 hhcurveto
          -84 -70 40 81 -19 hvcurveto
          3 callsubr
          152 callsubr
          -90 -54 -61 -66 -16 2 -14 2 -10 vhcurveto
          76 hlineto
          -1 8 -2 12 12 13 callgsubr
          -71 -64 -44 -127 -34 vhcurveto
          48 -14 -39 62 -80 hhcurveto
          -56 -48 -31 -61 -15 hvcurveto
          59 -13 -48 -91 callsubr
          11 15 1 2 12 hvcurveto
          65 vlineto
          -2 -10 -11 0 -6 hhcurveto
          -120 -53 90 106 95 46 46 55 55 32 -36 -83 hvcurveto
          -74 78 72 vlineto
          89 41 30 41 44 20 -33 -50 6 vhcurveto
          0 vlineto
          -150 27 112 -60 123 hhcurveto
          91 76 38 50 56 hvcurveto
          -47 44 58 -24 65 -101 callgsubr
          67 vlineto
          endchar
        </CharString>
</ttFont>
